SplineFontDB: 3.0
FontName: AdventPro-ExtraLight
FullName: Advent Pro ExtraLight
FamilyName: Advent Pro
Weight: Light
Copyright: Copyright (c) 2008 Andreas Kalpakidis (hello@inderesting.com), with Reserved Font Name "Advent Pro"
Version: 2.002 2007
ItalicAngle: 0
UnderlinePosition: -50
UnderlineWidth: 50
Ascent: 800
Descent: 200
sfntRevision: 0x00020083
LayerCount: 2
Layer: 0 1 "Back"  1
Layer: 1 1 "Fore"  0
XUID: [1021 288 713564382 1775452]
FSType: 0
OS2Version: 2
OS2_WeightWidthSlopeOnly: 0
OS2_UseTypoMetrics: 1
CreationTime: 1322417993
ModificationTime: 1322447463
PfmFamily: 17
TTFWeight: 250
TTFWidth: 5
LineGap: 0
VLineGap: 0
Panose: 2 0 5 6 4 0 0 2 0 4
OS2TypoAscent: 162
OS2TypoAOffset: 1
OS2TypoDescent: -32
OS2TypoDOffset: 1
OS2TypoLinegap: 0
OS2WinAscent: 14
OS2WinAOffset: 1
OS2WinDescent: 14
OS2WinDOffset: 1
HheadAscent: 16
HheadAOffset: 1
HheadDescent: -14
HheadDOffset: 1
OS2SubXSize: 650
OS2SubYSize: 600
OS2SubXOff: 0
OS2SubYOff: 75
OS2SupXSize: 650
OS2SupYSize: 600
OS2SupXOff: 0
OS2SupYOff: 350
OS2StrikeYSize: 50
OS2StrikeYPos: 250
OS2Vendor: 'ADBE'
OS2CodePages: 0000009b.00000000
OS2UnicodeRanges: 800000af.1000204a.00000000.00000000
Lookup: 258 0 0 "'kern' Horizontal Kerning in Latin lookup 0"  {"'kern' Horizontal Kerning in Latin lookup 0 subtable"  } ['kern' ('DFLT' <'dflt' > 'latn' <'dflt' > ) ]
MarkAttachClasses: 1
DEI: 91125
TtTable: prep
PUSHW_1
 511
SCANCTRL
PUSHB_1
 4
SCANTYPE
EndTTInstrs
ShortTable: maxp 16
  1
  0
  412
  67
  7
  0
  0
  2
  0
  1
  1
  0
  64
  0
  0
  0
EndShort
LangName: 1033 "" "" "" "AndreasKalpakidis: Advent Pro ExtraLight: 2008" "" "Version 2.002 2007" "" "Advent Pro Thin is a trademark of INDE Andreas Kalpakidis." "Andreas Kalpakidis" "Andreas Kalpakidis" "" "www.inderesting.com" "www.inderesting.com" "This Font Software is licensed under the SIL Open Font License, Version 1.1. This license is available with a FAQ at: http://scripts.sil.org/OFL" "http://scripts.sil.org/OFL" 
GaspTable: 1 65535 15
Encoding: UnicodeBmp

StartChar: .notdef
Encoding: 65536 -1 0
Width: 500
Flags: W
LayerCount: 2
Fore
SplineSet
500 0 m 1,0,-1
 0 0 l 1,1,-1
 0 700 l 1,2,-1
 500 700 l 1,3,-1
 500 0 l 1,0,-1
450 50 m 1,4,-1
 450 650 l 1,5,-1
 50 650 l 1,6,-1
 50 50 l 1,7,-1
 450 50 l 1,4,-1
425 133 m 1,8,-1
 386 101 l 1,9,-1
 250 305 l 1,10,-1
 113 100 l 1,11,-1
 73 129 l 1,12,-1
 220 350 l 1,13,-1
 73 571 l 1,14,-1
 113 600 l 1,15,-1
 250 395 l 1,16,-1
 386 599 l 1,17,-1
 425 567 l 1,18,-1
 280 350 l 1,19,-1
 425 133 l 1,8,-1
EndSplineSet
EndChar

StartChar: exclam
Encoding: 33 33 4
Width: 202
GlyphClass: 2
Flags: W
LayerCount: 2
Fore
SplineSet
114 120 m 1,0,-1
 88 120 l 1,1,-1
 78 685 l 2,2,3
 78 710 78 710 101 710 c 0,4,5
 122 710 122 710 122 686 c 2,6,-1
 114 120 l 1,0,-1
114.5 6.5 m 128,-1,8
 108 0 108 0 99.5 0 c 128,-1,9
 91 0 91 0 85 6.5 c 128,-1,10
 79 13 79 13 79 21.5 c 128,-1,11
 79 30 79 30 85 36.5 c 128,-1,12
 91 43 91 43 99.5 43 c 128,-1,13
 108 43 108 43 114.5 36.5 c 128,-1,14
 121 30 121 30 121 21.5 c 128,-1,7
 121 13 121 13 114.5 6.5 c 128,-1,8
EndSplineSet
EndChar

StartChar: quotedbl
Encoding: 34 34 5
Width: 426
GlyphClass: 2
Flags: W
LayerCount: 2
Fore
SplineSet
288 512 m 1,0,-1
 264 512 l 1,1,-1
 255 712 l 2,2,3
 255 727 255 727 263 732 c 128,-1,4
 271 737 271 737 276 737 c 1,5,-1
 286 734 l 1,6,7
 297 727 297 727 297 712 c 2,8,-1
 288 512 l 1,0,-1
160 512 m 1,9,-1
 136 512 l 1,10,-1
 126 712 l 2,11,12
 126 727 126 727 134 732 c 128,-1,13
 142 737 142 737 147.5 737 c 128,-1,14
 153 737 153 737 161 732 c 128,-1,15
 169 727 169 727 169 712 c 2,16,-1
 160 512 l 1,9,-1
EndSplineSet
EndChar

StartChar: numbersign
Encoding: 35 35 6
Width: 613
GlyphClass: 2
Flags: W
LayerCount: 2
Fore
SplineSet
582 213 m 1,0,-1
 389 213 l 1,1,-1
 339 0 l 1,2,-1
 307 0 l 1,3,-1
 357 213 l 1,4,-1
 191 213 l 1,5,-1
 142 0 l 1,6,-1
 110 0 l 1,7,-1
 160 213 l 1,8,-1
 34 213 l 1,9,-1
 34 245 l 1,10,-1
 167 245 l 1,11,-1
 207 413 l 1,12,-1
 34 413 l 1,13,-1
 34 445 l 1,14,-1
 215 445 l 1,15,-1
 274 700 l 1,16,-1
 306 700 l 1,17,-1
 246 445 l 1,18,-1
 412 445 l 1,19,-1
 471 700 l 1,20,-1
 503 700 l 1,21,-1
 443 445 l 1,22,-1
 582 445 l 1,23,-1
 582 413 l 1,24,-1
 436 413 l 1,25,-1
 396 245 l 1,26,-1
 582 245 l 1,27,-1
 582 213 l 1,0,-1
364 245 m 1,28,-1
 404 413 l 1,29,-1
 239 413 l 1,30,-1
 199 245 l 1,31,-1
 364 245 l 1,28,-1
EndSplineSet
EndChar

StartChar: dollar
Encoding: 36 36 7
Width: 540
GlyphClass: 2
Flags: W
LayerCount: 2
Fore
SplineSet
284 -114 m 1,0,-1
 253 -114 l 1,1,-1
 253 -11 l 1,2,3
 152 -6 152 -6 94 50.5 c 128,-1,4
 36 107 36 107 34 178 c 1,5,-1
 68 178 l 1,6,7
 70 122 70 122 119 73.5 c 128,-1,8
 168 25 168 25 253 20 c 1,9,-1
 253 362 l 1,10,11
 206 378 206 378 177 390 c 128,-1,12
 148 402 148 402 116 423 c 0,13,14
 52 464 52 464 52 533.5 c 128,-1,15
 52 603 52 603 104 653 c 128,-1,16
 156 703 156 703 253 709 c 1,17,-1
 253 817 l 1,18,-1
 284 817 l 1,19,-1
 284 710 l 1,20,21
 361 709 361 709 423 680 c 1,22,-1
 412 648 l 1,23,24
 353 677 353 677 284 679 c 1,25,-1
 284 385 l 1,26,27
 337 368 337 368 367.5 355 c 128,-1,28
 398 342 398 342 436 319 c 0,29,30
 509 274 509 274 509 187 c 128,-1,31
 509 100 509 100 454 46.5 c 128,-1,32
 399 -7 399 -7 284 -11 c 1,33,-1
 284 -114 l 1,0,-1
284 351 m 1,34,-1
 284 20 l 1,35,36
 368 23 368 23 421 63 c 128,-1,37
 474 103 474 103 474 187 c 0,38,39
 474 256 474 256 414 293 c 0,40,41
 364 324 364 324 284 351 c 1,34,-1
253 396 m 1,42,-1
 253 678 l 1,43,44
 178 672 178 672 132 635 c 128,-1,45
 86 598 86 598 86 540.5 c 128,-1,46
 86 483 86 483 128.5 453.5 c 128,-1,47
 171 424 171 424 253 396 c 1,42,-1
EndSplineSet
EndChar

StartChar: percent
Encoding: 37 37 8
Width: 667
GlyphClass: 2
Flags: W
LayerCount: 2
Fore
SplineSet
65 1 m 1,0,-1
 44 25 l 1,1,-1
 597 740 l 1,2,-1
 621 717 l 1,3,-1
 65 1 l 1,0,-1
491 -11 m 128,-1,5
 431 -11 431 -11 389 31 c 128,-1,6
 347 73 347 73 347 133 c 128,-1,7
 347 193 347 193 389 235 c 128,-1,8
 431 277 431 277 491 277 c 128,-1,9
 551 277 551 277 593 235 c 128,-1,10
 635 193 635 193 635 133 c 128,-1,11
 635 73 635 73 593 31 c 128,-1,4
 551 -11 551 -11 491 -11 c 128,-1,5
605 133 m 128,-1,13
 605 178 605 178 573.5 212.5 c 128,-1,14
 542 247 542 247 491 247 c 128,-1,15
 440 247 440 247 408.5 212.5 c 128,-1,16
 377 178 377 178 377 133 c 128,-1,17
 377 88 377 88 408.5 53.5 c 128,-1,18
 440 19 440 19 491 19 c 128,-1,19
 542 19 542 19 573.5 53.5 c 128,-1,12
 605 88 605 88 605 133 c 128,-1,13
180 439 m 128,-1,21
 120 439 120 439 78 481 c 128,-1,22
 36 523 36 523 36 583 c 128,-1,23
 36 643 36 643 78 685 c 128,-1,24
 120 727 120 727 180 727 c 128,-1,25
 240 727 240 727 282 685 c 128,-1,26
 324 643 324 643 324 583 c 128,-1,27
 324 523 324 523 282 481 c 128,-1,20
 240 439 240 439 180 439 c 128,-1,21
294 583 m 128,-1,29
 294 628 294 628 262.5 662 c 128,-1,30
 231 696 231 696 180 696 c 128,-1,31
 129 696 129 696 98 662 c 128,-1,32
 67 628 67 628 67 583 c 128,-1,33
 67 538 67 538 98 503.5 c 128,-1,34
 129 469 129 469 180 469 c 128,-1,35
 231 469 231 469 262.5 503.5 c 128,-1,28
 294 538 294 538 294 583 c 128,-1,29
EndSplineSet
EndChar

StartChar: ampersand
Encoding: 38 38 9
Width: 543
GlyphClass: 2
Flags: W
LayerCount: 2
Fore
SplineSet
491 16 m 1,0,-1
 482 -11 l 1,1,2
 409 11 409 11 403 104 c 1,3,4
 365 42 365 42 319.5 15.5 c 128,-1,5
 274 -11 274 -11 213 -11 c 0,6,7
 123 -11 123 -11 76 52 c 0,8,9
 35 107 35 107 35 179 c 0,10,11
 35 233 35 233 53.5 273 c 128,-1,12
 72 313 72 313 91.5 335.5 c 128,-1,13
 111 358 111 358 142 380 c 0,14,15
 185 409 185 409 250 437 c 1,16,17
 214 442 214 442 187 474 c 0,18,19
 155 511 155 511 155 569 c 0,20,21
 155 642 155 642 219 684 c 1,22,23
 262 711 262 711 303.5 711 c 128,-1,24
 345 711 345 711 381 699 c 1,25,-1
 364 672 l 1,26,27
 336 681 336 681 302.5 681 c 128,-1,28
 269 681 269 681 234 656 c 0,29,30
 187 622 187 622 187 570 c 0,31,32
 187 561 187 561 189 551 c 0,33,34
 198 492 198 492 240 471 c 0,35,36
 267 457 267 457 289.5 457 c 128,-1,37
 312 457 312 457 329 461 c 2,38,-1
 400 477 l 1,39,-1
 400 609 l 1,40,-1
 432 609 l 1,41,-1
 432 484 l 1,42,-1
 505 500 l 1,43,-1
 512 469 l 1,44,-1
 432 451 l 1,45,-1
 432 129 l 2,46,47
 432 36 432 36 491 16 c 1,0,-1
400 209 m 2,48,-1
 400 445 l 1,49,50
 258 414 258 414 195 376 c 0,51,52
 165 357 165 357 135 332 c 0,53,54
 67 277 67 277 67 180 c 0,55,56
 67 118 67 118 103.5 69 c 128,-1,57
 140 20 140 20 219 20 c 128,-1,58
 298 20 298 20 349 79.5 c 128,-1,59
 400 139 400 139 400 209 c 2,48,-1
EndSplineSet
EndChar

StartChar: quotesingle
Encoding: 39 39 10
Width: 167
GlyphClass: 2
Flags: W
LayerCount: 2
Fore
SplineSet
79 589 m 1,0,-1
 55 589 l 1,1,-1
 46 708 l 1,2,3
 46 725 46 725 54 730.5 c 128,-1,4
 62 736 62 736 67.5 736 c 128,-1,5
 73 736 73 736 81 730.5 c 128,-1,6
 89 725 89 725 89 708 c 1,7,-1
 79 589 l 1,0,-1
EndSplineSet
EndChar

StartChar: parenleft
Encoding: 40 40 11
Width: 274
GlyphClass: 2
Flags: W
LayerCount: 2
Fore
SplineSet
194 -94 m 1,0,-1
 183 -119 l 1,1,2
 126 -86 126 -86 102 -46.5 c 128,-1,3
 78 -7 78 -7 78 71 c 2,4,-1
 78 627 l 2,5,6
 78 705 78 705 102 744.5 c 128,-1,7
 126 784 126 784 183 817 c 1,8,-1
 194 793 l 1,9,10
 132 755 132 755 117 698 c 0,11,12
 110 671 110 671 110 636 c 2,13,-1
 110 64 l 2,14,15
 110 -11 110 -11 139 -46 c 0,16,17
 154 -65 154 -65 164.5 -73.5 c 128,-1,18
 175 -82 175 -82 194 -94 c 1,0,-1
EndSplineSet
EndChar

StartChar: parenright
Encoding: 41 41 12
Width: 274
GlyphClass: 2
Flags: W
LayerCount: 2
Fore
SplineSet
89 -119 m 1,0,-1
 78 -94 l 1,1,2
 97 -82 97 -82 107.5 -73.5 c 128,-1,3
 118 -65 118 -65 133 -46 c 0,4,5
 163 -10 163 -10 163 64 c 2,6,-1
 163 636 l 2,7,8
 163 707 163 707 135 743 c 0,9,10
 112 773 112 773 79 793 c 1,11,-1
 89 817 l 1,12,13
 146 784 146 784 170 744.5 c 128,-1,14
 194 705 194 705 194 627 c 2,15,-1
 194 71 l 2,16,17
 194 -7 194 -7 170 -46.5 c 128,-1,18
 146 -86 146 -86 89 -119 c 1,0,-1
EndSplineSet
EndChar

StartChar: asterisk
Encoding: 42 42 13
Width: 352
GlyphClass: 2
Flags: W
LayerCount: 2
Fore
SplineSet
277 444 m 1,0,-1
 252 425 l 1,1,-1
 175 529 l 1,2,-1
 102 425 l 1,3,-1
 76 443 l 1,4,-1
 148 545 l 1,5,-1
 28 589 l 1,6,-1
 39 618 l 1,7,-1
 158 571 l 1,8,-1
 158 700 l 1,9,-1
 191 700 l 1,10,-1
 190 571 l 1,11,-1
 312 618 l 1,12,-1
 323 589 l 1,13,-1
 200 545 l 1,14,-1
 277 444 l 1,0,-1
EndSplineSet
EndChar

StartChar: plus
Encoding: 43 43 14
Width: 385
GlyphClass: 2
Flags: W
LayerCount: 2
Fore
SplineSet
354 382 m 1,0,-1
 210 382 l 1,1,-1
 210 244 l 1,2,-1
 179 244 l 1,3,-1
 179 382 l 1,4,-1
 34 382 l 1,5,-1
 34 413 l 1,6,-1
 179 413 l 1,7,-1
 179 545 l 1,8,-1
 210 545 l 1,9,-1
 210 413 l 1,10,-1
 354 413 l 1,11,-1
 354 382 l 1,0,-1
EndSplineSet
EndChar

StartChar: comma
Encoding: 44 44 15
Width: 171
GlyphClass: 2
Flags: W
LayerCount: 2
Fore
SplineSet
48 -84 m 1,0,-1
 23 -67 l 1,1,2
 47 -54 47 -54 62.5 -37.5 c 128,-1,3
 78 -21 78 -21 82 -12 c 2,4,-1
 86 -2 l 1,5,-1
 81 -1 l 1,6,7
 66 6 66 6 66 18 c 128,-1,8
 66 30 66 30 72.5 36 c 128,-1,9
 79 42 79 42 87.5 42 c 128,-1,10
 96 42 96 42 103 35 c 128,-1,11
 110 28 110 28 110 19 c 0,12,13
 110 -33 110 -33 48 -84 c 1,0,-1
EndSplineSet
EndChar

StartChar: hyphen
Encoding: 45 45 16
Width: 410
GlyphClass: 2
Flags: W
LayerCount: 2
Fore
SplineSet
365 381 m 1,0,-1
 45 381 l 1,1,-1
 45 413 l 1,2,-1
 365 413 l 1,3,-1
 365 381 l 1,0,-1
EndSplineSet
EndChar

StartChar: period
Encoding: 46 46 17
Width: 127
GlyphClass: 2
Flags: W
LayerCount: 2
Fore
SplineSet
59.5 6.5 m 128,-1,1
 53 0 53 0 44.5 0 c 128,-1,2
 36 0 36 0 29.5 6.5 c 128,-1,3
 23 13 23 13 23 21.5 c 128,-1,4
 23 30 23 30 29.5 36.5 c 128,-1,5
 36 43 36 43 44.5 43 c 128,-1,6
 53 43 53 43 59.5 36.5 c 128,-1,7
 66 30 66 30 66 21.5 c 128,-1,0
 66 13 66 13 59.5 6.5 c 128,-1,1
EndSplineSet
EndChar

StartChar: slash
Encoding: 47 47 18
Width: 413
GlyphClass: 2
Flags: W
LayerCount: 2
Fore
SplineSet
62 -114 m 1,0,-1
 28 -114 l 1,1,-1
 352 817 l 1,2,-1
 385 817 l 1,3,-1
 62 -114 l 1,0,-1
EndSplineSet
EndChar

StartChar: zero
Encoding: 48 48 19
Width: 549
GlyphClass: 2
Flags: W
LayerCount: 2
Fore
SplineSet
483 506 m 2,0,-1
 483 185 l 2,1,2
 483 84 483 84 421.5 36.5 c 128,-1,3
 360 -11 360 -11 274 -11 c 128,-1,4
 188 -11 188 -11 125.5 36.5 c 128,-1,5
 63 84 63 84 63 185 c 2,6,-1
 63 507 l 2,7,8
 63 610 63 610 119.5 663 c 128,-1,9
 176 716 176 716 275 716 c 128,-1,10
 374 716 374 716 428.5 660 c 128,-1,11
 483 604 483 604 483 506 c 2,0,-1
451 185 m 2,12,-1
 451 512 l 2,13,14
 451 593 451 593 405 638.5 c 128,-1,15
 359 684 359 684 273 684 c 128,-1,16
 187 684 187 684 141 638.5 c 128,-1,17
 95 593 95 593 95 511 c 2,18,-1
 95 185 l 2,19,20
 95 103 95 103 146.5 61.5 c 128,-1,21
 198 20 198 20 274 20 c 128,-1,22
 350 20 350 20 400.5 59.5 c 128,-1,23
 451 99 451 99 451 185 c 2,12,-1
EndSplineSet
EndChar

StartChar: one
Encoding: 49 49 20
Width: 212
GlyphClass: 2
Flags: W
LayerCount: 2
Fore
SplineSet
183 0 m 1,0,-1
 151 0 l 1,1,-1
 151 652 l 1,2,3
 130 629 130 629 101.5 613.5 c 128,-1,4
 73 598 73 598 54 594 c 2,5,-1
 36 590 l 1,6,-1
 28 620 l 1,7,8
 37 621 37 621 51 624.5 c 128,-1,9
 65 628 65 628 98 648.5 c 128,-1,10
 131 669 131 669 151 700 c 1,11,-1
 183 700 l 1,12,-1
 183 0 l 1,0,-1
EndSplineSet
EndChar

StartChar: two
Encoding: 50 50 21
Width: 408
GlyphClass: 2
Flags: W
LayerCount: 2
Fore
SplineSet
379 0 m 1,0,-1
 28 0 l 1,1,-1
 28 32 l 1,2,-1
 306 429 l 1,3,4
 345 492 345 492 345 544 c 0,5,6
 345 604 345 604 305.5 641.5 c 128,-1,7
 266 679 266 679 210.5 679 c 128,-1,8
 155 679 155 679 120 650 c 128,-1,9
 85 621 85 621 71 578 c 1,10,-1
 41 590 l 1,11,12
 83 710 83 710 214 710 c 0,13,14
 279 710 279 710 326 667 c 0,15,16
 378 619 378 619 378 552 c 128,-1,17
 378 485 378 485 333 413 c 1,18,-1
 66 31 l 1,19,-1
 379 31 l 1,20,-1
 379 0 l 1,0,-1
EndSplineSet
EndChar

StartChar: three
Encoding: 51 51 22
Width: 446
GlyphClass: 2
Flags: W
LayerCount: 2
Fore
SplineSet
28 83 m 1,0,-1
 56 101 l 1,1,2
 109 20 109 20 205 20 c 0,3,4
 285 20 285 20 335.5 75 c 128,-1,5
 386 130 386 130 386 205 c 128,-1,6
 386 280 386 280 332.5 329 c 128,-1,7
 279 378 279 378 211 381 c 1,8,-1
 116 381 l 1,9,-1
 322 668 l 1,10,-1
 75 668 l 1,11,-1
 75 700 l 1,12,-1
 362 700 l 1,13,-1
 362 670 l 1,14,-1
 176 413 l 1,15,-1
 205 413 l 2,16,17
 294 413 294 413 356 351 c 128,-1,18
 418 289 418 289 418 200.5 c 128,-1,19
 418 112 418 112 356 50 c 128,-1,20
 294 -12 294 -12 205 -12 c 0,21,22
 151 -12 151 -12 104 13.5 c 128,-1,23
 57 39 57 39 28 83 c 1,0,-1
EndSplineSet
EndChar

StartChar: four
Encoding: 52 52 23
Width: 487
GlyphClass: 2
Flags: W
LayerCount: 2
Fore
SplineSet
386 0 m 1,0,-1
 354 0 l 1,1,-1
 353 381 l 1,2,-1
 28 381 l 1,3,-1
 208 700 l 1,4,-1
 241 700 l 1,5,-1
 83 413 l 1,6,-1
 354 413 l 1,7,-1
 354 700 l 1,8,-1
 386 700 l 1,9,-1
 386 413 l 1,10,-1
 459 413 l 1,11,-1
 448 381 l 1,12,-1
 386 381 l 1,13,-1
 386 0 l 1,0,-1
EndSplineSet
EndChar

StartChar: five
Encoding: 53 53 24
Width: 446
GlyphClass: 2
Flags: W
LayerCount: 2
Fore
SplineSet
28 83 m 1,0,-1
 55 100 l 1,1,2
 77 63 77 63 118 41.5 c 128,-1,3
 159 20 159 20 205 20 c 0,4,5
 283 20 283 20 334.5 74 c 128,-1,6
 386 128 386 128 386 200.5 c 128,-1,7
 386 273 386 273 335 327 c 128,-1,8
 284 381 284 381 206 381 c 2,9,-1
 63 381 l 1,10,-1
 97 700 l 1,11,-1
 362 700 l 1,12,-1
 362 668 l 1,13,-1
 126 668 l 1,14,-1
 98 413 l 1,15,-1
 205 413 l 2,16,17
 294 413 294 413 356 351 c 128,-1,18
 418 289 418 289 418 200.5 c 128,-1,19
 418 112 418 112 356 50 c 128,-1,20
 294 -12 294 -12 205 -12 c 0,21,22
 151 -12 151 -12 104 13.5 c 128,-1,23
 57 39 57 39 28 83 c 1,0,-1
EndSplineSet
EndChar

StartChar: six
Encoding: 54 54 25
Width: 481
GlyphClass: 2
Flags: W
LayerCount: 2
Fore
SplineSet
28 201 m 2,0,-1
 28 461 l 2,1,2
 28 544 28 544 78 616 c 1,3,4
 105 653 105 653 155 676.5 c 128,-1,5
 205 700 205 700 272 700 c 2,6,-1
 307 700 l 1,7,-1
 307 668 l 1,8,-1
 268 668 l 2,9,10
 189 668 189 668 128 621 c 0,11,12
 97 597 97 597 78 553 c 128,-1,13
 59 509 59 509 59 451 c 2,14,-1
 59 303 l 1,15,16
 86 360 86 360 135 386.5 c 128,-1,17
 184 413 184 413 240 413 c 0,18,19
 329 413 329 413 391 351 c 128,-1,20
 453 289 453 289 453 200.5 c 128,-1,21
 453 112 453 112 390.5 50 c 128,-1,22
 328 -12 328 -12 240 -12 c 128,-1,23
 152 -12 152 -12 90 50 c 128,-1,24
 28 112 28 112 28 201 c 2,0,-1
59 208 m 1,25,-1
 59 201 l 2,26,27
 59 125 59 125 111.5 72.5 c 128,-1,28
 164 20 164 20 240 20 c 128,-1,29
 316 20 316 20 368.5 72.5 c 128,-1,30
 421 125 421 125 421 201 c 128,-1,31
 421 277 421 277 368.5 329 c 128,-1,32
 316 381 316 381 241 381 c 128,-1,33
 166 381 166 381 114 331.5 c 128,-1,34
 62 282 62 282 59 208 c 1,25,-1
EndSplineSet
EndChar

StartChar: seven
Encoding: 55 55 26
Width: 450
GlyphClass: 2
Flags: W
LayerCount: 2
Fore
SplineSet
76 0 m 1,0,-1
 41 0 l 1,1,-1
 385 668 l 1,2,-1
 28 668 l 1,3,-1
 28 700 l 1,4,-1
 422 700 l 1,5,-1
 422 668 l 1,6,-1
 76 0 l 1,0,-1
EndSplineSet
EndChar

StartChar: eight
Encoding: 56 56 27
Width: 475
GlyphClass: 2
Flags: W
LayerCount: 2
Fore
SplineSet
235 369 m 1,0,1
 162 368 162 368 111 318 c 128,-1,2
 60 268 60 268 60 194 c 128,-1,3
 60 120 60 120 111.5 70 c 128,-1,4
 163 20 163 20 238 20 c 128,-1,5
 313 20 313 20 363.5 70 c 128,-1,6
 414 120 414 120 414 194 c 128,-1,7
 414 268 414 268 361.5 318 c 128,-1,8
 309 368 309 368 235 369 c 1,0,1
308 387 m 1,9,10
 371 366 371 366 408.5 311 c 128,-1,11
 446 256 446 256 446 195 c 0,12,13
 446 107 446 107 386.5 47.5 c 128,-1,14
 327 -12 327 -12 238 -12 c 128,-1,15
 149 -12 149 -12 88.5 47.5 c 128,-1,16
 28 107 28 107 28 195 c 0,17,18
 28 258 28 258 64.5 311.5 c 128,-1,19
 101 365 101 365 165 387 c 1,20,21
 122 405 122 405 95 447.5 c 128,-1,22
 68 490 68 490 68 536 c 0,23,24
 68 610 68 610 116.5 659.5 c 128,-1,25
 165 709 165 709 238 709 c 128,-1,26
 311 709 311 709 360 659.5 c 128,-1,27
 409 610 409 610 409 536 c 0,28,29
 409 489 409 489 382.5 448 c 128,-1,30
 356 407 356 407 308 387 c 1,9,10
140.5 439 m 128,-1,32
 182 400 182 400 237.5 399.5 c 128,-1,33
 293 399 293 399 335.5 438 c 128,-1,34
 378 477 378 477 378 536.5 c 128,-1,35
 378 596 378 596 338 637 c 128,-1,36
 298 678 298 678 238.5 678 c 128,-1,37
 179 678 179 678 139 637 c 128,-1,38
 99 596 99 596 99 537 c 128,-1,31
 99 478 99 478 140.5 439 c 128,-1,32
EndSplineSet
EndChar

StartChar: nine
Encoding: 57 57 28
Width: 481
GlyphClass: 2
Flags: W
LayerCount: 2
Fore
SplineSet
209 0 m 2,0,-1
 174 0 l 1,1,-1
 174 32 l 1,2,-1
 213 32 l 2,3,4
 292 32 292 32 352 78 c 0,5,6
 384 102 384 102 402.5 145.5 c 128,-1,7
 421 189 421 189 421 247 c 2,8,-1
 421 394 l 1,9,10
 394 337 394 337 345.5 310.5 c 128,-1,11
 297 284 297 284 241 284 c 0,12,13
 152 284 152 284 90 346 c 128,-1,14
 28 408 28 408 28 496 c 128,-1,15
 28 584 28 584 90 646.5 c 128,-1,16
 152 709 152 709 240.5 709 c 128,-1,17
 329 709 329 709 391 647 c 128,-1,18
 453 585 453 585 453 496 c 2,19,-1
 453 237 l 2,20,21
 453 154 453 154 402 83 c 0,22,23
 376 46 376 46 326 23 c 128,-1,24
 276 0 276 0 209 0 c 2,0,-1
421 489 m 1,25,-1
 421 496 l 2,26,27
 421 572 421 572 369 624.5 c 128,-1,28
 317 677 317 677 241 677 c 128,-1,29
 165 677 165 677 112 624.5 c 128,-1,30
 59 572 59 572 59 496 c 128,-1,31
 59 420 59 420 112 368 c 128,-1,32
 165 316 165 316 240 316 c 128,-1,33
 315 316 315 316 367 365.5 c 128,-1,34
 419 415 419 415 421 489 c 1,25,-1
EndSplineSet
EndChar

StartChar: colon
Encoding: 58 58 29
Width: 99
GlyphClass: 2
Flags: W
LayerCount: 2
Fore
SplineSet
64.5 116.5 m 128,-1,1
 58 110 58 110 49.5 110 c 128,-1,2
 41 110 41 110 34.5 116.5 c 128,-1,3
 28 123 28 123 28 131.5 c 128,-1,4
 28 140 28 140 34.5 146.5 c 128,-1,5
 41 153 41 153 49.5 153 c 128,-1,6
 58 153 58 153 64.5 146.5 c 128,-1,7
 71 140 71 140 71 131.5 c 128,-1,0
 71 123 71 123 64.5 116.5 c 128,-1,1
64.5 381.5 m 128,-1,9
 58 375 58 375 49.5 375 c 128,-1,10
 41 375 41 375 34.5 381.5 c 128,-1,11
 28 388 28 388 28 396.5 c 128,-1,12
 28 405 28 405 34.5 411.5 c 128,-1,13
 41 418 41 418 49.5 418 c 128,-1,14
 58 418 58 418 64.5 411.5 c 128,-1,15
 71 405 71 405 71 396.5 c 128,-1,8
 71 388 71 388 64.5 381.5 c 128,-1,9
EndSplineSet
EndChar

StartChar: semicolon
Encoding: 59 59 30
Width: 143
GlyphClass: 2
Flags: W
LayerCount: 2
Fore
SplineSet
106.5 262.5 m 128,-1,1
 100 256 100 256 91.5 256 c 128,-1,2
 83 256 83 256 76.5 262.5 c 128,-1,3
 70 269 70 269 70 277.5 c 128,-1,4
 70 286 70 286 76.5 292.5 c 128,-1,5
 83 299 83 299 91.5 299 c 128,-1,6
 100 299 100 299 106.5 292.5 c 128,-1,7
 113 286 113 286 113 277.5 c 128,-1,0
 113 269 113 269 106.5 262.5 c 128,-1,1
53 -82 m 1,8,-1
 28 -65 l 1,9,10
 52 -52 52 -52 67.5 -35.5 c 128,-1,11
 83 -19 83 -19 87 -10 c 2,12,-1
 91 0 l 1,13,-1
 86 1 l 1,14,15
 71 8 71 8 71 20 c 128,-1,16
 71 32 71 32 77.5 38 c 128,-1,17
 84 44 84 44 93 44 c 128,-1,18
 102 44 102 44 108.5 37 c 128,-1,19
 115 30 115 30 115 21 c 0,20,21
 115 -31 115 -31 53 -82 c 1,8,-1
EndSplineSet
EndChar

StartChar: less
Encoding: 60 60 31
Width: 357
GlyphClass: 2
Flags: W
LayerCount: 2
Fore
SplineSet
329 102 m 1,0,-1
 306 80 l 1,1,-1
 28 358 l 1,2,-1
 28 359 l 1,3,-1
 306 637 l 1,4,-1
 329 615 l 1,5,-1
 70 358 l 1,6,-1
 329 102 l 1,0,-1
EndSplineSet
EndChar

StartChar: equal
Encoding: 61 61 32
Width: 376
GlyphClass: 2
Flags: W
LayerCount: 2
Fore
SplineSet
348 381 m 1,0,-1
 28 381 l 1,1,-1
 28 413 l 1,2,-1
 348 413 l 1,3,-1
 348 381 l 1,0,-1
348 276 m 1,4,-1
 28 276 l 1,5,-1
 28 308 l 1,6,-1
 348 308 l 1,7,-1
 348 276 l 1,4,-1
EndSplineSet
EndChar

StartChar: greater
Encoding: 62 62 33
Width: 357
GlyphClass: 2
Flags: W
LayerCount: 2
Fore
SplineSet
51 80 m 1,0,-1
 28 102 l 1,1,-1
 287 358 l 1,2,-1
 28 615 l 1,3,-1
 51 637 l 1,4,-1
 329 359 l 1,5,-1
 329 358 l 1,6,-1
 51 80 l 1,0,-1
EndSplineSet
EndChar

StartChar: question
Encoding: 63 63 34
Width: 411
GlyphClass: 2
Flags: W
LayerCount: 2
Fore
SplineSet
208 119 m 1,0,-1
 178 119 l 1,1,-1
 178 194 l 2,2,3
 178 240 178 240 193.5 277.5 c 128,-1,4
 209 315 209 315 228 335.5 c 128,-1,5
 247 356 247 356 274.5 384.5 c 128,-1,6
 302 413 302 413 316 433 c 0,7,8
 349 481 349 481 349 536 c 0,9,10
 349 613 349 613 286 655 c 0,11,12
 251 678 251 678 197 678 c 128,-1,13
 143 678 143 678 101.5 639.5 c 128,-1,14
 60 601 60 601 60 532 c 1,15,-1
 28 532 l 1,16,17
 28 607 28 607 74.5 658 c 128,-1,18
 121 709 121 709 206 709 c 0,19,20
 258 709 258 709 300 682 c 0,21,22
 382 631 382 631 382 537 c 0,23,24
 382 475 382 475 345 421 c 0,25,26
 326 394 326 394 297 364.5 c 128,-1,27
 268 335 268 335 251.5 317 c 128,-1,28
 235 299 235 299 221.5 263.5 c 128,-1,29
 208 228 208 228 208 179 c 2,30,-1
 208 119 l 1,0,-1
208.5 6.5 m 128,-1,32
 202 0 202 0 193.5 0 c 128,-1,33
 185 0 185 0 178.5 6.5 c 128,-1,34
 172 13 172 13 172 21.5 c 128,-1,35
 172 30 172 30 178.5 36.5 c 128,-1,36
 185 43 185 43 193.5 43 c 128,-1,37
 202 43 202 43 208.5 36.5 c 128,-1,38
 215 30 215 30 215 21.5 c 128,-1,31
 215 13 215 13 208.5 6.5 c 128,-1,32
EndSplineSet
EndChar

StartChar: at
Encoding: 64 64 35
Width: 715
GlyphClass: 2
Flags: W
LayerCount: 2
Fore
SplineSet
324 54 m 0,0,1
 162 54 162 54 151 204 c 1,2,-1
 151 305 l 2,3,4
 151 416 151 416 239 449 c 0,5,6
 270 460 270 460 308 460 c 0,7,8
 390 460 390 460 502 408 c 1,9,10
 500 473 500 473 454 510 c 1,11,12
 408 549 408 549 306 549 c 128,-1,13
 204 549 204 549 132 498.5 c 128,-1,14
 60 448 60 448 60 342 c 2,15,-1
 60 190 l 2,16,17
 60 84 60 84 133 24.5 c 128,-1,18
 206 -35 206 -35 324 -35 c 0,19,20
 456 -35 456 -35 539 20 c 128,-1,21
 622 75 622 75 622 162 c 2,22,-1
 622 363 l 2,23,24
 622 422 622 422 630.5 447 c 128,-1,25
 639 472 639 472 676 491 c 1,26,-1
 687 466 l 1,27,28
 654 451 654 451 654 396 c 2,29,-1
 654 171 l 2,30,31
 654 108 654 108 623.5 60 c 128,-1,32
 593 12 593 12 543 -14 c 0,33,34
 443 -66 443 -66 321.5 -66 c 128,-1,35
 200 -66 200 -66 114 -1.5 c 128,-1,36
 28 63 28 63 28 189 c 2,37,-1
 28 340 l 2,38,39
 28 452 28 452 94 508 c 1,40,41
 150 554 150 554 206.5 567 c 128,-1,42
 263 580 263 580 313 580 c 0,43,44
 450 580 450 580 504 507 c 0,45,46
 536 464 536 464 536 397 c 1,47,-1
 573 381 l 1,48,-1
 573 350 l 1,49,-1
 536 366 l 1,50,-1
 536 91 l 1,51,52
 400 54 400 54 324 54 c 0,0,1
503 117 m 1,53,-1
 503 377 l 1,54,55
 399 429 399 429 299 429 c 0,56,57
 250 429 250 429 216 398 c 128,-1,58
 182 367 182 367 182 302 c 2,59,-1
 182 206 l 2,60,61
 182 156 182 156 208 126 c 0,62,63
 245 85 245 85 326 85 c 128,-1,64
 407 85 407 85 503 117 c 1,53,-1
EndSplineSet
EndChar

StartChar: A
Encoding: 65 65 36
Width: 527
GlyphClass: 2
Flags: W
LayerCount: 2
Fore
SplineSet
517 0 m 1,0,-1
 482 0 l 1,1,-1
 391 268 l 1,2,-1
 137 268 l 1,3,-1
 45 0 l 1,4,-1
 12 0 l 1,5,-1
 250 700 l 1,6,-1
 277 700 l 1,7,-1
 517 0 l 1,0,-1
381 300 m 1,8,-1
 263 644 l 1,9,-1
 147 300 l 1,10,-1
 381 300 l 1,8,-1
EndSplineSet
EndChar

StartChar: B
Encoding: 66 66 37
Width: 548
GlyphClass: 2
Flags: W
LayerCount: 2
Fore
SplineSet
308 0 m 2,0,-1
 78 0 l 1,1,-1
 78 700 l 1,2,-1
 299 700 l 2,3,4
 381 700 381 700 428 658.5 c 128,-1,5
 475 617 475 617 475 537 c 0,6,7
 475 495 475 495 455 457.5 c 128,-1,8
 435 420 435 420 395 400 c 0,9,10
 394 399 394 399 394 398 c 2,11,-1
 394 397 l 1,12,13
 444 377 444 377 477.5 331 c 128,-1,14
 511 285 511 285 511 209 c 0,15,16
 511 129 511 129 470 70 c 1,17,18
 449 38 449 38 407.5 19 c 128,-1,19
 366 0 366 0 308 0 c 2,0,-1
110 413 m 1,20,-1
 322 413 l 2,21,22
 371 413 371 413 406 445 c 0,23,24
 442 478 442 478 442 540 c 128,-1,25
 442 602 442 602 404 635.5 c 128,-1,26
 366 669 366 669 291 669 c 2,27,-1
 110 669 l 1,28,-1
 110 413 l 1,20,-1
110 31 m 1,29,-1
 306 31 l 2,30,31
 388 31 388 31 433 76 c 128,-1,32
 478 121 478 121 478 204.5 c 128,-1,33
 478 288 478 288 433 334.5 c 128,-1,34
 388 381 388 381 314 381 c 2,35,-1
 110 381 l 1,36,-1
 110 31 l 1,29,-1
EndSplineSet
EndChar

StartChar: C
Encoding: 67 67 38
Width: 432
GlyphClass: 2
Flags: W
LayerCount: 2
Fore
SplineSet
427 23 m 1,0,1
 342 -10 342 -10 265 -10 c 0,2,3
 249 -10 249 -10 216.5 -7 c 128,-1,4
 184 -4 184 -4 147.5 15.5 c 128,-1,5
 111 35 111 35 88.5 77.5 c 128,-1,6
 66 120 66 120 66 183 c 2,7,-1
 66 504 l 2,8,9
 66 580 66 580 87.5 619 c 128,-1,10
 109 658 109 658 153 685 c 1,11,12
 198 710 198 710 261 710 c 0,13,14
 340 710 340 710 402 677 c 1,15,-1
 391 653 l 1,16,17
 325 680 325 680 268 680 c 0,18,19
 187 680 187 680 141 637 c 0,20,21
 123 620 123 620 110.5 588 c 128,-1,22
 98 556 98 556 98 513 c 2,23,-1
 98 185 l 2,24,25
 98 67 98 67 187 32 c 0,26,27
 222 18 222 18 277 18 c 128,-1,28
 332 18 332 18 419 51 c 1,29,-1
 427 23 l 1,0,1
EndSplineSet
EndChar

StartChar: D
Encoding: 68 68 39
Width: 576
GlyphClass: 2
Flags: W
LayerCount: 2
Fore
SplineSet
286 0 m 2,0,-1
 78 0 l 1,1,-1
 78 701 l 1,2,-1
 266 701 l 2,3,4
 379 701 379 701 438.5 639 c 128,-1,5
 498 577 498 577 498 474 c 2,6,-1
 498 200 l 2,7,8
 498 0 498 0 286 0 c 2,0,-1
466 206 m 2,9,-1
 466 474 l 2,10,11
 466 572 466 572 410.5 620.5 c 128,-1,12
 355 669 355 669 276 669 c 2,13,-1
 110 669 l 1,14,-1
 110 30 l 1,15,-1
 274 30 l 2,16,17
 302 30 302 30 323 32 c 128,-1,18
 344 34 344 34 373 44.5 c 128,-1,19
 402 55 402 55 420.5 72.5 c 128,-1,20
 439 90 439 90 452.5 124.5 c 128,-1,21
 466 159 466 159 466 206 c 2,9,-1
EndSplineSet
EndChar

StartChar: E
Encoding: 69 69 40
Width: 465
GlyphClass: 2
Flags: W
LayerCount: 2
Fore
SplineSet
410 0 m 1,0,-1
 78 0 l 1,1,-1
 78 700 l 1,2,-1
 412 700 l 1,3,-1
 412 669 l 1,4,-1
 110 669 l 1,5,-1
 110 413 l 1,6,-1
 325 413 l 1,7,-1
 314 381 l 1,8,-1
 110 381 l 1,9,-1
 110 30 l 1,10,-1
 410 30 l 1,11,-1
 410 0 l 1,0,-1
EndSplineSet
EndChar

StartChar: F
Encoding: 70 70 41
Width: 449
GlyphClass: 2
Flags: W
LayerCount: 2
Fore
SplineSet
111 0 m 1,0,-1
 78 0 l 1,1,-1
 78 700 l 1,2,-1
 412 700 l 1,3,-1
 412 668 l 1,4,-1
 111 668 l 1,5,-1
 111 413 l 1,6,-1
 305 413 l 1,7,-1
 292 381 l 1,8,-1
 111 381 l 1,9,-1
 111 0 l 1,0,-1
EndSplineSet
EndChar

StartChar: G
Encoding: 71 71 42
Width: 537
GlyphClass: 2
Flags: W
LayerCount: 2
Fore
SplineSet
391 652 m 1,0,1
 320 680 320 680 265 680 c 0,2,3
 225 680 225 680 193 667.5 c 128,-1,4
 161 655 161 655 142.5 637 c 128,-1,5
 124 619 124 619 110.5 584 c 128,-1,6
 97 549 97 549 97 502 c 2,7,-1
 97 187 l 2,8,9
 97 112 97 112 146 66.5 c 128,-1,10
 195 21 195 21 278.5 21 c 128,-1,11
 362 21 362 21 403.5 67.5 c 128,-1,12
 445 114 445 114 445 183 c 2,13,-1
 445 268 l 1,14,-1
 350 268 l 1,15,-1
 338 300 l 1,16,-1
 476 300 l 1,17,-1
 476 0 l 1,18,-1
 449 0 l 1,19,-1
 444 72 l 1,20,21
 398 -10 398 -10 276 -10 c 0,22,23
 188 -10 188 -10 126.5 40 c 128,-1,24
 65 90 65 90 65 189 c 2,25,-1
 65 503 l 2,26,27
 65 631 65 631 152 684 c 1,28,29
 197 709 197 709 259 709 c 0,30,31
 336 709 336 709 401 676 c 1,32,-1
 391 652 l 1,0,1
EndSplineSet
EndChar

StartChar: H
Encoding: 72 72 43
Width: 588
GlyphClass: 2
Flags: W
LayerCount: 2
Fore
SplineSet
508 0 m 1,0,-1
 476 0 l 1,1,-1
 476 381 l 1,2,-1
 110 381 l 1,3,-1
 110 0 l 1,4,-1
 78 0 l 1,5,-1
 78 700 l 1,6,-1
 110 700 l 1,7,-1
 110 413 l 1,8,-1
 476 413 l 1,9,-1
 476 700 l 1,10,-1
 508 700 l 1,11,-1
 508 0 l 1,0,-1
EndSplineSet
EndChar

StartChar: I
Encoding: 73 73 44
Width: 195
GlyphClass: 2
Flags: W
LayerCount: 2
Fore
SplineSet
141 0 m 1,0,-1
 109 0 l 1,1,-1
 109 668 l 1,2,-1
 29 670 l 1,3,-1
 29 700 l 1,4,-1
 141 700 l 1,5,-1
 141 0 l 1,0,-1
EndSplineSet
EndChar

StartChar: J
Encoding: 74 74 45
Width: 177
GlyphClass: 2
Flags: W
LayerCount: 2
Fore
SplineSet
9 -37 m 1,0,-1
 1 -12 l 1,1,2
 89 -3 89 -3 89 117 c 2,3,-1
 89 668 l 1,4,-1
 11 670 l 1,5,-1
 11 700 l 1,6,-1
 121 700 l 1,7,-1
 121 121 l 2,8,9
 121 46 121 46 94 7.5 c 128,-1,10
 67 -31 67 -31 9 -37 c 1,0,-1
EndSplineSet
EndChar

StartChar: K
Encoding: 75 75 46
Width: 478
GlyphClass: 2
Flags: W
LayerCount: 2
Fore
SplineSet
476 0 m 1,0,-1
 439 0 l 1,1,-1
 191 383 l 1,2,-1
 111 276 l 1,3,-1
 111 0 l 1,4,-1
 79 0 l 1,5,-1
 79 701 l 1,6,-1
 111 701 l 1,7,-1
 111 329 l 1,8,-1
 387 701 l 1,9,-1
 424 701 l 1,10,-1
 211 411 l 1,11,-1
 476 0 l 1,0,-1
EndSplineSet
EndChar

StartChar: L
Encoding: 76 76 47
Width: 440
GlyphClass: 2
Flags: W
LayerCount: 2
Fore
SplineSet
439 0 m 1,0,-1
 78 0 l 1,1,-1
 78 700 l 1,2,-1
 110 700 l 1,3,-1
 110 30 l 1,4,-1
 439 30 l 1,5,-1
 439 0 l 1,0,-1
EndSplineSet
EndChar

StartChar: M
Encoding: 77 77 48
Width: 694
GlyphClass: 2
Flags: W
LayerCount: 2
Fore
SplineSet
614 0 m 1,0,-1
 583 0 l 1,1,-1
 583 608 l 1,2,-1
 362 0 l 1,3,-1
 329 0 l 1,4,-1
 109 608 l 1,5,-1
 109 0 l 1,6,-1
 78 0 l 1,7,-1
 78 700 l 1,8,-1
 109 700 l 1,9,-1
 346 50 l 1,10,-1
 583 700 l 1,11,-1
 614 700 l 1,12,-1
 614 0 l 1,0,-1
EndSplineSet
EndChar

StartChar: N
Encoding: 78 78 49
Width: 650
GlyphClass: 2
Flags: W
LayerCount: 2
Fore
SplineSet
570 0 m 1,0,-1
 539 0 l 1,1,-1
 109 644 l 1,2,-1
 109 0 l 1,3,-1
 78 0 l 1,4,-1
 78 700 l 1,5,-1
 109 700 l 1,6,-1
 539 57 l 1,7,-1
 539 700 l 1,8,-1
 570 700 l 1,9,-1
 570 0 l 1,0,-1
EndSplineSet
EndChar

StartChar: O
Encoding: 79 79 50
Width: 549
GlyphClass: 2
Flags: W
LayerCount: 2
Fore
SplineSet
483 506 m 2,0,-1
 483 185 l 2,1,2
 483 84 483 84 421.5 36.5 c 128,-1,3
 360 -11 360 -11 274 -11 c 128,-1,4
 188 -11 188 -11 125.5 36.5 c 128,-1,5
 63 84 63 84 63 185 c 2,6,-1
 63 507 l 2,7,8
 63 610 63 610 119.5 663 c 128,-1,9
 176 716 176 716 275 716 c 128,-1,10
 374 716 374 716 428.5 660 c 128,-1,11
 483 604 483 604 483 506 c 2,0,-1
451 185 m 2,12,-1
 451 512 l 2,13,14
 451 593 451 593 405 638.5 c 128,-1,15
 359 684 359 684 273 684 c 128,-1,16
 187 684 187 684 141 638.5 c 128,-1,17
 95 593 95 593 95 511 c 2,18,-1
 95 185 l 2,19,20
 95 103 95 103 146.5 61.5 c 128,-1,21
 198 20 198 20 274 20 c 128,-1,22
 350 20 350 20 400.5 59.5 c 128,-1,23
 451 99 451 99 451 185 c 2,12,-1
EndSplineSet
EndChar

StartChar: P
Encoding: 80 80 51
Width: 549
GlyphClass: 2
Flags: W
LayerCount: 2
Fore
SplineSet
110 300 m 1,0,-1
 317 300 l 2,1,2
 480 300 480 300 480 486 c 0,3,4
 480 572 480 572 441.5 620 c 128,-1,5
 403 668 403 668 326 668 c 2,6,-1
 110 668 l 1,7,-1
 110 300 l 1,0,-1
110 0 m 1,8,-1
 78 0 l 1,9,-1
 78 700 l 1,10,-1
 324 700 l 2,11,12
 419 700 419 700 465.5 642 c 128,-1,13
 512 584 512 584 512 486 c 0,14,15
 512 372 512 372 462 319 c 0,16,17
 443 298 443 298 405.5 283 c 128,-1,18
 368 268 368 268 318 268 c 2,19,-1
 110 268 l 1,20,-1
 110 0 l 1,8,-1
EndSplineSet
EndChar

StartChar: Q
Encoding: 81 81 52
Width: 549
GlyphClass: 2
Flags: W
LayerCount: 2
Fore
SplineSet
428 -63 m 1,0,-1
 428 -94 l 1,1,2
 305 -94 305 -94 273 -11 c 1,3,4
 185 -10 185 -10 124 38 c 128,-1,5
 63 86 63 86 63 185 c 2,6,-1
 63 507 l 2,7,8
 63 610 63 610 119.5 663 c 128,-1,9
 176 716 176 716 275 716 c 128,-1,10
 374 716 374 716 428.5 660 c 128,-1,11
 483 604 483 604 483 506 c 2,12,-1
 483 185 l 2,13,14
 483 97 483 97 435 49 c 128,-1,15
 387 1 387 1 308 -10 c 1,16,17
 327 -62 327 -62 428 -63 c 1,0,-1
451 186 m 2,18,-1
 451 516 l 2,19,20
 451 600 451 600 401 642 c 128,-1,21
 351 684 351 684 274 684 c 128,-1,22
 197 684 197 684 146.5 643.5 c 128,-1,23
 96 603 96 603 96 516 c 2,24,-1
 96 185 l 2,25,26
 96 103 96 103 146.5 62.5 c 128,-1,27
 197 22 197 22 265 20 c 1,28,29
 261 44 261 44 261 88 c 2,30,-1
 261 174 l 1,31,-1
 293 174 l 1,32,-1
 294 88 l 2,33,34
 294 44 294 44 298 21 c 1,35,36
 370 26 370 26 410.5 70.5 c 128,-1,37
 451 115 451 115 451 186 c 2,18,-1
EndSplineSet
EndChar

StartChar: R
Encoding: 82 82 53
Width: 564
GlyphClass: 2
Flags: W
LayerCount: 2
Fore
SplineSet
513 0 m 1,0,-1
 479 0 l 1,1,-1
 362 271 l 1,2,3
 347 268 347 268 332 268 c 2,4,-1
 111 268 l 1,5,-1
 111 0 l 1,6,-1
 78 0 l 1,7,-1
 78 700 l 1,8,-1
 319 700 l 2,9,10
 417 700 417 700 464.5 642 c 128,-1,11
 512 584 512 584 512 486 c 0,12,13
 512 321 512 321 393 279 c 1,14,-1
 513 0 l 1,0,-1
111 300 m 1,15,-1
 322 300 l 2,16,17
 368 300 368 300 401 317.5 c 128,-1,18
 434 335 434 335 450 364 c 0,19,20
 479 418 479 418 479 496 c 128,-1,21
 479 574 479 574 438 621 c 128,-1,22
 397 668 397 668 320 668 c 2,23,-1
 111 668 l 1,24,-1
 111 300 l 1,15,-1
EndSplineSet
EndChar

StartChar: S
Encoding: 83 83 54
Width: 561
GlyphClass: 2
Flags: W
LayerCount: 2
Fore
SplineSet
37 178 m 1,0,-1
 71 178 l 1,1,2
 73 119 73 119 126 69.5 c 128,-1,3
 179 20 179 20 270.5 20 c 128,-1,4
 362 20 362 20 419.5 60 c 128,-1,5
 477 100 477 100 477 187 c 0,6,7
 477 235 477 235 445.5 269.5 c 128,-1,8
 414 304 414 304 367.5 321.5 c 128,-1,9
 321 339 321 339 266 359 c 128,-1,10
 211 379 211 379 164.5 397 c 128,-1,11
 118 415 118 415 86.5 451.5 c 128,-1,12
 55 488 55 488 55 538 c 0,13,14
 55 608 55 608 113 659 c 128,-1,15
 171 710 171 710 280 710 c 0,16,17
 363 710 363 710 426 680 c 1,18,-1
 415 648 l 1,19,20
 355 679 355 679 276.5 679 c 128,-1,21
 198 679 198 679 143.5 641.5 c 128,-1,22
 89 604 89 604 89 535 c 0,23,24
 89 486 89 486 132.5 453.5 c 128,-1,25
 176 421 176 421 238 401.5 c 128,-1,26
 300 382 300 382 362.5 359.5 c 128,-1,27
 425 337 425 337 468.5 294.5 c 128,-1,28
 512 252 512 252 512 189 c 0,29,30
 512 97 512 97 453.5 43 c 128,-1,31
 395 -11 395 -11 279.5 -11 c 128,-1,32
 164 -11 164 -11 101.5 46.5 c 128,-1,33
 39 104 39 104 37 178 c 1,0,-1
EndSplineSet
EndChar

StartChar: T
Encoding: 84 84 55
Width: 402
GlyphClass: 2
Flags: W
LayerCount: 2
Fore
SplineSet
214 0 m 1,0,-1
 183 0 l 1,1,-1
 182 669 l 1,2,-1
 0 669 l 1,3,-1
 0 700 l 1,4,-1
 402 700 l 1,5,-1
 402 669 l 1,6,-1
 214 669 l 1,7,-1
 214 0 l 1,0,-1
EndSplineSet
EndChar

StartChar: U
Encoding: 85 85 56
Width: 566
GlyphClass: 2
Flags: W
LayerCount: 2
Fore
SplineSet
463 182 m 2,0,-1
 463 701 l 1,1,-1
 495 701 l 1,2,-1
 495 186 l 2,3,4
 495 133 495 133 476.5 94 c 128,-1,5
 458 55 458 55 426.5 34 c 128,-1,6
 395 13 395 13 360 3 c 128,-1,7
 325 -7 325 -7 285 -7 c 128,-1,8
 245 -7 245 -7 209.5 3 c 128,-1,9
 174 13 174 13 142.5 34 c 128,-1,10
 111 55 111 55 92.5 94 c 128,-1,11
 74 133 74 133 74 186 c 2,12,-1
 74 701 l 1,13,-1
 106 701 l 1,14,-1
 106 182 l 2,15,16
 106 101 106 101 159.5 62 c 128,-1,17
 213 23 213 23 285 23 c 128,-1,18
 357 23 357 23 410 62.5 c 128,-1,19
 463 102 463 102 463 182 c 2,0,-1
EndSplineSet
EndChar

StartChar: V
Encoding: 86 86 57
Width: 593
GlyphClass: 2
Flags: W
LayerCount: 2
Fore
SplineSet
338 0 m 1,0,-1
 297 0 l 1,1,-1
 78 700 l 1,2,-1
 111 700 l 1,3,-1
 317 42 l 1,4,-1
 523 700 l 1,5,-1
 556 700 l 1,6,-1
 338 0 l 1,0,-1
EndSplineSet
EndChar

StartChar: W
Encoding: 87 87 58
Width: 811
GlyphClass: 2
Flags: W
LayerCount: 2
Fore
SplineSet
599 0 m 1,0,-1
 556 0 l 1,1,-1
 427 634 l 1,2,-1
 298 0 l 1,3,-1
 255 0 l 1,4,-1
 78 700 l 1,5,-1
 113 700 l 1,6,-1
 274 48 l 1,7,-1
 407 700 l 1,8,-1
 447 700 l 1,9,-1
 579 47 l 1,10,-1
 739 700 l 1,11,-1
 774 700 l 1,12,-1
 599 0 l 1,0,-1
EndSplineSet
EndChar

StartChar: X
Encoding: 88 88 59
Width: 584
GlyphClass: 2
Flags: W
LayerCount: 2
Fore
SplineSet
547 2 m 1,0,-1
 508 0 l 1,1,-1
 294 328 l 1,2,-1
 80 0 l 1,3,-1
 40 0 l 1,4,-1
 275 360 l 1,5,-1
 59 700 l 1,6,-1
 95 700 l 1,7,-1
 294 390 l 1,8,-1
 493 700 l 1,9,-1
 531 700 l 1,10,-1
 314 360 l 1,11,-1
 547 2 l 1,0,-1
EndSplineSet
EndChar

StartChar: Y
Encoding: 89 89 60
Width: 552
GlyphClass: 2
Flags: W
LayerCount: 2
Fore
SplineSet
399 -7 m 1,0,-1
 391 18 l 1,1,2
 408 24 408 24 416 28.5 c 128,-1,3
 424 33 424 33 440 47 c 0,4,5
 471 74 471 74 471 152 c 2,6,-1
 471 325 l 1,7,8
 442 282 442 282 389.5 263.5 c 128,-1,9
 337 245 337 245 289 245 c 0,10,11
 183 245 183 245 121.5 297.5 c 128,-1,12
 60 350 60 350 60 453 c 2,13,-1
 60 700 l 1,14,-1
 92 700 l 1,15,-1
 92 453 l 2,16,17
 92 368 92 368 142.5 322.5 c 128,-1,18
 193 277 193 277 289 277 c 0,19,20
 362 277 362 277 411.5 312 c 128,-1,21
 461 347 461 347 471 403 c 1,22,-1
 471 700 l 1,23,-1
 503 700 l 1,24,-1
 503 149 l 2,25,26
 503 15 503 15 399 -7 c 1,0,-1
EndSplineSet
EndChar

StartChar: Z
Encoding: 90 90 61
Width: 550
GlyphClass: 2
Flags: W
LayerCount: 2
Fore
SplineSet
518 0 m 1,0,-1
 31 0 l 1,1,-1
 31 30 l 1,2,-1
 472 670 l 1,3,-1
 45 670 l 1,4,-1
 44 700 l 1,5,-1
 512 700 l 1,6,-1
 512 670 l 1,7,-1
 71 30 l 1,8,-1
 518 30 l 1,9,-1
 518 0 l 1,0,-1
EndSplineSet
EndChar

StartChar: bracketleft
Encoding: 91 91 62
Width: 319
GlyphClass: 2
Flags: W
LayerCount: 2
Fore
SplineSet
239 -114 m 1,0,-1
 78 -114 l 1,1,-1
 78 817 l 1,2,-1
 239 817 l 1,3,-1
 239 790 l 1,4,-1
 110 786 l 1,5,-1
 110 -82 l 1,6,-1
 239 -87 l 1,7,-1
 239 -114 l 1,0,-1
EndSplineSet
EndChar

StartChar: backslash
Encoding: 92 92 63
Width: 472
GlyphClass: 2
Flags: W
LayerCount: 2
Fore
SplineSet
435 -114 m 1,0,-1
 401 -114 l 1,1,-1
 78 817 l 1,2,-1
 111 817 l 1,3,-1
 435 -114 l 1,0,-1
EndSplineSet
EndChar

StartChar: bracketright
Encoding: 93 93 64
Width: 319
GlyphClass: 2
Flags: W
LayerCount: 2
Fore
SplineSet
239 -114 m 1,0,-1
 78 -114 l 1,1,-1
 78 -87 l 1,2,-1
 207 -82 l 1,3,-1
 207 786 l 1,4,-1
 78 790 l 1,5,-1
 78 817 l 1,6,-1
 239 817 l 1,7,-1
 239 -114 l 1,0,-1
EndSplineSet
EndChar

StartChar: asciicircum
Encoding: 94 94 65
Width: 405
GlyphClass: 2
Flags: W
LayerCount: 2
Fore
SplineSet
345 734 m 1,0,-1
 225 854 l 1,1,-1
 100 735 l 1,2,-1
 78 758 l 1,3,-1
 226 899 l 1,4,-1
 368 758 l 1,5,-1
 345 734 l 1,0,-1
EndSplineSet
EndChar

StartChar: underscore
Encoding: 95 95 66
Width: 514
GlyphClass: 2
Flags: W
LayerCount: 2
Fore
SplineSet
396 -32 m 1,0,-1
 76 -32 l 1,1,-1
 76 0 l 1,2,-1
 396 0 l 1,3,-1
 396 -32 l 1,0,-1
EndSplineSet
EndChar

StartChar: grave
Encoding: 96 96 67
Width: 222
GlyphClass: 2
Flags: W
LayerCount: 2
Fore
SplineSet
144 588 m 1,0,-1
 116 588 l 1,1,-1
 51 693 l 2,2,3
 47 699 47 699 47 704 c 0,4,5
 47 722 47 722 60 727 c 0,6,7
 65 729 65 729 70 729 c 0,8,9
 83 729 83 729 90 712 c 2,10,-1
 144 588 l 1,0,-1
EndSplineSet
EndChar

StartChar: a
Encoding: 97 97 68
Width: 458
GlyphClass: 2
Flags: W
LayerCount: 2
Fore
SplineSet
198 402 m 0,0,1
 309 402 309 402 390 346 c 1,2,3
 390 482 390 482 217 482 c 0,4,5
 215 482 215 482 212 482 c 1,6,-1
 214 509 l 1,7,8
 295 509 295 509 334 490 c 0,9,10
 355 479 355 479 371 468 c 128,-1,11
 387 457 387 457 396 439 c 128,-1,12
 405 421 405 421 411 407.5 c 128,-1,13
 417 394 417 394 419 371 c 0,14,15
 422 336 422 336 422 298 c 2,16,-1
 422 0 l 1,17,18
 318 -10 318 -10 256 -10 c 0,19,20
 37 -10 37 -10 37 169 c 2,21,-1
 37 252 l 2,22,23
 37 349 37 349 109 384 c 0,24,25
 146 402 146 402 198 402 c 0,0,1
135 42 m 128,-1,27
 164 27 164 27 201 22.5 c 128,-1,28
 238 18 238 18 275 18 c 128,-1,29
 312 18 312 18 390 28 c 1,30,-1
 390 316 l 1,31,32
 307 367 307 367 196 372 c 0,33,34
 193 373 193 373 189 373 c 0,35,36
 140 373 140 373 104.5 343 c 128,-1,37
 69 313 69 313 69 249 c 2,38,-1
 69 162 l 2,39,40
 69 118 69 118 87.5 87.5 c 128,-1,26
 106 57 106 57 135 42 c 128,-1,27
EndSplineSet
EndChar

StartChar: b
Encoding: 98 98 69
Width: 484
GlyphClass: 2
Flags: W
LayerCount: 2
Fore
SplineSet
110 476 m 1,0,1
 171 509 171 509 262 509 c 0,2,3
 321 509 321 509 362 490 c 0,4,5
 447 451 447 451 447 346 c 2,6,-1
 447 157 l 2,7,8
 447 58 447 58 369 18 c 0,9,10
 310 -12 310 -12 237 -12 c 128,-1,11
 164 -12 164 -12 78 0 c 1,12,-1
 78 700 l 1,13,-1
 110 700 l 1,14,-1
 110 476 l 1,0,1
221 18 m 0,15,16
 415 18 415 18 415 156 c 2,17,-1
 415 343 l 2,18,19
 415 393 415 393 392 425.5 c 128,-1,20
 369 458 369 458 333.5 469 c 128,-1,21
 298 480 298 480 256 480 c 0,22,23
 173 480 173 480 110 446 c 1,24,-1
 110 30 l 1,25,26
 169 18 169 18 221 18 c 0,15,16
EndSplineSet
EndChar

StartChar: c
Encoding: 99 99 70
Width: 383
GlyphClass: 2
Flags: W
LayerCount: 2
Fore
SplineSet
243 19 m 0,0,1
 294 19 294 19 351 34 c 1,2,-1
 358 6 l 1,3,4
 294 -11 294 -11 242 -11 c 128,-1,5
 190 -11 190 -11 140 5 c 0,6,7
 36 39 36 39 36 180 c 2,8,-1
 36 308 l 2,9,10
 36 379 36 379 64 427 c 0,11,12
 112 510 112 510 222 510 c 0,13,14
 288 510 288 510 356 478 c 1,15,-1
 346 451 l 1,16,17
 286 480 286 480 238 480 c 128,-1,18
 190 480 190 480 154.5 467.5 c 128,-1,19
 119 455 119 455 93.5 414.5 c 128,-1,20
 68 374 68 374 68 314 c 2,21,-1
 68 169 l 2,22,23
 68 19 68 19 243 19 c 0,0,1
EndSplineSet
EndChar

StartChar: d
Encoding: 100 100 71
Width: 468
GlyphClass: 2
Flags: W
LayerCount: 2
Fore
SplineSet
247 509 m 0,0,1
 338 509 338 509 399 476 c 1,2,-1
 399 700 l 1,3,-1
 431 700 l 1,4,-1
 431 0 l 1,5,6
 345 -12 345 -12 272 -12 c 128,-1,7
 199 -12 199 -12 140 18 c 0,8,9
 62 58 62 58 62 157 c 2,10,-1
 62 346 l 2,11,12
 62 451 62 451 147 490 c 0,13,14
 188 509 188 509 247 509 c 0,0,1
288 18 m 0,15,16
 340 18 340 18 399 30 c 1,17,-1
 399 446 l 1,18,19
 336 480 336 480 253 480 c 0,20,21
 211 480 211 480 175.5 469 c 128,-1,22
 140 458 140 458 117 425.5 c 128,-1,23
 94 393 94 393 94 343 c 2,24,-1
 94 156 l 2,25,26
 94 18 94 18 288 18 c 0,15,16
EndSplineSet
EndChar

StartChar: e
Encoding: 101 101 72
Width: 434
GlyphClass: 2
Flags: W
LayerCount: 2
Fore
SplineSet
198 15 m 0,0,1
 273 15 273 15 356 61 c 1,2,-1
 370 35 l 1,3,4
 293 -12 293 -12 209 -12 c 0,5,6
 35 -12 35 -12 35 134 c 2,7,-1
 35 339 l 2,8,9
 35 420 35 420 85.5 465 c 128,-1,10
 136 510 136 510 219 510 c 128,-1,11
 302 510 302 510 348.5 465.5 c 128,-1,12
 395 421 395 421 395 342 c 2,13,-1
 395 235 l 1,14,-1
 67 218 l 1,15,-1
 67 133 l 2,16,17
 67 71 67 71 106.5 43 c 128,-1,18
 146 15 146 15 198 15 c 0,0,1
363 265 m 1,19,-1
 363 345 l 2,20,21
 363 418 363 418 319 449.5 c 128,-1,22
 275 481 275 481 215 481 c 128,-1,23
 155 481 155 481 111 446.5 c 128,-1,24
 67 412 67 412 67 339 c 2,25,-1
 67 249 l 1,26,-1
 363 265 l 1,19,-1
EndSplineSet
EndChar

StartChar: f
Encoding: 102 102 73
Width: 298
GlyphClass: 2
Flags: W
LayerCount: 2
Fore
SplineSet
110 0 m 1,0,-1
 78 0 l 1,1,-1
 78 549 l 2,2,3
 78 599 78 599 95 635 c 128,-1,4
 112 671 112 671 138 686 c 0,5,6
 181 711 181 711 226 711 c 0,7,8
 244 711 244 711 261 707 c 1,9,-1
 256 679 l 1,10,11
 242 681 242 681 229 681 c 0,12,13
 182 681 182 681 150 655 c 0,14,15
 110 622 110 622 110 549 c 2,16,-1
 110 501 l 1,17,-1
 248 501 l 1,18,-1
 234 470 l 1,19,-1
 110 470 l 1,20,-1
 110 0 l 1,0,-1
EndSplineSet
EndChar

StartChar: g
Encoding: 103 103 74
Width: 448
GlyphClass: 2
Flags: W
LayerCount: 2
Fore
SplineSet
307 -210 m 1,0,-1
 298 -183 l 1,1,2
 339 -168 339 -168 360.5 -142.5 c 128,-1,3
 382 -117 382 -117 382 -63 c 2,4,-1
 382 70 l 1,5,6
 329 -12 329 -12 223 -12 c 0,7,8
 135 -12 135 -12 86 36 c 128,-1,9
 37 84 37 84 37 176 c 2,10,-1
 37 325 l 2,11,12
 37 413 37 413 89.5 461.5 c 128,-1,13
 142 510 142 510 229 510 c 0,14,15
 335 510 335 510 383 439 c 1,16,-1
 382 501 l 1,17,-1
 414 501 l 1,18,-1
 414 -64 l 2,19,20
 414 -124 414 -124 389 -158 c 128,-1,21
 364 -192 364 -192 307 -210 c 1,0,-1
382 165 m 2,22,-1
 382 376 l 1,23,24
 369 429 369 429 326.5 454.5 c 128,-1,25
 284 480 284 480 228 480 c 0,26,27
 174 480 174 480 126 450 c 0,28,29
 101 434 101 434 85 400.5 c 128,-1,30
 69 367 69 367 69 320 c 2,31,-1
 69 167 l 2,32,33
 69 98 69 98 109 58 c 128,-1,34
 149 18 149 18 216.5 18 c 128,-1,35
 284 18 284 18 333 55 c 128,-1,36
 382 92 382 92 382 165 c 2,22,-1
EndSplineSet
EndChar

StartChar: h
Encoding: 104 104 75
Width: 493
GlyphClass: 2
Flags: W
LayerCount: 2
Fore
SplineSet
96 475 m 1,0,1
 158 510 158 510 232.5 510 c 128,-1,2
 307 510 307 510 348 490 c 1,3,4
 433 451 433 451 433 346 c 2,5,-1
 433 0 l 1,6,-1
 401 0 l 1,7,-1
 401 346 l 2,8,9
 401 404 401 404 368 438 c 0,10,11
 326 480 326 480 245 480 c 128,-1,12
 164 480 164 480 96 444 c 1,13,-1
 96 0 l 1,14,-1
 64 0 l 1,15,-1
 64 700 l 1,16,-1
 96 700 l 1,17,-1
 96 475 l 1,0,1
EndSplineSet
EndChar

StartChar: i
Encoding: 105 105 76
Width: 199
GlyphClass: 2
Flags: W
LayerCount: 2
Fore
SplineSet
115 0 m 1,0,-1
 83 0 l 1,1,-1
 83 501 l 1,2,-1
 115 501 l 1,3,-1
 115 0 l 1,0,-1
113 675 m 128,-1,5
 107 669 107 669 98.5 669 c 128,-1,6
 90 669 90 669 84 675 c 128,-1,7
 78 681 78 681 78 689.5 c 128,-1,8
 78 698 78 698 84 704 c 128,-1,9
 90 710 90 710 98.5 710 c 128,-1,10
 107 710 107 710 113 704 c 128,-1,11
 119 698 119 698 119 689.5 c 128,-1,4
 119 681 119 681 113 675 c 128,-1,5
EndSplineSet
EndChar

StartChar: j
Encoding: 106 106 77
Width: 195
GlyphClass: 2
Flags: W
LayerCount: 2
Fore
SplineSet
80 -73 m 2,0,-1
 80 469 l 1,1,-1
 15 470 l 1,2,-1
 0 501 l 1,3,-1
 112 501 l 1,4,-1
 112 -80 l 1,5,6
 111 -130 111 -130 83.5 -166.5 c 128,-1,7
 56 -203 56 -203 0 -209 c 1,8,-1
 -4 -182 l 1,9,10
 7 -182 7 -182 23.5 -174.5 c 128,-1,11
 40 -167 40 -167 51 -156.5 c 128,-1,12
 62 -146 62 -146 71 -124 c 128,-1,13
 80 -102 80 -102 80 -73 c 2,0,-1
96 669 m 128,-1,15
 88 669 88 669 81.5 675 c 128,-1,16
 75 681 75 681 75 689.5 c 128,-1,17
 75 698 75 698 81.5 704 c 128,-1,18
 88 710 88 710 96 710 c 128,-1,19
 104 710 104 710 110 704 c 128,-1,20
 116 698 116 698 116 689.5 c 128,-1,21
 116 681 116 681 110 675 c 128,-1,14
 104 669 104 669 96 669 c 128,-1,15
EndSplineSet
EndChar

StartChar: k
Encoding: 107 107 78
Width: 437
GlyphClass: 2
Flags: W
LayerCount: 2
Fore
SplineSet
434 0 m 1,0,-1
 396 0 l 1,1,-1
 181 349 l 1,2,-1
 99 275 l 1,3,-1
 99 0 l 1,4,-1
 67 0 l 1,5,-1
 67 700 l 1,6,-1
 99 700 l 1,7,-1
 99 313 l 1,8,-1
 323 520 l 1,9,-1
 346 498 l 1,10,-1
 205 370 l 1,11,12
 304 206 304 206 434 0 c 1,0,-1
EndSplineSet
EndChar

StartChar: l
Encoding: 108 108 79
Width: 190
GlyphClass: 2
Flags: W
LayerCount: 2
Fore
SplineSet
110 0 m 1,0,-1
 78 0 l 1,1,-1
 78 700 l 1,2,-1
 110 700 l 1,3,-1
 110 0 l 1,0,-1
EndSplineSet
EndChar

StartChar: m
Encoding: 109 109 80
Width: 739
GlyphClass: 2
Flags: W
LayerCount: 2
Fore
SplineSet
249 509 m 0,0,1
 343 509 343 509 384 456 c 1,2,3
 405 468 405 468 449.5 489.5 c 128,-1,4
 494 511 494 511 540 511 c 128,-1,5
 586 511 586 511 621 494 c 0,6,7
 702 455 702 455 702 346 c 2,8,-1
 702 0 l 1,9,-1
 670 0 l 1,10,-1
 670 344 l 2,11,12
 670 394 670 394 649.5 427 c 128,-1,13
 629 460 629 460 600.5 470 c 128,-1,14
 572 480 572 480 553 480 c 128,-1,15
 534 480 534 480 509.5 477.5 c 128,-1,16
 485 475 485 475 446 457 c 1,17,-1
 398 433 l 1,18,19
 411 411 411 411 411 338 c 2,20,-1
 411 0 l 1,21,-1
 380 0 l 1,22,-1
 380 364 l 2,23,24
 380 417 380 417 350 446 c 0,25,26
 315 479 315 479 244 479 c 128,-1,27
 173 479 173 479 110 444 c 1,28,-1
 110 0 l 1,29,-1
 78 0 l 1,30,-1
 78 501 l 1,31,-1
 110 501 l 1,32,-1
 108 474 l 1,33,34
 179 509 179 509 249 509 c 0,0,1
EndSplineSet
EndChar

StartChar: n
Encoding: 110 110 81
Width: 500
GlyphClass: 2
Flags: W
LayerCount: 2
Fore
SplineSet
96 475 m 1,0,1
 158 510 158 510 232.5 510 c 128,-1,2
 307 510 307 510 348 490 c 1,3,4
 433 451 433 451 433 346 c 2,5,-1
 433 0 l 1,6,-1
 401 0 l 1,7,-1
 401 346 l 2,8,9
 401 403 401 403 368 436 c 0,10,11
 326 479 326 479 243 479 c 128,-1,12
 160 479 160 479 96 444 c 1,13,-1
 96 0 l 1,14,-1
 64 0 l 1,15,-1
 64 501 l 1,16,-1
 96 501 l 1,17,-1
 96 475 l 1,0,1
EndSplineSet
EndChar

StartChar: o
Encoding: 111 111 82
Width: 458
GlyphClass: 2
Flags: W
LayerCount: 2
Fore
SplineSet
421 316 m 2,0,-1
 421 184 l 2,1,2
 421 100 421 100 375 45 c 128,-1,3
 329 -10 329 -10 236 -10 c 128,-1,4
 143 -10 143 -10 95.5 45.5 c 128,-1,5
 48 101 48 101 48 184 c 2,6,-1
 48 316 l 2,7,8
 48 411 48 411 96.5 461.5 c 128,-1,9
 145 512 145 512 234 512 c 128,-1,10
 323 512 323 512 372 459.5 c 128,-1,11
 421 407 421 407 421 316 c 2,0,-1
389 180 m 2,12,-1
 389 319 l 2,13,14
 389 401 389 401 346 441.5 c 128,-1,15
 303 482 303 482 234.5 482 c 128,-1,16
 166 482 166 482 123 441.5 c 128,-1,17
 80 401 80 401 80 319 c 2,18,-1
 80 180 l 2,19,20
 80 112 80 112 119 65.5 c 128,-1,21
 158 19 158 19 235 19 c 128,-1,22
 312 19 312 19 350.5 64.5 c 128,-1,23
 389 110 389 110 389 180 c 2,12,-1
EndSplineSet
EndChar

StartChar: p
Encoding: 112 112 83
Width: 492
GlyphClass: 2
Flags: W
LayerCount: 2
Fore
SplineSet
110 -210 m 1,0,-1
 78 -198 l 1,1,-1
 78 501 l 1,2,-1
 110 501 l 1,3,-1
 108 443 l 1,4,5
 134 477 134 477 175.5 493 c 128,-1,6
 217 509 217 509 257 509 c 0,7,8
 355 509 355 509 405 455 c 128,-1,9
 455 401 455 401 455 314 c 2,10,-1
 455 176 l 2,11,12
 455 85 455 85 403 36.5 c 128,-1,13
 351 -12 351 -12 267 -12 c 0,14,15
 156 -12 156 -12 110 65 c 1,16,-1
 110 -210 l 1,0,-1
423 166 m 2,17,-1
 423 318 l 2,18,19
 423 364 423 364 407.5 397 c 128,-1,20
 392 430 392 430 366 447 c 0,21,22
 318 479 318 479 264.5 479 c 128,-1,23
 211 479 211 479 166.5 454 c 128,-1,24
 122 429 122 429 110 371 c 1,25,-1
 110 159 l 2,26,27
 110 91 110 91 153 54.5 c 128,-1,28
 196 18 196 18 262.5 18 c 128,-1,29
 329 18 329 18 376 54.5 c 128,-1,30
 423 91 423 91 423 166 c 2,17,-1
EndSplineSet
EndChar

StartChar: q
Encoding: 113 113 84
Width: 448
GlyphClass: 2
Flags: W
LayerCount: 2
Fore
SplineSet
414 -210 m 1,0,-1
 382 -198 l 1,1,-1
 382 65 l 1,2,3
 336 -12 336 -12 225 -12 c 0,4,5
 141 -12 141 -12 89 36.5 c 128,-1,6
 37 85 37 85 37 176 c 2,7,-1
 37 314 l 2,8,9
 37 401 37 401 87 455 c 128,-1,10
 137 509 137 509 235 509 c 0,11,12
 275 509 275 509 316.5 493 c 128,-1,13
 358 477 358 477 384 443 c 1,14,-1
 382 501 l 1,15,-1
 414 501 l 1,16,-1
 414 -210 l 1,0,-1
382 159 m 2,17,-1
 382 371 l 1,18,19
 370 429 370 429 325.5 454 c 128,-1,20
 281 479 281 479 243 479 c 128,-1,21
 205 479 205 479 178.5 471 c 128,-1,22
 152 463 152 463 126.5 446 c 128,-1,23
 101 429 101 429 85 396 c 128,-1,24
 69 363 69 363 69 318 c 2,25,-1
 69 166 l 2,26,27
 69 91 69 91 116 54.5 c 128,-1,28
 163 18 163 18 229.5 18 c 128,-1,29
 296 18 296 18 339 54.5 c 128,-1,30
 382 91 382 91 382 159 c 2,17,-1
EndSplineSet
EndChar

StartChar: r
Encoding: 114 114 85
Width: 332
GlyphClass: 2
Flags: W
LayerCount: 2
Fore
SplineSet
93 0 m 1,0,-1
 61 0 l 1,1,-1
 61 501 l 1,2,-1
 93 501 l 1,3,-1
 92 454 l 1,4,5
 147 509 147 509 236 509 c 0,6,7
 271 509 271 509 311 501 c 1,8,-1
 302 469 l 1,9,10
 265 478 265 478 241 478 c 0,11,12
 167 478 167 478 130 452.5 c 128,-1,13
 93 427 93 427 93 397 c 2,14,-1
 93 0 l 1,0,-1
EndSplineSet
EndChar

StartChar: s
Encoding: 115 115 86
Width: 431
GlyphClass: 2
Flags: W
LayerCount: 2
Fore
SplineSet
318 456 m 1,0,1
 275 483 275 483 218 483 c 128,-1,2
 161 483 161 483 121.5 456.5 c 128,-1,3
 82 430 82 430 82 383 c 0,4,5
 82 341 82 341 117.5 318.5 c 128,-1,6
 153 296 153 296 198.5 283 c 128,-1,7
 244 270 244 270 289 254 c 128,-1,8
 334 238 334 238 365 206 c 128,-1,9
 396 174 396 174 396 119.5 c 128,-1,10
 396 65 396 65 351.5 25 c 128,-1,11
 307 -15 307 -15 221.5 -15 c 128,-1,12
 136 -15 136 -15 87 26 c 128,-1,13
 38 67 38 67 36 127 c 1,14,-1
 67 127 l 1,15,16
 72 79 72 79 113 47.5 c 128,-1,17
 154 16 154 16 218 16 c 128,-1,18
 282 16 282 16 323 45 c 128,-1,19
 364 74 364 74 364 119 c 128,-1,20
 364 164 364 164 333.5 190.5 c 128,-1,21
 303 217 303 217 259 231 c 128,-1,22
 215 245 215 245 170.5 259 c 128,-1,23
 126 273 126 273 92 299 c 0,24,25
 51 330 51 330 51 378.5 c 128,-1,26
 51 427 51 427 89.5 470 c 128,-1,27
 128 513 128 513 219 513 c 0,28,29
 250 513 250 513 278 505.5 c 128,-1,30
 306 498 306 498 318 490 c 1,31,-1
 331 483 l 1,32,-1
 318 456 l 1,0,1
EndSplineSet
EndChar

StartChar: t
Encoding: 116 116 87
Width: 243
GlyphClass: 2
Flags: W
LayerCount: 2
Fore
SplineSet
159 14 m 1,0,-1
 150 -13 l 1,1,2
 94 3 94 3 69 38 c 128,-1,3
 44 73 44 73 44 132 c 2,4,-1
 44 700 l 1,5,-1
 76 700 l 1,6,-1
 76 501 l 1,7,-1
 220 501 l 1,8,-1
 206 470 l 1,9,-1
 76 470 l 1,10,-1
 76 132 l 2,11,12
 76 82 76 82 95.5 55 c 128,-1,13
 115 28 115 28 159 14 c 1,0,-1
EndSplineSet
EndChar

StartChar: u
Encoding: 117 117 88
Width: 447
GlyphClass: 2
Flags: W
LayerCount: 2
Fore
SplineSet
409 0 m 1,0,-1
 377 0 l 1,1,-1
 379 69 l 1,2,3
 328 -11 328 -11 224 -11 c 0,4,5
 36 -11 36 -11 36 175 c 2,6,-1
 36 501 l 1,7,-1
 68 501 l 1,8,-1
 68 172 l 2,9,10
 68 19 68 19 224 19 c 0,11,12
 292 19 292 19 334.5 56.5 c 128,-1,13
 377 94 377 94 377 162 c 2,14,-1
 377 501 l 1,15,-1
 409 501 l 1,16,-1
 409 0 l 1,0,-1
EndSplineSet
EndChar

StartChar: v
Encoding: 118 118 89
Width: 428
GlyphClass: 2
Flags: W
LayerCount: 2
Fore
SplineSet
228 0 m 1,0,-1
 192 0 l 1,1,-1
 18 501 l 1,2,-1
 51 501 l 1,3,-1
 210 44 l 1,4,-1
 370 501 l 1,5,-1
 403 501 l 1,6,-1
 228 0 l 1,0,-1
EndSplineSet
EndChar

StartChar: w
Encoding: 119 119 90
Width: 699
GlyphClass: 2
Flags: W
LayerCount: 2
Fore
SplineSet
496 0 m 1,0,-1
 461 0 l 1,1,-1
 338 437 l 1,2,-1
 216 0 l 1,3,-1
 181 0 l 1,4,-1
 18 501 l 1,5,-1
 52 501 l 1,6,-1
 198 44 l 1,7,-1
 325 501 l 1,8,-1
 352 501 l 1,9,-1
 479 45 l 1,10,-1
 626 501 l 1,11,-1
 660 501 l 1,12,-1
 496 0 l 1,0,-1
EndSplineSet
EndChar

StartChar: x
Encoding: 120 120 91
Width: 462
GlyphClass: 2
Flags: W
LayerCount: 2
Fore
SplineSet
404 0 m 1,0,-1
 367 0 l 1,1,-1
 233 221 l 1,2,-1
 94 0 l 1,3,-1
 57 0 l 1,4,-1
 214 250 l 1,5,-1
 61 501 l 1,6,-1
 98 501 l 1,7,-1
 233 278 l 1,8,-1
 370 501 l 1,9,-1
 406 501 l 1,10,-1
 252 250 l 1,11,-1
 404 0 l 1,0,-1
EndSplineSet
EndChar

StartChar: y
Encoding: 121 121 92
Width: 475
GlyphClass: 2
Flags: W
LayerCount: 2
Fore
SplineSet
307 -210 m 1,0,-1
 298 -183 l 1,1,2
 382 -158 382 -158 382 -63 c 2,3,-1
 382 74 l 1,4,5
 358 28 358 28 312.5 8 c 128,-1,6
 267 -12 267 -12 220 -12 c 0,7,8
 132 -12 132 -12 84.5 35.5 c 128,-1,9
 37 83 37 83 37 176 c 2,10,-1
 37 501 l 1,11,-1
 68 501 l 1,12,-1
 68 166 l 2,13,14
 68 97 68 97 106 57.5 c 128,-1,15
 144 18 144 18 218 18 c 128,-1,16
 292 18 292 18 336.5 58 c 128,-1,17
 381 98 381 98 381 166 c 2,18,-1
 381 369 l 2,19,20
 381 467 381 467 402 490 c 0,21,22
 413 502 413 502 431 510 c 1,23,-1
 441 486 l 1,24,25
 412 468 412 468 412 403 c 2,26,-1
 412 -61 l 2,27,28
 412 -122 412 -122 388 -157 c 128,-1,29
 364 -192 364 -192 307 -210 c 1,0,-1
EndSplineSet
EndChar

StartChar: z
Encoding: 122 122 93
Width: 482
GlyphClass: 2
Flags: W
LayerCount: 2
Fore
SplineSet
445 0 m 1,0,-1
 78 0 l 1,1,-1
 78 30 l 1,2,-1
 384 471 l 1,3,-1
 87 471 l 1,4,-1
 87 501 l 1,5,-1
 424 501 l 1,6,-1
 424 471 l 1,7,-1
 117 30 l 1,8,-1
 445 30 l 1,9,-1
 445 0 l 1,0,-1
EndSplineSet
EndChar

StartChar: braceleft
Encoding: 123 123 94
Width: 306
GlyphClass: 2
Flags: W
LayerCount: 2
Fore
SplineSet
269 -92 m 1,0,-1
 258 -116 l 1,1,2
 193 -78 193 -78 172.5 -34 c 128,-1,3
 152 10 152 10 152 115 c 2,4,-1
 152 247 l 2,5,6
 152 266 152 266 136 290.5 c 128,-1,7
 120 315 120 315 109.5 325 c 128,-1,8
 99 335 99 335 78 354 c 1,9,10
 102 373 102 373 126 404 c 128,-1,11
 150 435 150 435 150 462 c 2,12,-1
 150 601 l 2,13,14
 150 698 150 698 171 741.5 c 128,-1,15
 192 785 192 785 256 822 c 1,16,-1
 267 798 l 1,17,18
 245 783 245 783 237 776.5 c 128,-1,19
 229 770 229 770 212 750 c 0,20,21
 182 714 182 714 182 641 c 2,22,-1
 182 456 l 2,23,24
 182 417 182 417 119 354 c 1,25,26
 128 346 128 346 133.5 340 c 128,-1,27
 139 334 139 334 146.5 326 c 128,-1,28
 154 318 154 318 158 312.5 c 128,-1,29
 162 307 162 307 167.5 299 c 128,-1,30
 173 291 173 291 176 284 c 0,31,32
 184 265 184 265 184 253 c 2,33,-1
 184 72 l 2,34,35
 184 8 184 8 203.5 -28.5 c 128,-1,36
 223 -65 223 -65 269 -92 c 1,0,-1
EndSplineSet
EndChar

StartChar: bar
Encoding: 124 124 95
Width: 189
GlyphClass: 2
Flags: W
LayerCount: 2
Fore
SplineSet
109 -114 m 1,0,-1
 78 -114 l 1,1,-1
 78 817 l 1,2,-1
 109 817 l 1,3,-1
 109 -114 l 1,0,-1
EndSplineSet
EndChar

StartChar: braceright
Encoding: 125 125 96
Width: 306
GlyphClass: 2
Flags: W
LayerCount: 2
Fore
SplineSet
89 -116 m 1,0,-1
 78 -92 l 1,1,2
 124 -65 124 -65 143.5 -28.5 c 128,-1,3
 163 8 163 8 163 72 c 2,4,-1
 163 253 l 2,5,6
 163 275 163 275 174 291 c 128,-1,7
 185 307 185 307 189 312.5 c 128,-1,8
 193 318 193 318 200.5 326 c 128,-1,9
 208 334 208 334 211 337 c 0,10,11
 220 346 220 346 228 354 c 1,12,13
 165 417 165 417 165 456 c 2,14,-1
 165 641 l 2,15,16
 165 714 165 714 134 750 c 0,17,18
 118 770 118 770 110 776.5 c 128,-1,19
 102 783 102 783 80 798 c 1,20,-1
 91 822 l 1,21,22
 155 785 155 785 176 741.5 c 128,-1,23
 197 698 197 698 197 601 c 2,24,-1
 197 462 l 2,25,26
 197 435 197 435 221 404 c 128,-1,27
 245 373 245 373 269 354 c 1,28,29
 248 335 248 335 237.5 325 c 128,-1,30
 227 315 227 315 211 290.5 c 128,-1,31
 195 266 195 266 195 247 c 2,32,-1
 195 115 l 2,33,34
 195 10 195 10 174.5 -34 c 128,-1,35
 154 -78 154 -78 89 -116 c 1,0,-1
EndSplineSet
EndChar

StartChar: asciitilde
Encoding: 126 126 97
Width: 511
GlyphClass: 2
Flags: W
LayerCount: 2
Fore
SplineSet
379 334 m 0,0,1
 427 334 427 334 458 368 c 1,2,-1
 474 343 l 1,3,4
 434 302 434 302 374 302 c 0,5,6
 347 302 347 302 314 312 c 2,7,8
 314 312 314 312 244 334 c 0,9,10
 218 342 218 342 192 342 c 0,11,12
 133 342 133 342 95 299 c 1,13,-1
 78 323 l 1,14,15
 125 375 125 375 191 375 c 0,16,17
 222 375 222 375 316 344 c 0,18,19
 348 334 348 334 379 334 c 0,0,1
EndSplineSet
EndChar

StartChar: exclamdown
Encoding: 161 161 98
Width: 202
GlyphClass: 2
Flags: W
LayerCount: 2
Fore
SplineSet
78 25 m 2,0,-1
 88 590 l 1,1,-1
 114 590 l 1,2,-1
 122 24 l 2,3,4
 122 0 122 0 101 0 c 0,5,6
 78 0 78 0 78 25 c 2,0,-1
114.5 673.5 m 128,-1,8
 108 667 108 667 99.5 667 c 128,-1,9
 91 667 91 667 85 673.5 c 128,-1,10
 79 680 79 680 79 688.5 c 128,-1,11
 79 697 79 697 85 703.5 c 128,-1,12
 91 710 91 710 99.5 710 c 128,-1,13
 108 710 108 710 114.5 703.5 c 128,-1,14
 121 697 121 697 121 688.5 c 128,-1,7
 121 680 121 680 114.5 673.5 c 128,-1,8
EndSplineSet
EndChar

StartChar: cent
Encoding: 162 162 99
Width: 437
GlyphClass: 2
Flags: W
LayerCount: 2
Fore
SplineSet
280 -114 m 1,0,-1
 250 -114 l 1,1,-1
 250 -9 l 1,2,3
 144 2 144 2 104 64 c 0,4,5
 78 105 78 105 78 180 c 2,6,-1
 78 308 l 2,7,8
 78 403 78 403 125.5 454 c 128,-1,9
 173 505 173 505 250 509 c 1,10,-1
 250 623 l 1,11,-1
 280 623 l 1,12,-1
 280 509 l 1,13,14
 340 504 340 504 398 478 c 1,15,-1
 388 451 l 1,16,17
 335 476 335 476 280 479 c 1,18,-1
 280 18 l 1,19,20
 332 18 332 18 393 34 c 1,21,-1
 400 6 l 1,22,23
 336 -10 336 -10 280 -10 c 1,24,-1
 280 -114 l 1,0,-1
250 20 m 1,25,-1
 250 479 l 1,26,27
 188 474 188 474 149 432.5 c 128,-1,28
 110 391 110 391 110 314 c 2,29,-1
 110 169 l 1,30,31
 109 34 109 34 250 20 c 1,25,-1
EndSplineSet
EndChar

StartChar: sterling
Encoding: 163 163 100
Width: 475
GlyphClass: 2
Flags: W
LayerCount: 2
Fore
SplineSet
438 0 m 1,0,-1
 78 0 l 1,1,-1
 78 27 l 1,2,3
 128 52 128 52 160 104 c 128,-1,4
 192 156 192 156 192.5 202.5 c 128,-1,5
 193 249 193 249 171 326 c 1,6,-1
 101 326 l 1,7,-1
 101 358 l 1,8,-1
 160 358 l 1,9,10
 125 465 125 465 125 515 c 0,11,12
 125 602 125 602 179.5 655.5 c 128,-1,13
 234 709 234 709 310.5 709 c 128,-1,14
 387 709 387 709 427 684 c 1,15,-1
 416 654 l 1,16,17
 371 679 371 679 318 679 c 0,18,19
 245 679 245 679 201 631.5 c 128,-1,20
 157 584 157 584 157 513 c 0,21,22
 157 471 157 471 194 358 c 1,23,-1
 421 358 l 1,24,-1
 421 326 l 1,25,-1
 205 326 l 1,26,27
 226 262 226 262 226 210 c 128,-1,28
 226 158 226 158 199.5 108 c 128,-1,29
 173 58 173 58 134 32 c 1,30,-1
 438 32 l 1,31,-1
 438 0 l 1,0,-1
EndSplineSet
EndChar

StartChar: currency
Encoding: 164 164 101
Width: 466
GlyphClass: 2
Flags: W
LayerCount: 2
Fore
SplineSet
399 156 m 1,0,-1
 366 189 l 1,1,2
 320 148 320 148 253.5 148 c 128,-1,3
 187 148 187 148 139 189 c 1,4,-1
 108 155 l 1,5,-1
 87 176 l 1,6,-1
 118 209 l 1,7,8
 78 257 78 257 78 321.5 c 128,-1,9
 78 386 78 386 118 436 c 1,10,-1
 88 467 l 1,11,-1
 109 488 l 1,12,-1
 138 457 l 1,13,14
 188 499 188 499 255 499 c 128,-1,15
 322 499 322 499 367 457 c 1,16,-1
 397 488 l 1,17,-1
 418 466 l 1,18,-1
 388 435 l 1,19,20
 429 388 429 388 429 322.5 c 128,-1,21
 429 257 429 257 387 210 c 1,22,-1
 420 177 l 1,23,-1
 399 156 l 1,0,-1
354 222 m 128,-1,25
 396 263 396 263 396 322.5 c 128,-1,26
 396 382 396 382 354 424.5 c 128,-1,27
 312 467 312 467 252.5 467 c 128,-1,28
 193 467 193 467 151 424.5 c 128,-1,29
 109 382 109 382 109 322.5 c 128,-1,30
 109 263 109 263 151 222 c 128,-1,31
 193 181 193 181 252.5 181 c 128,-1,24
 312 181 312 181 354 222 c 128,-1,25
EndSplineSet
EndChar

StartChar: yen
Encoding: 165 165 102
Width: 559
GlyphClass: 2
Flags: W
LayerCount: 2
Fore
SplineSet
301 0 m 1,0,-1
 270 0 l 1,1,-1
 270 268 l 1,2,-1
 127 268 l 1,3,-1
 127 300 l 1,4,-1
 270 300 l 1,5,-1
 270 341 l 1,6,-1
 267 346 l 1,7,-1
 127 346 l 1,8,-1
 127 378 l 1,9,-1
 247 378 l 1,10,-1
 50 700 l 1,11,-1
 87 700 l 1,12,-1
 284 378 l 1,13,-1
 285 378 l 1,14,-1
 485 700 l 1,15,-1
 522 700 l 1,16,-1
 323 378 l 1,17,-1
 447 378 l 1,18,-1
 447 346 l 1,19,-1
 303 346 l 1,20,-1
 301 342 l 1,21,-1
 301 300 l 1,22,-1
 447 300 l 1,23,-1
 447 268 l 1,24,-1
 301 268 l 1,25,-1
 301 0 l 1,0,-1
EndSplineSet
EndChar

StartChar: section
Encoding: 167 167 103
Width: 590
GlyphClass: 2
Flags: W
LayerCount: 2
Fore
SplineSet
78 -8 m 1,0,-1
 110 -8 l 1,1,2
 115 -74 115 -74 170 -120 c 128,-1,3
 225 -166 225 -166 316 -166 c 128,-1,4
 407 -166 407 -166 463.5 -122.5 c 128,-1,5
 520 -79 520 -79 520 0 c 0,6,7
 520 84 520 84 438 130 c 0,8,9
 402 150 402 150 357.5 166.5 c 128,-1,10
 313 183 313 183 268.5 199 c 128,-1,11
 224 215 224 215 186.5 233.5 c 128,-1,12
 149 252 149 252 124 282 c 1,13,14
 98 316 98 316 98 361 c 128,-1,15
 98 406 98 406 128 445 c 1,16,17
 96 485 96 485 96 547.5 c 128,-1,18
 96 610 96 610 154 661 c 128,-1,19
 212 712 212 712 321 712 c 0,20,21
 404 712 404 712 467 682 c 1,22,-1
 456 652 l 1,23,24
 397 682 397 682 319 682 c 128,-1,25
 241 682 241 682 185 646 c 128,-1,26
 129 610 129 610 128 538 c 0,27,28
 128 486 128 486 171 449.5 c 128,-1,29
 214 413 214 413 276.5 390.5 c 128,-1,30
 339 368 339 368 401 344.5 c 128,-1,31
 463 321 463 321 507 279.5 c 128,-1,32
 551 238 551 238 551.5 187 c 128,-1,33
 552 136 552 136 528 91 c 1,34,35
 553 53 553 53 553 6 c 0,36,37
 553 -85 553 -85 493 -141 c 128,-1,38
 433 -197 433 -197 319 -197 c 128,-1,39
 205 -197 205 -197 142.5 -139.5 c 128,-1,40
 80 -82 80 -82 78 -8 c 1,0,-1
129 372 m 1,41,-1
 130 355 l 2,42,43
 133 308 133 308 178 276 c 128,-1,44
 223 244 223 244 279.5 228 c 128,-1,45
 336 212 336 212 403 183 c 128,-1,46
 470 154 470 154 505 117 c 1,47,48
 506 121 506 121 510 132 c 0,49,50
 519 154 519 154 518 186.5 c 128,-1,51
 517 219 517 219 490 249.5 c 128,-1,52
 463 280 463 280 419.5 300.5 c 128,-1,53
 376 321 376 321 330 337 c 0,54,55
 203 381 203 381 152 424 c 1,56,57
 146 418 146 418 140 406 c 128,-1,58
 134 394 134 394 134 392 c 2,59,-1
 129 372 l 1,41,-1
EndSplineSet
EndChar

StartChar: dieresis
Encoding: 168 168 104
Width: 222
GlyphClass: 2
Flags: W
LayerCount: 2
Fore
SplineSet
46.5 692.5 m 128,-1,1
 40 686 40 686 31.5 686 c 128,-1,2
 23 686 23 686 17 692.5 c 128,-1,3
 11 699 11 699 11 707.5 c 128,-1,4
 11 716 11 716 17 722.5 c 128,-1,5
 23 729 23 729 31.5 729 c 128,-1,6
 40 729 40 729 46.5 722.5 c 128,-1,7
 53 716 53 716 53 707.5 c 128,-1,0
 53 699 53 699 46.5 692.5 c 128,-1,1
205.5 693.5 m 128,-1,9
 199 687 199 687 190.5 687 c 128,-1,10
 182 687 182 687 175.5 693.5 c 128,-1,11
 169 700 169 700 169 708.5 c 128,-1,12
 169 717 169 717 175.5 723.5 c 128,-1,13
 182 730 182 730 190.5 730 c 128,-1,14
 199 730 199 730 205.5 723.5 c 128,-1,15
 212 717 212 717 212 708.5 c 128,-1,8
 212 700 212 700 205.5 693.5 c 128,-1,9
EndSplineSet
EndChar

StartChar: copyright
Encoding: 169 169 105
Width: 800
GlyphClass: 2
Flags: W
LayerCount: 2
Fore
SplineSet
665 -19 m 128,-1,1
 556 -127 556 -127 400.5 -127 c 128,-1,2
 245 -127 245 -127 135 -19 c 128,-1,3
 25 89 25 89 25 248 c 128,-1,4
 25 407 25 407 134 514 c 128,-1,5
 243 621 243 621 400.5 621 c 128,-1,6
 558 621 558 621 666 514 c 128,-1,7
 774 407 774 407 774 248 c 128,-1,0
 774 89 774 89 665 -19 c 128,-1,1
401 -95 m 0,8,9
 489 -95 489 -95 566.5 -52.5 c 128,-1,10
 644 -10 644 -10 692.5 70 c 128,-1,11
 741 150 741 150 741 249 c 0,12,13
 741 392 741 392 641.5 491 c 128,-1,14
 542 590 542 590 401 590 c 128,-1,15
 260 590 260 590 159.5 493.5 c 128,-1,16
 59 397 59 397 59 248 c 128,-1,17
 59 99 59 99 160.5 2 c 128,-1,18
 262 -95 262 -95 401 -95 c 0,8,9
564 175 m 1,19,-1
 599 175 l 1,20,21
 583 103 583 103 529 59.5 c 128,-1,22
 475 16 475 16 405 16 c 0,23,24
 306 16 306 16 248.5 81 c 128,-1,25
 191 146 191 146 191 244.5 c 128,-1,26
 191 343 191 343 248 410.5 c 128,-1,27
 305 478 305 478 403 478 c 0,28,29
 476 478 476 478 531 435 c 128,-1,30
 586 392 586 392 598 323 c 1,31,-1
 564 323 l 1,32,33
 554 370 554 370 512.5 407.5 c 128,-1,34
 471 445 471 445 404 445 c 0,35,36
 317 445 317 445 271 386.5 c 128,-1,37
 225 328 225 328 225 248 c 128,-1,38
 225 168 225 168 269.5 108.5 c 128,-1,39
 314 49 314 49 405 49 c 0,40,41
 469 49 469 49 513 87.5 c 128,-1,42
 557 126 557 126 564 175 c 1,19,-1
EndSplineSet
EndChar

StartChar: ordfeminine
Encoding: 170 170 106
Width: 384
GlyphClass: 2
Flags: W
LayerCount: 2
Fore
SplineSet
347 391 m 1,0,1
 278 380 278 380 247 380 c 128,-1,2
 216 380 216 380 185.5 383 c 128,-1,3
 155 386 155 386 132 400 c 128,-1,4
 109 414 109 414 93.5 444 c 128,-1,5
 78 474 78 474 78 519 c 0,6,7
 78 603 78 603 144 624 c 0,8,9
 160 630 160 630 178 630 c 0,10,11
 235 630 235 630 316 577 c 1,12,13
 316 633 316 633 284 657.5 c 128,-1,14
 252 682 252 682 179 684 c 1,15,-1
 181 709 l 1,16,17
 279 709 279 709 313 671.5 c 128,-1,18
 347 634 347 634 347 555 c 2,19,-1
 347 391 l 1,0,1
316 546 m 1,20,21
 240 601 240 601 183 601 c 0,22,23
 158 601 158 601 138 589 c 0,24,25
 107 569 107 569 107 513 c 0,26,27
 107 405 107 405 230 405 c 0,28,29
 267 405 267 405 316 415 c 1,30,-1
 316 546 l 1,20,21
EndSplineSet
EndChar

StartChar: guillemotleft
Encoding: 171 171 107
Width: 511
GlyphClass: 2
Flags: W
LayerCount: 2
Fore
SplineSet
229 80 m 1,0,-1
 42 267 l 1,1,-1
 42 268 l 1,2,-1
 229 455 l 1,3,-1
 251 433 l 1,4,-1
 86 268 l 1,5,-1
 250 102 l 1,6,-1
 229 80 l 1,0,-1
449 80 m 1,7,-1
 262 267 l 1,8,-1
 262 268 l 1,9,-1
 449 455 l 1,10,-1
 470 433 l 1,11,-1
 305 268 l 1,12,-1
 470 102 l 1,13,-1
 449 80 l 1,7,-1
EndSplineSet
EndChar

StartChar: uni00AD
Encoding: 173 173 108
Width: 410
GlyphClass: 2
Flags: W
LayerCount: 2
Fore
SplineSet
365 381 m 1,0,-1
 45 381 l 1,1,-1
 45 413 l 1,2,-1
 365 413 l 1,3,-1
 365 381 l 1,0,-1
EndSplineSet
EndChar

StartChar: registered
Encoding: 174 174 109
Width: 800
GlyphClass: 2
Flags: W
LayerCount: 2
Fore
SplineSet
587 39 m 1,0,-1
 549 39 l 1,1,-1
 428 229 l 1,2,-1
 296 229 l 1,3,-1
 296 39 l 1,4,-1
 264 39 l 1,5,-1
 264 476 l 1,6,-1
 432 476 l 2,7,8
 499 476 499 476 538 441 c 128,-1,9
 577 406 577 406 577 352 c 128,-1,10
 577 298 577 298 545 268 c 128,-1,11
 513 238 513 238 463 232 c 1,12,-1
 587 39 l 1,0,-1
296 260 m 1,13,-1
 425 260 l 2,14,15
 545 260 545 260 545 353 c 0,16,17
 545 403 545 403 509.5 424.5 c 128,-1,18
 474 446 474 446 427 446 c 2,19,-1
 296 446 l 1,20,-1
 296 260 l 1,13,-1
665 -19 m 128,-1,22
 556 -127 556 -127 400.5 -127 c 128,-1,23
 245 -127 245 -127 135 -19 c 128,-1,24
 25 89 25 89 25 248 c 128,-1,25
 25 407 25 407 134 514 c 128,-1,26
 243 621 243 621 400.5 621 c 128,-1,27
 558 621 558 621 666 514 c 128,-1,28
 774 407 774 407 774 248 c 128,-1,21
 774 89 774 89 665 -19 c 128,-1,22
401 -95 m 128,-1,30
 542 -95 542 -95 641.5 2.5 c 128,-1,31
 741 100 741 100 741 247 c 128,-1,32
 741 394 741 394 641.5 491.5 c 128,-1,33
 542 589 542 589 400 589 c 128,-1,34
 258 589 258 589 158 492.5 c 128,-1,35
 58 396 58 396 58 247.5 c 128,-1,36
 58 99 58 99 159 2 c 128,-1,29
 260 -95 260 -95 401 -95 c 128,-1,30
EndSplineSet
EndChar

StartChar: macron
Encoding: 175 175 110
Width: 336
GlyphClass: 2
Flags: W
LayerCount: 2
Fore
SplineSet
299 644 m 1,0,-1
 78 644 l 1,1,-1
 78 677 l 1,2,-1
 299 677 l 1,3,-1
 299 644 l 1,0,-1
EndSplineSet
EndChar

StartChar: degree
Encoding: 176 176 111
Width: 403
GlyphClass: 2
Flags: W
LayerCount: 2
Fore
SplineSet
222 421 m 128,-1,1
 162 421 162 421 120 463 c 128,-1,2
 78 505 78 505 78 565 c 128,-1,3
 78 625 78 625 120 667 c 128,-1,4
 162 709 162 709 222 709 c 128,-1,5
 282 709 282 709 324 667 c 128,-1,6
 366 625 366 625 366 565 c 128,-1,7
 366 505 366 505 324 463 c 128,-1,0
 282 421 282 421 222 421 c 128,-1,1
336 565 m 128,-1,9
 336 610 336 610 304.5 644.5 c 128,-1,10
 273 679 273 679 222 679 c 128,-1,11
 171 679 171 679 139.5 644.5 c 128,-1,12
 108 610 108 610 108 565 c 128,-1,13
 108 520 108 520 139.5 485.5 c 128,-1,14
 171 451 171 451 222 451 c 128,-1,15
 273 451 273 451 304.5 485.5 c 128,-1,8
 336 520 336 520 336 565 c 128,-1,9
EndSplineSet
EndChar

StartChar: plusminus
Encoding: 177 177 112
Width: 439
GlyphClass: 2
Flags: W
LayerCount: 2
Fore
SplineSet
398 237 m 1,0,-1
 78 237 l 1,1,-1
 78 269 l 1,2,-1
 227 269 l 1,3,-1
 227 381 l 1,4,-1
 82 381 l 1,5,-1
 82 413 l 1,6,-1
 227 413 l 1,7,-1
 227 545 l 1,8,-1
 259 545 l 1,9,-1
 259 413 l 1,10,-1
 402 413 l 1,11,-1
 402 381 l 1,12,-1
 259 381 l 1,13,-1
 259 269 l 1,14,-1
 398 269 l 1,15,-1
 398 237 l 1,0,-1
EndSplineSet
EndChar

StartChar: acute
Encoding: 180 180 113
Width: 222
GlyphClass: 2
Flags: W
LayerCount: 2
Fore
SplineSet
74 588 m 1,0,-1
 46 588 l 1,1,-1
 100 712 l 2,2,3
 107 729 107 729 120 729 c 0,4,5
 138 729 138 729 142 713 c 0,6,7
 143 710 143 710 143 705 c 128,-1,8
 143 700 143 700 139 694 c 2,9,-1
 74 588 l 1,0,-1
EndSplineSet
EndChar

StartChar: mu
Encoding: 181 181 114
Width: 477
GlyphClass: 2
Flags: W
LayerCount: 2
Fore
SplineSet
443 18 m 1,0,-1
 425 -3 l 1,1,2
 417 -3 417 -3 404.5 11 c 128,-1,3
 392 25 392 25 389 48 c 1,4,5
 346 -11 346 -11 246 -11 c 0,6,7
 166 -11 166 -11 102 31 c 1,8,-1
 88 41 l 2,9,10
 83 44 83 44 69 56 c 1,11,-1
 69 -205 l 1,12,-1
 37 -201 l 1,13,-1
 37 501 l 1,14,-1
 69 501 l 1,15,-1
 69 96 l 1,16,17
 93 65 93 65 144 42 c 0,18,19
 197 18 197 18 249 18 c 128,-1,20
 301 18 301 18 343 45 c 128,-1,21
 385 72 385 72 385 142 c 2,22,-1
 385 503 l 1,23,-1
 417 510 l 1,24,-1
 417 65 l 1,25,26
 418 27 418 27 443 18 c 1,0,-1
EndSplineSet
EndChar

StartChar: paragraph
Encoding: 182 182 115
Width: 673
GlyphClass: 2
Flags: W
LayerCount: 2
Fore
SplineSet
636 -199 m 1,0,-1
 605 -199 l 1,1,-1
 605 718 l 1,2,-1
 512 718 l 1,3,-1
 512 -198 l 1,4,-1
 481 -198 l 1,5,-1
 481 246 l 1,6,-1
 255 246 l 2,7,8
 188 246 188 246 153 272 c 0,9,10
 135 286 135 286 121.5 300.5 c 128,-1,11
 108 315 108 315 100.5 339 c 128,-1,12
 93 363 93 363 88 381 c 128,-1,13
 83 399 83 399 81 429 c 0,14,15
 78 474 78 474 78 524 c 0,16,17
 78 624 78 624 124 687 c 128,-1,18
 170 750 170 750 264 750 c 2,19,-1
 636 750 l 1,20,-1
 636 -199 l 1,0,-1
EndSplineSet
EndChar

StartChar: cedilla
Encoding: 184 184 116
Width: 410
GlyphClass: 2
Flags: W
LayerCount: 2
Fore
SplineSet
159 -55 m 1,0,1
 176 -47 176 -47 207.5 -47 c 128,-1,2
 239 -47 239 -47 265.5 -64 c 128,-1,3
 292 -81 292 -81 292 -125 c 128,-1,4
 292 -169 292 -169 255 -189.5 c 128,-1,5
 218 -210 218 -210 173 -210 c 128,-1,6
 128 -210 128 -210 76 -191 c 1,7,-1
 91 -159 l 1,8,9
 128 -183 128 -183 168 -183 c 128,-1,10
 208 -183 208 -183 234.5 -167.5 c 128,-1,11
 261 -152 261 -152 261 -120.5 c 128,-1,12
 261 -89 261 -89 232 -76 c 1,13,14
 218 -71 218 -71 200.5 -71 c 128,-1,15
 183 -71 183 -71 160 -80 c 2,16,-1
 122 -94 l 1,17,-1
 112 -78 l 1,18,-1
 173 0 l 1,19,-1
 201 0 l 1,20,-1
 159 -55 l 1,0,1
EndSplineSet
EndChar

StartChar: guillemotright
Encoding: 187 187 117
Width: 517
GlyphClass: 2
Flags: W
LayerCount: 2
Fore
SplineSet
442 267 m 1,0,-1
 255 80 l 1,1,-1
 234 102 l 1,2,-1
 398 268 l 1,3,-1
 233 433 l 1,4,-1
 255 455 l 1,5,-1
 442 268 l 1,6,-1
 442 267 l 1,0,-1
222 267 m 1,7,-1
 35 80 l 1,8,-1
 14 102 l 1,9,-1
 179 268 l 1,10,-1
 14 433 l 1,11,-1
 35 455 l 1,12,-1
 222 268 l 1,13,-1
 222 267 l 1,7,-1
EndSplineSet
EndChar

StartChar: questiondown
Encoding: 191 191 118
Width: 470
GlyphClass: 2
Flags: W
LayerCount: 2
Fore
SplineSet
401 177 m 1,0,-1
 433 177 l 1,1,2
 433 102 433 102 386.5 51 c 128,-1,3
 340 0 340 0 255 0 c 0,4,5
 203 0 203 0 161 26 c 0,6,7
 79 78 79 78 79 172 c 0,8,9
 79 234 79 234 116 288 c 0,10,11
 135 315 135 315 164 344.5 c 128,-1,12
 193 374 193 374 209.5 392 c 128,-1,13
 226 410 226 410 239.5 445.5 c 128,-1,14
 253 481 253 481 253 530 c 2,15,-1
 253 590 l 1,16,-1
 283 590 l 1,17,-1
 283 515 l 2,18,19
 283 469 283 469 267.5 431.5 c 128,-1,20
 252 394 252 394 233 373.5 c 128,-1,21
 214 353 214 353 186.5 324.5 c 128,-1,22
 159 296 159 296 145 276 c 0,23,24
 112 228 112 228 112 173 c 0,25,26
 112 96 112 96 175 54 c 0,27,28
 210 31 210 31 264 31 c 128,-1,29
 318 31 318 31 359.5 69.5 c 128,-1,30
 401 108 401 108 401 177 c 1,0,-1
282.5 672.5 m 128,-1,32
 276 666 276 666 267.5 666 c 128,-1,33
 259 666 259 666 252.5 672.5 c 128,-1,34
 246 679 246 679 246 687.5 c 128,-1,35
 246 696 246 696 252.5 702.5 c 128,-1,36
 259 709 259 709 267.5 709 c 128,-1,37
 276 709 276 709 282.5 702.5 c 128,-1,38
 289 696 289 696 289 687.5 c 128,-1,31
 289 679 289 679 282.5 672.5 c 128,-1,32
EndSplineSet
EndChar

StartChar: Agrave
Encoding: 192 192 119
Width: 527
GlyphClass: 2
Flags: W
LayerCount: 2
Fore
SplineSet
517 0 m 1,0,-1
 482 0 l 1,1,-1
 391 268 l 1,2,-1
 137 268 l 1,3,-1
 45 0 l 1,4,-1
 12 0 l 1,5,-1
 250 700 l 1,6,-1
 277 700 l 1,7,-1
 517 0 l 1,0,-1
381 300 m 1,8,-1
 263 644 l 1,9,-1
 147 300 l 1,10,-1
 381 300 l 1,8,-1
276 731 m 1,11,-1
 248 731 l 1,12,-1
 183 836 l 2,13,14
 179 842 179 842 179 847 c 0,15,16
 179 865 179 865 192 870 c 0,17,18
 197 872 197 872 202 872 c 0,19,20
 215 872 215 872 222 855 c 2,21,-1
 276 731 l 1,11,-1
EndSplineSet
EndChar

StartChar: Aacute
Encoding: 193 193 120
Width: 527
GlyphClass: 2
Flags: W
LayerCount: 2
Fore
SplineSet
517 0 m 1,0,-1
 482 0 l 1,1,-1
 391 268 l 1,2,-1
 137 268 l 1,3,-1
 45 0 l 1,4,-1
 12 0 l 1,5,-1
 250 700 l 1,6,-1
 277 700 l 1,7,-1
 517 0 l 1,0,-1
381 300 m 1,8,-1
 263 644 l 1,9,-1
 147 300 l 1,10,-1
 381 300 l 1,8,-1
270 731 m 1,11,-1
 242 731 l 1,12,-1
 296 855 l 2,13,14
 303 872 303 872 316 872 c 0,15,16
 334 872 334 872 338 856 c 0,17,18
 339 853 339 853 339 848 c 128,-1,19
 339 843 339 843 335 837 c 2,20,-1
 270 731 l 1,11,-1
EndSplineSet
EndChar

StartChar: Acircumflex
Encoding: 194 194 121
Width: 527
GlyphClass: 2
Flags: W
LayerCount: 2
Fore
SplineSet
517 0 m 1,0,-1
 482 0 l 1,1,-1
 391 268 l 1,2,-1
 137 268 l 1,3,-1
 45 0 l 1,4,-1
 12 0 l 1,5,-1
 250 700 l 1,6,-1
 277 700 l 1,7,-1
 517 0 l 1,0,-1
381 300 m 1,8,-1
 263 644 l 1,9,-1
 147 300 l 1,10,-1
 381 300 l 1,8,-1
384 748 m 1,11,-1
 265 867 l 1,12,-1
 142 748 l 1,13,-1
 118 772 l 1,14,-1
 266 913 l 1,15,-1
 408 772 l 1,16,-1
 384 748 l 1,11,-1
EndSplineSet
EndChar

StartChar: Atilde
Encoding: 195 195 122
Width: 527
GlyphClass: 2
Flags: W
LayerCount: 2
Fore
SplineSet
517 0 m 1,0,-1
 482 0 l 1,1,-1
 391 268 l 1,2,-1
 137 268 l 1,3,-1
 45 0 l 1,4,-1
 12 0 l 1,5,-1
 250 700 l 1,6,-1
 277 700 l 1,7,-1
 517 0 l 1,0,-1
381 300 m 1,8,-1
 263 644 l 1,9,-1
 147 300 l 1,10,-1
 381 300 l 1,8,-1
195 825 m 0,11,12
 221 825 221 825 286 795 c 0,13,14
 312 783 312 783 344 783 c 128,-1,15
 376 783 376 783 406 815 c 1,16,-1
 422 791 l 1,17,18
 381 750 381 750 338 750 c 0,19,20
 316 750 316 750 289.5 760.5 c 128,-1,21
 263 771 263 771 242 780 c 0,22,23
 214 793 214 793 192 793 c 0,24,25
 150 793 150 793 112 751 c 1,26,-1
 96 775 l 1,27,28
 141 825 141 825 195 825 c 0,11,12
EndSplineSet
EndChar

StartChar: Adieresis
Encoding: 196 196 123
Width: 527
GlyphClass: 2
Flags: W
LayerCount: 2
Fore
SplineSet
517 0 m 1,0,-1
 482 0 l 1,1,-1
 391 268 l 1,2,-1
 137 268 l 1,3,-1
 45 0 l 1,4,-1
 12 0 l 1,5,-1
 250 700 l 1,6,-1
 277 700 l 1,7,-1
 517 0 l 1,0,-1
381 300 m 1,8,-1
 263 644 l 1,9,-1
 147 300 l 1,10,-1
 381 300 l 1,8,-1
EndSplineSet
EndChar

StartChar: Aring
Encoding: 197 197 124
Width: 527
GlyphClass: 2
Flags: W
LayerCount: 2
Fore
SplineSet
517 0 m 1,0,-1
 482 0 l 1,1,-1
 391 268 l 1,2,-1
 137 268 l 1,3,-1
 45 0 l 1,4,-1
 12 0 l 1,5,-1
 241 673 l 1,6,7
 204 681 204 681 179 710.5 c 128,-1,8
 154 740 154 740 154 781.5 c 128,-1,9
 154 823 154 823 186 854.5 c 128,-1,10
 218 886 218 886 262 886 c 128,-1,11
 306 886 306 886 338 854.5 c 128,-1,12
 370 823 370 823 370 782 c 128,-1,13
 370 741 370 741 346 711 c 128,-1,14
 322 681 322 681 286 673 c 1,15,-1
 517 0 l 1,0,-1
381 300 m 1,16,-1
 263 644 l 1,17,-1
 147 300 l 1,18,-1
 381 300 l 1,16,-1
277 700 m 1,19,-1
 277 699 l 1,20,21
 304 705 304 705 322.5 727.5 c 128,-1,22
 341 750 341 750 341 780.5 c 128,-1,23
 341 811 341 811 318 834.5 c 128,-1,24
 295 858 295 858 262 858 c 128,-1,25
 229 858 229 858 205.5 834.5 c 128,-1,26
 182 811 182 811 182 780 c 128,-1,27
 182 749 182 749 201 726.5 c 128,-1,28
 220 704 220 704 249 699 c 1,29,-1
 250 700 l 1,30,-1
 277 700 l 1,19,-1
EndSplineSet
EndChar

StartChar: AE
Encoding: 198 198 125
Width: 816
GlyphClass: 2
Flags: W
LayerCount: 2
Fore
SplineSet
777 0 m 1,0,-1
 444 0 l 1,1,-1
 445 268 l 1,2,-1
 253 268 l 1,3,-1
 113 0 l 1,4,-1
 78 0 l 1,5,-1
 444 700 l 1,6,-1
 779 700 l 1,7,-1
 779 669 l 1,8,-1
 477 669 l 1,9,-1
 477 413 l 1,10,-1
 692 413 l 1,11,-1
 681 381 l 1,12,-1
 477 381 l 1,13,-1
 477 30 l 1,14,-1
 777 30 l 1,15,-1
 777 0 l 1,0,-1
445 300 m 1,16,-1
 445 638 l 1,17,-1
 269 300 l 1,18,-1
 445 300 l 1,16,-1
EndSplineSet
EndChar

StartChar: Ccedilla
Encoding: 199 199 126
Width: 432
GlyphClass: 2
Flags: W
LayerCount: 2
Fore
SplineSet
218 -55 m 1,0,1
 235 -47 235 -47 266.5 -47 c 128,-1,2
 298 -47 298 -47 324.5 -64 c 128,-1,3
 351 -81 351 -81 351 -125 c 128,-1,4
 351 -169 351 -169 314 -189.5 c 128,-1,5
 277 -210 277 -210 232 -210 c 128,-1,6
 187 -210 187 -210 135 -191 c 1,7,-1
 150 -159 l 1,8,9
 187 -183 187 -183 227 -183 c 128,-1,10
 267 -183 267 -183 293.5 -167.5 c 128,-1,11
 320 -152 320 -152 320 -120.5 c 128,-1,12
 320 -89 320 -89 290 -76 c 0,13,14
 277 -71 277 -71 259.5 -71 c 128,-1,15
 242 -71 242 -71 219 -80 c 2,16,-1
 181 -94 l 1,17,-1
 171 -78 l 1,18,-1
 225 -8 l 1,19,20
 153 0 153 0 109.5 46 c 128,-1,21
 66 92 66 92 66 183 c 2,22,-1
 66 504 l 2,23,24
 66 580 66 580 87.5 619 c 128,-1,25
 109 658 109 658 153 685 c 1,26,27
 198 710 198 710 261 710 c 0,28,29
 340 710 340 710 402 677 c 1,30,-1
 391 653 l 1,31,32
 325 680 325 680 268 680 c 0,33,34
 187 680 187 680 141 637 c 0,35,36
 123 620 123 620 110.5 588 c 128,-1,37
 98 556 98 556 98 513 c 2,38,-1
 98 185 l 2,39,40
 98 67 98 67 187 32 c 0,41,42
 222 18 222 18 277 18 c 128,-1,43
 332 18 332 18 419 51 c 1,44,-1
 427 23 l 1,45,46
 341 -10 341 -10 265 -10 c 0,47,48
 258 -10 258 -10 252 -10 c 1,49,-1
 218 -55 l 1,0,1
EndSplineSet
EndChar

StartChar: Egrave
Encoding: 200 200 127
Width: 465
GlyphClass: 2
Flags: W
LayerCount: 2
Fore
SplineSet
410 0 m 1,0,-1
 78 0 l 1,1,-1
 78 700 l 1,2,-1
 412 700 l 1,3,-1
 412 669 l 1,4,-1
 110 669 l 1,5,-1
 110 413 l 1,6,-1
 325 413 l 1,7,-1
 314 381 l 1,8,-1
 110 381 l 1,9,-1
 110 30 l 1,10,-1
 410 30 l 1,11,-1
 410 0 l 1,0,-1
270 730 m 1,12,-1
 242 730 l 1,13,-1
 177 835 l 2,14,15
 173 841 173 841 173 846 c 0,16,17
 173 864 173 864 186 869 c 0,18,19
 191 871 191 871 196 871 c 0,20,21
 209 871 209 871 216 854 c 2,22,-1
 270 730 l 1,12,-1
EndSplineSet
EndChar

StartChar: Eacute
Encoding: 201 201 128
Width: 465
GlyphClass: 2
Flags: W
LayerCount: 2
Fore
SplineSet
410 0 m 1,0,-1
 78 0 l 1,1,-1
 78 700 l 1,2,-1
 412 700 l 1,3,-1
 412 669 l 1,4,-1
 110 669 l 1,5,-1
 110 413 l 1,6,-1
 325 413 l 1,7,-1
 314 381 l 1,8,-1
 110 381 l 1,9,-1
 110 30 l 1,10,-1
 410 30 l 1,11,-1
 410 0 l 1,0,-1
265 730 m 1,12,-1
 237 730 l 1,13,-1
 291 854 l 2,14,15
 298 871 298 871 311 871 c 0,16,17
 329 871 329 871 334 855 c 0,18,19
 334 852 334 852 334 847 c 128,-1,20
 334 842 334 842 330 836 c 2,21,-1
 265 730 l 1,12,-1
EndSplineSet
EndChar

StartChar: Ecircumflex
Encoding: 202 202 129
Width: 465
GlyphClass: 2
Flags: W
LayerCount: 2
Fore
SplineSet
410 0 m 1,0,-1
 78 0 l 1,1,-1
 78 700 l 1,2,-1
 412 700 l 1,3,-1
 412 669 l 1,4,-1
 110 669 l 1,5,-1
 110 413 l 1,6,-1
 325 413 l 1,7,-1
 314 381 l 1,8,-1
 110 381 l 1,9,-1
 110 30 l 1,10,-1
 410 30 l 1,11,-1
 410 0 l 1,0,-1
360 748 m 1,12,-1
 241 867 l 1,13,-1
 118 748 l 1,14,-1
 94 772 l 1,15,-1
 242 913 l 1,16,-1
 384 772 l 1,17,-1
 360 748 l 1,12,-1
EndSplineSet
EndChar

StartChar: Edieresis
Encoding: 203 203 130
Width: 465
GlyphClass: 2
Flags: W
LayerCount: 2
Fore
SplineSet
410 0 m 1,0,-1
 78 0 l 1,1,-1
 78 700 l 1,2,-1
 412 700 l 1,3,-1
 412 669 l 1,4,-1
 110 669 l 1,5,-1
 110 413 l 1,6,-1
 325 413 l 1,7,-1
 314 381 l 1,8,-1
 110 381 l 1,9,-1
 110 30 l 1,10,-1
 410 30 l 1,11,-1
 410 0 l 1,0,-1
EndSplineSet
EndChar

StartChar: Igrave
Encoding: 204 204 131
Width: 271
GlyphClass: 2
Flags: W
LayerCount: 2
Fore
SplineSet
192 0 m 1,0,-1
 160 0 l 1,1,-1
 160 668 l 1,2,-1
 80 670 l 1,3,-1
 80 700 l 1,4,-1
 192 700 l 1,5,-1
 192 0 l 1,0,-1
187 730 m 1,6,-1
 159 730 l 1,7,-1
 94 835 l 2,8,9
 90 841 90 841 90 846 c 0,10,11
 90 864 90 864 103 869 c 0,12,13
 108 871 108 871 113 871 c 0,14,15
 126 871 126 871 133 854 c 2,16,-1
 187 730 l 1,6,-1
EndSplineSet
EndChar

StartChar: Iacute
Encoding: 205 205 132
Width: 338
GlyphClass: 2
Flags: W
LayerCount: 2
Fore
SplineSet
190 0 m 1,0,-1
 158 0 l 1,1,-1
 158 668 l 1,2,-1
 78 670 l 1,3,-1
 78 700 l 1,4,-1
 190 700 l 1,5,-1
 190 0 l 1,0,-1
188 730 m 1,6,-1
 160 730 l 1,7,-1
 214 854 l 2,8,9
 221 871 221 871 234 871 c 0,10,11
 252 871 252 871 256 855 c 0,12,13
 257 852 257 852 257 847 c 128,-1,14
 257 842 257 842 253 836 c 2,15,-1
 188 730 l 1,6,-1
EndSplineSet
EndChar

StartChar: Icircumflex
Encoding: 206 206 133
Width: 448
GlyphClass: 2
Flags: W
LayerCount: 2
Fore
SplineSet
252 0 m 1,0,-1
 220 0 l 1,1,-1
 220 668 l 1,2,-1
 140 670 l 1,3,-1
 140 700 l 1,4,-1
 252 700 l 1,5,-1
 252 0 l 1,0,-1
344 748 m 1,6,-1
 225 867 l 1,7,-1
 102 748 l 1,8,-1
 78 772 l 1,9,-1
 226 913 l 1,10,-1
 368 772 l 1,11,-1
 344 748 l 1,6,-1
EndSplineSet
EndChar

StartChar: Idieresis
Encoding: 207 207 134
Width: 269
GlyphClass: 2
Flags: W
LayerCount: 2
Fore
SplineSet
190 0 m 1,0,-1
 158 0 l 1,1,-1
 158 668 l 1,2,-1
 78 670 l 1,3,-1
 78 700 l 1,4,-1
 190 700 l 1,5,-1
 190 0 l 1,0,-1
EndSplineSet
EndChar

StartChar: Eth
Encoding: 208 208 135
Width: 642
GlyphClass: 2
Flags: W
LayerCount: 2
Fore
SplineSet
335 0 m 2,0,-1
 127 0 l 1,1,-1
 127 506 l 1,2,-1
 78 506 l 1,3,-1
 78 538 l 1,4,-1
 127 538 l 1,5,-1
 127 701 l 1,6,-1
 315 701 l 2,7,8
 408 701 408 701 465.5 657 c 128,-1,9
 523 613 523 613 540 538 c 1,10,-1
 605 538 l 1,11,-1
 605 506 l 1,12,-1
 545 506 l 1,13,14
 547 484 547 484 547 474 c 2,15,-1
 547 200 l 2,16,17
 547 0 547 0 335 0 c 2,0,-1
515 206 m 2,18,-1
 515 474 l 2,19,20
 515 486 515 486 513 506 c 1,21,-1
 159 506 l 1,22,-1
 159 30 l 1,23,-1
 323 30 l 2,24,25
 351 30 351 30 372 32 c 128,-1,26
 393 34 393 34 422 44.5 c 128,-1,27
 451 55 451 55 469.5 72.5 c 128,-1,28
 488 90 488 90 501.5 124.5 c 128,-1,29
 515 159 515 159 515 206 c 2,18,-1
325 669 m 2,30,-1
 159 669 l 1,31,-1
 159 538 l 1,32,-1
 507 538 l 1,33,34
 490 604 490 604 439.5 636.5 c 128,-1,35
 389 669 389 669 325 669 c 2,30,-1
EndSplineSet
EndChar

StartChar: Ntilde
Encoding: 209 209 136
Width: 650
GlyphClass: 2
Flags: W
LayerCount: 2
Fore
SplineSet
570 0 m 1,0,-1
 539 0 l 1,1,-1
 109 644 l 1,2,-1
 109 0 l 1,3,-1
 78 0 l 1,4,-1
 78 700 l 1,5,-1
 109 700 l 1,6,-1
 539 57 l 1,7,-1
 539 700 l 1,8,-1
 570 700 l 1,9,-1
 570 0 l 1,0,-1
257 825 m 0,10,11
 283 825 283 825 348 795 c 0,12,13
 374 783 374 783 406 783 c 128,-1,14
 438 783 438 783 468 815 c 1,15,-1
 484 791 l 1,16,17
 443 750 443 750 400 750 c 0,18,19
 378 750 378 750 351.5 760.5 c 128,-1,20
 325 771 325 771 304 780 c 0,21,22
 276 793 276 793 254 793 c 0,23,24
 212 793 212 793 174 751 c 1,25,-1
 158 775 l 1,26,27
 203 825 203 825 257 825 c 0,10,11
EndSplineSet
EndChar

StartChar: Ograve
Encoding: 210 210 137
Width: 549
GlyphClass: 2
Flags: W
LayerCount: 2
Fore
SplineSet
483 506 m 2,0,-1
 483 185 l 2,1,2
 483 84 483 84 421.5 36.5 c 128,-1,3
 360 -11 360 -11 274 -11 c 128,-1,4
 188 -11 188 -11 125.5 36.5 c 128,-1,5
 63 84 63 84 63 185 c 2,6,-1
 63 507 l 2,7,8
 63 610 63 610 119.5 663 c 128,-1,9
 176 716 176 716 275 716 c 128,-1,10
 374 716 374 716 428.5 660 c 128,-1,11
 483 604 483 604 483 506 c 2,0,-1
451 185 m 2,12,-1
 451 512 l 2,13,14
 451 593 451 593 405 638.5 c 128,-1,15
 359 684 359 684 273 684 c 128,-1,16
 187 684 187 684 141 638.5 c 128,-1,17
 95 593 95 593 95 511 c 2,18,-1
 95 185 l 2,19,20
 95 103 95 103 146.5 61.5 c 128,-1,21
 198 20 198 20 274 20 c 128,-1,22
 350 20 350 20 400.5 59.5 c 128,-1,23
 451 99 451 99 451 185 c 2,12,-1
292 730 m 1,24,-1
 264 730 l 1,25,-1
 199 835 l 2,26,27
 195 841 195 841 195 846 c 0,28,29
 195 864 195 864 208 869 c 0,30,31
 213 871 213 871 218 871 c 0,32,33
 231 871 231 871 238 854 c 2,34,-1
 292 730 l 1,24,-1
EndSplineSet
EndChar

StartChar: Oacute
Encoding: 211 211 138
Width: 549
GlyphClass: 2
Flags: W
LayerCount: 2
Fore
SplineSet
483 506 m 2,0,-1
 483 185 l 2,1,2
 483 84 483 84 421.5 36.5 c 128,-1,3
 360 -11 360 -11 274 -11 c 128,-1,4
 188 -11 188 -11 125.5 36.5 c 128,-1,5
 63 84 63 84 63 185 c 2,6,-1
 63 507 l 2,7,8
 63 610 63 610 119.5 663 c 128,-1,9
 176 716 176 716 275 716 c 128,-1,10
 374 716 374 716 428.5 660 c 128,-1,11
 483 604 483 604 483 506 c 2,0,-1
451 185 m 2,12,-1
 451 512 l 2,13,14
 451 593 451 593 405 638.5 c 128,-1,15
 359 684 359 684 273 684 c 128,-1,16
 187 684 187 684 141 638.5 c 128,-1,17
 95 593 95 593 95 511 c 2,18,-1
 95 185 l 2,19,20
 95 103 95 103 146.5 61.5 c 128,-1,21
 198 20 198 20 274 20 c 128,-1,22
 350 20 350 20 400.5 59.5 c 128,-1,23
 451 99 451 99 451 185 c 2,12,-1
285 730 m 1,24,-1
 257 730 l 1,25,-1
 311 854 l 2,26,27
 318 871 318 871 331 871 c 0,28,29
 349 871 349 871 354 855 c 0,30,31
 354 852 354 852 354 847 c 128,-1,32
 354 842 354 842 350 836 c 2,33,-1
 285 730 l 1,24,-1
EndSplineSet
EndChar

StartChar: Ocircumflex
Encoding: 212 212 139
Width: 549
GlyphClass: 2
Flags: W
LayerCount: 2
Fore
SplineSet
483 506 m 2,0,-1
 483 185 l 2,1,2
 483 84 483 84 421.5 36.5 c 128,-1,3
 360 -11 360 -11 274 -11 c 128,-1,4
 188 -11 188 -11 125.5 36.5 c 128,-1,5
 63 84 63 84 63 185 c 2,6,-1
 63 507 l 2,7,8
 63 610 63 610 119.5 663 c 128,-1,9
 176 716 176 716 275 716 c 128,-1,10
 374 716 374 716 428.5 660 c 128,-1,11
 483 604 483 604 483 506 c 2,0,-1
451 185 m 2,12,-1
 451 512 l 2,13,14
 451 593 451 593 405 638.5 c 128,-1,15
 359 684 359 684 273 684 c 128,-1,16
 187 684 187 684 141 638.5 c 128,-1,17
 95 593 95 593 95 511 c 2,18,-1
 95 185 l 2,19,20
 95 103 95 103 146.5 61.5 c 128,-1,21
 198 20 198 20 274 20 c 128,-1,22
 350 20 350 20 400.5 59.5 c 128,-1,23
 451 99 451 99 451 185 c 2,12,-1
392 748 m 1,24,-1
 273 867 l 1,25,-1
 150 748 l 1,26,-1
 126 772 l 1,27,-1
 274 913 l 1,28,-1
 416 772 l 1,29,-1
 392 748 l 1,24,-1
EndSplineSet
EndChar

StartChar: Otilde
Encoding: 213 213 140
Width: 549
GlyphClass: 2
Flags: W
LayerCount: 2
Fore
SplineSet
483 506 m 2,0,-1
 483 185 l 2,1,2
 483 84 483 84 421.5 36.5 c 128,-1,3
 360 -11 360 -11 274 -11 c 128,-1,4
 188 -11 188 -11 125.5 36.5 c 128,-1,5
 63 84 63 84 63 185 c 2,6,-1
 63 507 l 2,7,8
 63 610 63 610 119.5 663 c 128,-1,9
 176 716 176 716 275 716 c 128,-1,10
 374 716 374 716 428.5 660 c 128,-1,11
 483 604 483 604 483 506 c 2,0,-1
451 185 m 2,12,-1
 451 512 l 2,13,14
 451 593 451 593 405 638.5 c 128,-1,15
 359 684 359 684 273 684 c 128,-1,16
 187 684 187 684 141 638.5 c 128,-1,17
 95 593 95 593 95 511 c 2,18,-1
 95 185 l 2,19,20
 95 103 95 103 146.5 61.5 c 128,-1,21
 198 20 198 20 274 20 c 128,-1,22
 350 20 350 20 400.5 59.5 c 128,-1,23
 451 99 451 99 451 185 c 2,12,-1
210 825 m 0,24,25
 236 825 236 825 301 795 c 0,26,27
 327 783 327 783 359 783 c 128,-1,28
 391 783 391 783 421 815 c 1,29,-1
 437 791 l 1,30,31
 396 750 396 750 353 750 c 0,32,33
 331 750 331 750 304.5 760.5 c 128,-1,34
 278 771 278 771 258 780 c 0,35,36
 229 793 229 793 207 793 c 0,37,38
 165 793 165 793 127 751 c 1,39,-1
 111 775 l 1,40,41
 156 825 156 825 210 825 c 0,24,25
EndSplineSet
EndChar

StartChar: Odieresis
Encoding: 214 214 141
Width: 549
GlyphClass: 2
Flags: W
LayerCount: 2
Fore
SplineSet
483 506 m 2,0,-1
 483 185 l 2,1,2
 483 84 483 84 421.5 36.5 c 128,-1,3
 360 -11 360 -11 274 -11 c 128,-1,4
 188 -11 188 -11 125.5 36.5 c 128,-1,5
 63 84 63 84 63 185 c 2,6,-1
 63 507 l 2,7,8
 63 610 63 610 119.5 663 c 128,-1,9
 176 716 176 716 275 716 c 128,-1,10
 374 716 374 716 428.5 660 c 128,-1,11
 483 604 483 604 483 506 c 2,0,-1
451 185 m 2,12,-1
 451 512 l 2,13,14
 451 593 451 593 405 638.5 c 128,-1,15
 359 684 359 684 273 684 c 128,-1,16
 187 684 187 684 141 638.5 c 128,-1,17
 95 593 95 593 95 511 c 2,18,-1
 95 185 l 2,19,20
 95 103 95 103 146.5 61.5 c 128,-1,21
 198 20 198 20 274 20 c 128,-1,22
 350 20 350 20 400.5 59.5 c 128,-1,23
 451 99 451 99 451 185 c 2,12,-1
EndSplineSet
EndChar

StartChar: multiply
Encoding: 215 215 142
Width: 383
GlyphClass: 2
Flags: W
LayerCount: 2
Fore
SplineSet
345 197 m 1,0,-1
 320 176 l 1,1,-1
 212 306 l 1,2,-1
 103 175 l 1,3,-1
 79 196 l 1,4,-1
 192 330 l 1,5,-1
 78 469 l 1,6,-1
 101 489 l 1,7,-1
 213 355 l 1,8,-1
 323 489 l 1,9,-1
 346 468 l 1,10,-1
 233 332 l 1,11,-1
 345 197 l 1,0,-1
EndSplineSet
EndChar

StartChar: Oslash
Encoding: 216 216 143
Width: 535
GlyphClass: 2
Flags: W
LayerCount: 2
Fore
SplineSet
134 -114 m 1,0,-1
 100 -114 l 1,1,-1
 150 29 l 1,2,3
 78 82 78 82 78 185 c 2,4,-1
 78 507 l 2,5,6
 78 610 78 610 134.5 663 c 128,-1,7
 191 716 191 716 290 716 c 0,8,9
 340 716 340 716 383 700 c 1,10,-1
 424 817 l 1,11,-1
 457 817 l 1,12,-1
 411 685 l 1,13,14
 498 633 498 633 498 506 c 2,15,-1
 498 185 l 2,16,17
 498 84 498 84 436.5 36.5 c 128,-1,18
 375 -11 375 -11 289 -11 c 0,19,20
 227 -11 227 -11 178 12 c 1,21,-1
 134 -114 l 1,0,-1
466 185 m 2,22,-1
 466 512 l 2,23,24
 466 609 466 609 400 654 c 1,25,-1
 188 43 l 1,26,27
 231 20 231 20 298 20 c 128,-1,28
 365 20 365 20 415.5 59.5 c 128,-1,29
 466 99 466 99 466 185 c 2,22,-1
161 62 m 1,30,-1
 372 669 l 1,31,32
 332 684 332 684 288 684 c 0,33,34
 202 684 202 684 156 638.5 c 128,-1,35
 110 593 110 593 110 511 c 2,36,-1
 110 185 l 2,37,38
 110 105 110 105 161 62 c 1,30,-1
EndSplineSet
EndChar

StartChar: Ugrave
Encoding: 217 217 144
Width: 566
GlyphClass: 2
Flags: W
LayerCount: 2
Fore
SplineSet
463 182 m 2,0,-1
 463 701 l 1,1,-1
 495 701 l 1,2,-1
 495 186 l 2,3,4
 495 133 495 133 476.5 94 c 128,-1,5
 458 55 458 55 426.5 34 c 128,-1,6
 395 13 395 13 360 3 c 128,-1,7
 325 -7 325 -7 285 -7 c 128,-1,8
 245 -7 245 -7 209.5 3 c 128,-1,9
 174 13 174 13 142.5 34 c 128,-1,10
 111 55 111 55 92.5 94 c 128,-1,11
 74 133 74 133 74 186 c 2,12,-1
 74 701 l 1,13,-1
 106 701 l 1,14,-1
 106 182 l 2,15,16
 106 101 106 101 159.5 62 c 128,-1,17
 213 23 213 23 285 23 c 128,-1,18
 357 23 357 23 410 62.5 c 128,-1,19
 463 102 463 102 463 182 c 2,0,-1
301 730 m 1,20,-1
 273 730 l 1,21,-1
 208 835 l 2,22,23
 204 841 204 841 204 846 c 0,24,25
 204 864 204 864 217 869 c 0,26,27
 222 871 222 871 227 871 c 0,28,29
 240 871 240 871 247 854 c 2,30,-1
 301 730 l 1,20,-1
EndSplineSet
EndChar

StartChar: Uacute
Encoding: 218 218 145
Width: 566
GlyphClass: 2
Flags: W
LayerCount: 2
Fore
SplineSet
463 182 m 2,0,-1
 463 701 l 1,1,-1
 495 701 l 1,2,-1
 495 186 l 2,3,4
 495 133 495 133 476.5 94 c 128,-1,5
 458 55 458 55 426.5 34 c 128,-1,6
 395 13 395 13 360 3 c 128,-1,7
 325 -7 325 -7 285 -7 c 128,-1,8
 245 -7 245 -7 209.5 3 c 128,-1,9
 174 13 174 13 142.5 34 c 128,-1,10
 111 55 111 55 92.5 94 c 128,-1,11
 74 133 74 133 74 186 c 2,12,-1
 74 701 l 1,13,-1
 106 701 l 1,14,-1
 106 182 l 2,15,16
 106 101 106 101 159.5 62 c 128,-1,17
 213 23 213 23 285 23 c 128,-1,18
 357 23 357 23 410 62.5 c 128,-1,19
 463 102 463 102 463 182 c 2,0,-1
290 731 m 1,20,-1
 262 731 l 1,21,-1
 316 855 l 2,22,23
 323 872 323 872 336 872 c 0,24,25
 354 872 354 872 358 856 c 0,26,27
 359 853 359 853 359 848 c 128,-1,28
 359 843 359 843 355 837 c 2,29,-1
 290 731 l 1,20,-1
EndSplineSet
EndChar

StartChar: Ucircumflex
Encoding: 219 219 146
Width: 566
GlyphClass: 2
Flags: W
LayerCount: 2
Fore
SplineSet
463 182 m 2,0,-1
 463 701 l 1,1,-1
 495 701 l 1,2,-1
 495 186 l 2,3,4
 495 133 495 133 476.5 94 c 128,-1,5
 458 55 458 55 426.5 34 c 128,-1,6
 395 13 395 13 360 3 c 128,-1,7
 325 -7 325 -7 285 -7 c 128,-1,8
 245 -7 245 -7 209.5 3 c 128,-1,9
 174 13 174 13 142.5 34 c 128,-1,10
 111 55 111 55 92.5 94 c 128,-1,11
 74 133 74 133 74 186 c 2,12,-1
 74 701 l 1,13,-1
 106 701 l 1,14,-1
 106 182 l 2,15,16
 106 101 106 101 159.5 62 c 128,-1,17
 213 23 213 23 285 23 c 128,-1,18
 357 23 357 23 410 62.5 c 128,-1,19
 463 102 463 102 463 182 c 2,0,-1
409 748 m 1,20,-1
 290 867 l 1,21,-1
 167 748 l 1,22,-1
 143 772 l 1,23,-1
 291 913 l 1,24,-1
 433 772 l 1,25,-1
 409 748 l 1,20,-1
EndSplineSet
EndChar

StartChar: Udieresis
Encoding: 220 220 147
Width: 566
GlyphClass: 2
Flags: W
LayerCount: 2
Fore
SplineSet
463 182 m 2,0,-1
 463 701 l 1,1,-1
 495 701 l 1,2,-1
 495 186 l 2,3,4
 495 133 495 133 476.5 94 c 128,-1,5
 458 55 458 55 426.5 34 c 128,-1,6
 395 13 395 13 360 3 c 128,-1,7
 325 -7 325 -7 285 -7 c 128,-1,8
 245 -7 245 -7 209.5 3 c 128,-1,9
 174 13 174 13 142.5 34 c 128,-1,10
 111 55 111 55 92.5 94 c 128,-1,11
 74 133 74 133 74 186 c 2,12,-1
 74 701 l 1,13,-1
 106 701 l 1,14,-1
 106 182 l 2,15,16
 106 101 106 101 159.5 62 c 128,-1,17
 213 23 213 23 285 23 c 128,-1,18
 357 23 357 23 410 62.5 c 128,-1,19
 463 102 463 102 463 182 c 2,0,-1
EndSplineSet
EndChar

StartChar: Yacute
Encoding: 221 221 148
Width: 552
GlyphClass: 2
Flags: W
LayerCount: 2
Fore
SplineSet
399 -7 m 1,0,-1
 391 18 l 1,1,2
 408 24 408 24 416 28.5 c 128,-1,3
 424 33 424 33 440 47 c 0,4,5
 471 74 471 74 471 152 c 2,6,-1
 471 325 l 1,7,8
 442 282 442 282 389.5 263.5 c 128,-1,9
 337 245 337 245 289 245 c 0,10,11
 183 245 183 245 121.5 297.5 c 128,-1,12
 60 350 60 350 60 453 c 2,13,-1
 60 700 l 1,14,-1
 92 700 l 1,15,-1
 92 453 l 2,16,17
 92 368 92 368 142.5 322.5 c 128,-1,18
 193 277 193 277 289 277 c 0,19,20
 362 277 362 277 411.5 312 c 128,-1,21
 461 347 461 347 471 403 c 1,22,-1
 471 700 l 1,23,-1
 503 700 l 1,24,-1
 503 149 l 2,25,26
 503 15 503 15 399 -7 c 1,0,-1
290 731 m 1,27,-1
 262 731 l 1,28,-1
 316 855 l 2,29,30
 323 872 323 872 336 872 c 0,31,32
 354 872 354 872 358 856 c 0,33,34
 359 853 359 853 359 848 c 128,-1,35
 359 843 359 843 355 837 c 2,36,-1
 290 731 l 1,27,-1
EndSplineSet
EndChar

StartChar: Thorn
Encoding: 222 222 149
Width: 493
GlyphClass: 2
Flags: W
LayerCount: 2
Fore
SplineSet
110 0 m 1,0,-1
 78 0 l 1,1,-1
 78 700 l 1,2,-1
 110 700 l 1,3,-1
 110 426 l 1,4,5
 166 510 166 510 262 510 c 128,-1,6
 358 510 358 510 407 454.5 c 128,-1,7
 456 399 456 399 456 310.5 c 128,-1,8
 456 222 456 222 402 169 c 128,-1,9
 348 116 348 116 268 116 c 0,10,11
 222 116 222 116 178 139.5 c 128,-1,12
 134 163 134 163 110 217 c 1,13,-1
 110 0 l 1,0,-1
160 440.5 m 128,-1,15
 112 400 112 400 111.5 320.5 c 128,-1,16
 111 241 111 241 155.5 194 c 128,-1,17
 200 147 200 147 267 147 c 128,-1,18
 334 147 334 147 379 190 c 128,-1,19
 424 233 424 233 424 315.5 c 128,-1,20
 424 398 424 398 377 439.5 c 128,-1,21
 330 481 330 481 269 481 c 128,-1,14
 208 481 208 481 160 440.5 c 128,-1,15
EndSplineSet
EndChar

StartChar: germandbls
Encoding: 223 223 150
Width: 514
GlyphClass: 2
Flags: W
LayerCount: 2
Fore
SplineSet
172 37 m 1,0,-1
 190 66 l 1,1,2
 219 38 219 38 268 26 c 0,3,4
 290 21 290 21 314.5 21 c 128,-1,5
 339 21 339 21 366 30 c 1,6,7
 414 44 414 44 432 86 c 0,8,9
 443 113 443 113 443 139 c 0,10,11
 443 200 443 200 383 253 c 0,12,13
 358 275 358 275 314 309 c 0,14,15
 237 368 237 368 220 406 c 0,16,17
 211 425 211 425 211 451.5 c 128,-1,18
 211 478 211 478 228 507 c 1,19,20
 230 507 230 507 232 507 c 0,21,22
 282 507 282 507 295 552 c 0,23,24
 299 566 299 566 299 587 c 128,-1,25
 299 608 299 608 276.5 638.5 c 128,-1,26
 254 669 254 669 211 670 c 1,27,28
 110 670 110 670 110 541 c 2,29,-1
 110 0 l 1,30,-1
 78 0 l 1,31,-1
 78 537 l 2,32,33
 78 701 78 701 211 701 c 0,34,35
 248 701 248 701 276 682 c 0,36,37
 329 646 329 646 329 573 c 0,38,39
 329 545 329 545 314 521 c 128,-1,40
 299 497 299 497 271 487 c 1,41,-1
 253 487 l 1,42,43
 243 467 243 467 243 449.5 c 128,-1,44
 243 432 243 432 250.5 417.5 c 128,-1,45
 258 403 258 403 269 389.5 c 128,-1,46
 280 376 280 376 298 361 c 128,-1,47
 316 346 316 346 332 333.5 c 128,-1,48
 348 321 348 321 369 305 c 128,-1,49
 390 289 390 289 405 276 c 0,50,51
 477 214 477 214 477 140 c 0,52,53
 477 108 477 108 463 73 c 0,54,55
 442 22 442 22 386 2 c 0,56,57
 350 -11 350 -11 321 -11 c 0,58,59
 229 -11 229 -11 172 37 c 1,0,-1
EndSplineSet
EndChar

StartChar: agrave
Encoding: 224 224 151
Width: 500
GlyphClass: 2
Flags: W
LayerCount: 2
Fore
SplineSet
239 402 m 0,0,1
 350 402 350 402 431 346 c 1,2,3
 431 482 431 482 258 482 c 0,4,5
 256 482 256 482 253 482 c 1,6,-1
 255 509 l 1,7,8
 336 509 336 509 375 490 c 0,9,10
 396 479 396 479 412 468 c 128,-1,11
 428 457 428 457 437 439 c 128,-1,12
 446 421 446 421 452 407.5 c 128,-1,13
 458 394 458 394 460 371 c 0,14,15
 463 336 463 336 463 298 c 2,16,-1
 463 0 l 1,17,18
 359 -10 359 -10 297 -10 c 0,19,20
 78 -10 78 -10 78 169 c 2,21,-1
 78 252 l 2,22,23
 78 349 78 349 150 384 c 0,24,25
 187 402 187 402 239 402 c 0,0,1
176 42 m 128,-1,27
 205 27 205 27 242 22.5 c 128,-1,28
 279 18 279 18 316 18 c 128,-1,29
 353 18 353 18 431 28 c 1,30,-1
 431 316 l 1,31,32
 348 367 348 367 238 372 c 0,33,34
 234 373 234 373 230 373 c 0,35,36
 181 373 181 373 145.5 343 c 128,-1,37
 110 313 110 313 110 249 c 2,38,-1
 110 162 l 2,39,40
 110 118 110 118 128.5 87.5 c 128,-1,26
 147 57 147 57 176 42 c 128,-1,27
292 538 m 1,41,-1
 264 538 l 1,42,-1
 199 643 l 2,43,44
 195 649 195 649 195 654 c 0,45,46
 195 672 195 672 208 677 c 0,47,48
 213 679 213 679 218 679 c 0,49,50
 231 679 231 679 238 662 c 2,51,-1
 292 538 l 1,41,-1
EndSplineSet
EndChar

StartChar: aacute
Encoding: 225 225 152
Width: 500
GlyphClass: 2
Flags: W
LayerCount: 2
Fore
SplineSet
239 402 m 0,0,1
 350 402 350 402 431 346 c 1,2,3
 431 482 431 482 258 482 c 0,4,5
 256 482 256 482 253 482 c 1,6,-1
 255 509 l 1,7,8
 336 509 336 509 375 490 c 0,9,10
 396 479 396 479 412 468 c 128,-1,11
 428 457 428 457 437 439 c 128,-1,12
 446 421 446 421 452 407.5 c 128,-1,13
 458 394 458 394 460 371 c 0,14,15
 463 336 463 336 463 298 c 2,16,-1
 463 0 l 1,17,18
 359 -10 359 -10 297 -10 c 0,19,20
 78 -10 78 -10 78 169 c 2,21,-1
 78 252 l 2,22,23
 78 349 78 349 150 384 c 0,24,25
 187 402 187 402 239 402 c 0,0,1
176 42 m 128,-1,27
 205 27 205 27 242 22.5 c 128,-1,28
 279 18 279 18 316 18 c 128,-1,29
 353 18 353 18 431 28 c 1,30,-1
 431 316 l 1,31,32
 348 367 348 367 238 372 c 0,33,34
 234 373 234 373 230 373 c 0,35,36
 181 373 181 373 145.5 343 c 128,-1,37
 110 313 110 313 110 249 c 2,38,-1
 110 162 l 2,39,40
 110 118 110 118 128.5 87.5 c 128,-1,26
 147 57 147 57 176 42 c 128,-1,27
286 538 m 1,41,-1
 258 538 l 1,42,-1
 312 662 l 2,43,44
 319 679 319 679 332 679 c 0,45,46
 350 679 350 679 354 663 c 0,47,48
 355 660 355 660 355 655 c 128,-1,49
 355 650 355 650 351 644 c 2,50,-1
 286 538 l 1,41,-1
EndSplineSet
EndChar

StartChar: acircumflex
Encoding: 226 226 153
Width: 500
GlyphClass: 2
Flags: W
LayerCount: 2
Fore
SplineSet
239 402 m 0,0,1
 350 402 350 402 431 346 c 1,2,3
 431 482 431 482 258 482 c 0,4,5
 256 482 256 482 253 482 c 1,6,-1
 255 509 l 1,7,8
 336 509 336 509 375 490 c 0,9,10
 396 479 396 479 412 468 c 128,-1,11
 428 457 428 457 437 439 c 128,-1,12
 446 421 446 421 452 407.5 c 128,-1,13
 458 394 458 394 460 371 c 0,14,15
 463 336 463 336 463 298 c 2,16,-1
 463 0 l 1,17,18
 359 -10 359 -10 297 -10 c 0,19,20
 78 -10 78 -10 78 169 c 2,21,-1
 78 252 l 2,22,23
 78 349 78 349 150 384 c 0,24,25
 187 402 187 402 239 402 c 0,0,1
176 42 m 128,-1,27
 205 27 205 27 242 22.5 c 128,-1,28
 279 18 279 18 316 18 c 128,-1,29
 353 18 353 18 431 28 c 1,30,-1
 431 316 l 1,31,32
 348 367 348 367 238 372 c 0,33,34
 234 373 234 373 230 373 c 0,35,36
 181 373 181 373 145.5 343 c 128,-1,37
 110 313 110 313 110 249 c 2,38,-1
 110 162 l 2,39,40
 110 118 110 118 128.5 87.5 c 128,-1,26
 147 57 147 57 176 42 c 128,-1,27
395 555 m 1,41,-1
 276 674 l 1,42,-1
 153 555 l 1,43,-1
 129 579 l 1,44,-1
 277 720 l 1,45,-1
 419 579 l 1,46,-1
 395 555 l 1,41,-1
EndSplineSet
EndChar

StartChar: atilde
Encoding: 227 227 154
Width: 500
GlyphClass: 2
Flags: W
LayerCount: 2
Fore
SplineSet
239 402 m 0,0,1
 350 402 350 402 431 346 c 1,2,3
 431 482 431 482 258 482 c 0,4,5
 256 482 256 482 253 482 c 1,6,-1
 255 509 l 1,7,8
 336 509 336 509 375 490 c 0,9,10
 396 479 396 479 412 468 c 128,-1,11
 428 457 428 457 437 439 c 128,-1,12
 446 421 446 421 452 407.5 c 128,-1,13
 458 394 458 394 460 371 c 0,14,15
 463 336 463 336 463 298 c 2,16,-1
 463 0 l 1,17,18
 359 -10 359 -10 297 -10 c 0,19,20
 78 -10 78 -10 78 169 c 2,21,-1
 78 252 l 2,22,23
 78 349 78 349 150 384 c 0,24,25
 187 402 187 402 239 402 c 0,0,1
176 42 m 128,-1,27
 205 27 205 27 242 22.5 c 128,-1,28
 279 18 279 18 316 18 c 128,-1,29
 353 18 353 18 431 28 c 1,30,-1
 431 316 l 1,31,32
 348 367 348 367 238 372 c 0,33,34
 234 373 234 373 230 373 c 0,35,36
 181 373 181 373 145.5 343 c 128,-1,37
 110 313 110 313 110 249 c 2,38,-1
 110 162 l 2,39,40
 110 118 110 118 128.5 87.5 c 128,-1,26
 147 57 147 57 176 42 c 128,-1,27
212 637 m 0,41,42
 238 637 238 637 303 607 c 0,43,44
 329 595 329 595 361 595 c 128,-1,45
 393 595 393 595 423 627 c 1,46,-1
 439 603 l 1,47,48
 398 562 398 562 355 562 c 0,49,50
 333 562 333 562 306.5 572.5 c 128,-1,51
 280 583 280 583 260 592 c 0,52,53
 231 605 231 605 209 605 c 0,54,55
 167 605 167 605 129 563 c 1,56,-1
 113 587 l 1,57,58
 158 637 158 637 212 637 c 0,41,42
EndSplineSet
EndChar

StartChar: adieresis
Encoding: 228 228 155
Width: 500
GlyphClass: 2
Flags: W
LayerCount: 2
Fore
SplineSet
239 402 m 0,0,1
 350 402 350 402 431 346 c 1,2,3
 431 482 431 482 258 482 c 0,4,5
 256 482 256 482 253 482 c 1,6,-1
 255 509 l 1,7,8
 336 509 336 509 375 490 c 0,9,10
 396 479 396 479 412 468 c 128,-1,11
 428 457 428 457 437 439 c 128,-1,12
 446 421 446 421 452 407.5 c 128,-1,13
 458 394 458 394 460 371 c 0,14,15
 463 336 463 336 463 298 c 2,16,-1
 463 0 l 1,17,18
 359 -10 359 -10 297 -10 c 0,19,20
 78 -10 78 -10 78 169 c 2,21,-1
 78 252 l 2,22,23
 78 349 78 349 150 384 c 0,24,25
 187 402 187 402 239 402 c 0,0,1
176 42 m 128,-1,27
 205 27 205 27 242 22.5 c 128,-1,28
 279 18 279 18 316 18 c 128,-1,29
 353 18 353 18 431 28 c 1,30,-1
 431 316 l 1,31,32
 348 367 348 367 238 372 c 0,33,34
 234 373 234 373 230 373 c 0,35,36
 181 373 181 373 145.5 343 c 128,-1,37
 110 313 110 313 110 249 c 2,38,-1
 110 162 l 2,39,40
 110 118 110 118 128.5 87.5 c 128,-1,26
 147 57 147 57 176 42 c 128,-1,27
EndSplineSet
EndChar

StartChar: aring
Encoding: 229 229 156
Width: 500
GlyphClass: 2
Flags: W
LayerCount: 2
Fore
SplineSet
261 482 m 1,0,-1
 253 482 l 1,1,2
 209 486 209 486 178.5 518.5 c 128,-1,3
 148 551 148 551 148 596.5 c 128,-1,4
 148 642 148 642 181 675 c 128,-1,5
 214 708 214 708 261 708 c 128,-1,6
 308 708 308 708 341 675 c 128,-1,7
 374 642 374 642 374 590 c 128,-1,8
 374 538 374 538 326 503 c 1,9,10
 365 496 365 496 392.5 479.5 c 128,-1,11
 420 463 420 463 433.5 445.5 c 128,-1,12
 447 428 447 428 454 398 c 0,13,14
 463 359 463 359 463 298 c 2,15,-1
 463 0 l 1,16,17
 359 -10 359 -10 297 -10 c 0,18,19
 78 -10 78 -10 78 169 c 2,20,-1
 78 252 l 2,21,22
 78 349 78 349 150 384 c 0,23,24
 187 402 187 402 239 402 c 0,25,26
 350 402 350 402 431 346 c 1,27,28
 431 481 431 481 261 482 c 1,0,-1
176 42 m 128,-1,30
 205 27 205 27 242 22.5 c 128,-1,31
 279 18 279 18 316 18 c 128,-1,32
 353 18 353 18 431 28 c 1,33,-1
 431 316 l 1,34,35
 348 367 348 367 238 372 c 0,36,37
 234 373 234 373 230 373 c 0,38,39
 181 373 181 373 145.5 343 c 128,-1,40
 110 313 110 313 110 249 c 2,41,-1
 110 162 l 2,42,43
 110 118 110 118 128.5 87.5 c 128,-1,29
 147 57 147 57 176 42 c 128,-1,30
201.5 535.5 m 128,-1,45
 226 511 226 511 260.5 511 c 128,-1,46
 295 511 295 511 319.5 535.5 c 128,-1,47
 344 560 344 560 344 595 c 128,-1,48
 344 630 344 630 320 654 c 128,-1,49
 296 678 296 678 261 678 c 128,-1,50
 226 678 226 678 201.5 653.5 c 128,-1,51
 177 629 177 629 177 594.5 c 128,-1,44
 177 560 177 560 201.5 535.5 c 128,-1,45
EndSplineSet
EndChar

StartChar: ae
Encoding: 230 230 157
Width: 830
GlyphClass: 2
Flags: W
LayerCount: 2
Fore
SplineSet
596 15 m 0,0,1
 671 15 671 15 754 61 c 1,2,-1
 768 35 l 1,3,4
 690 -12 690 -12 597.5 -12 c 128,-1,5
 505 -12 505 -12 463 38 c 1,6,-1
 463 0 l 1,7,8
 359 -10 359 -10 297 -10 c 0,9,10
 78 -10 78 -10 78 169 c 2,11,-1
 78 252 l 2,12,13
 78 349 78 349 150 384 c 0,14,15
 187 402 187 402 239 402 c 0,16,17
 350 402 350 402 431 346 c 1,18,19
 431 482 431 482 258 482 c 0,20,21
 256 482 256 482 253 482 c 1,22,-1
 255 509 l 1,23,24
 413 509 413 509 448 417 c 1,25,26
 491 510 491 510 617 510 c 0,27,28
 700 510 700 510 746.5 465.5 c 128,-1,29
 793 421 793 421 793 342 c 2,30,-1
 793 235 l 1,31,-1
 465 218 l 1,32,-1
 465 133 l 2,33,34
 465 71 465 71 504.5 43 c 128,-1,35
 544 15 544 15 596 15 c 0,0,1
176 42 m 128,-1,37
 205 27 205 27 242 22.5 c 128,-1,38
 279 18 279 18 316 18 c 128,-1,39
 353 18 353 18 431 28 c 1,40,-1
 431 316 l 1,41,42
 348 367 348 367 238 372 c 0,43,44
 234 373 234 373 230 373 c 0,45,46
 181 373 181 373 145.5 343 c 128,-1,47
 110 313 110 313 110 249 c 2,48,-1
 110 162 l 2,49,50
 110 118 110 118 128.5 87.5 c 128,-1,36
 147 57 147 57 176 42 c 128,-1,37
761 265 m 1,51,-1
 761 345 l 2,52,53
 761 418 761 418 717 449.5 c 128,-1,54
 673 481 673 481 613 481 c 128,-1,55
 553 481 553 481 509 446.5 c 128,-1,56
 465 412 465 412 465 339 c 2,57,-1
 465 249 l 1,58,-1
 761 265 l 1,51,-1
EndSplineSet
EndChar

StartChar: ccedilla
Encoding: 231 231 158
Width: 383
GlyphClass: 2
Flags: W
LayerCount: 2
Fore
SplineSet
243 19 m 0,0,1
 294 19 294 19 351 34 c 1,2,-1
 358 6 l 1,3,4
 299 -10 299 -10 260.5 -10 c 128,-1,5
 222 -10 222 -10 201 -8 c 1,6,-1
 166 -55 l 1,7,8
 183 -47 183 -47 214.5 -47 c 128,-1,9
 246 -47 246 -47 272.5 -64 c 128,-1,10
 299 -81 299 -81 299 -125 c 128,-1,11
 299 -169 299 -169 262 -189.5 c 128,-1,12
 225 -210 225 -210 180 -210 c 128,-1,13
 135 -210 135 -210 83 -191 c 1,14,-1
 98 -159 l 1,15,16
 135 -183 135 -183 175 -183 c 128,-1,17
 215 -183 215 -183 241.5 -167.5 c 128,-1,18
 268 -152 268 -152 268 -120.5 c 128,-1,19
 268 -89 268 -89 238 -76 c 0,20,21
 225 -71 225 -71 207.5 -71 c 128,-1,22
 190 -71 190 -71 167 -80 c 2,23,-1
 129 -94 l 1,24,-1
 119 -78 l 1,25,-1
 176 -5 l 1,26,27
 158 -2 158 -2 148 2 c 0,28,29
 89 22 89 22 62.5 63.5 c 128,-1,30
 36 105 36 105 36 180 c 2,31,-1
 36 308 l 2,32,33
 36 379 36 379 64 427 c 0,34,35
 112 510 112 510 222 510 c 0,36,37
 288 510 288 510 356 478 c 1,38,-1
 346 451 l 1,39,40
 286 480 286 480 238 480 c 128,-1,41
 190 480 190 480 154.5 467.5 c 128,-1,42
 119 455 119 455 93.5 414.5 c 128,-1,43
 68 374 68 374 68 314 c 2,44,-1
 68 169 l 2,45,46
 68 19 68 19 243 19 c 0,0,1
EndSplineSet
EndChar

StartChar: egrave
Encoding: 232 232 159
Width: 475
GlyphClass: 2
Flags: W
LayerCount: 2
Fore
SplineSet
241 15 m 0,0,1
 316 15 316 15 399 61 c 1,2,-1
 413 35 l 1,3,4
 336 -12 336 -12 252 -12 c 0,5,6
 78 -12 78 -12 78 134 c 2,7,-1
 78 339 l 2,8,9
 78 420 78 420 128.5 465 c 128,-1,10
 179 510 179 510 262 510 c 128,-1,11
 345 510 345 510 391.5 465.5 c 128,-1,12
 438 421 438 421 438 342 c 2,13,-1
 438 235 l 1,14,-1
 110 218 l 1,15,-1
 110 133 l 2,16,17
 110 71 110 71 149.5 43 c 128,-1,18
 189 15 189 15 241 15 c 0,0,1
406 265 m 1,19,-1
 406 345 l 2,20,21
 406 418 406 418 362 449.5 c 128,-1,22
 318 481 318 481 258 481 c 128,-1,23
 198 481 198 481 154 446.5 c 128,-1,24
 110 412 110 412 110 339 c 2,25,-1
 110 249 l 1,26,-1
 406 265 l 1,19,-1
284 538 m 1,27,-1
 256 538 l 1,28,-1
 191 643 l 2,29,30
 187 649 187 649 187 654 c 0,31,32
 187 672 187 672 200 677 c 0,33,34
 205 679 205 679 210 679 c 0,35,36
 223 679 223 679 230 662 c 2,37,-1
 284 538 l 1,27,-1
EndSplineSet
EndChar

StartChar: eacute
Encoding: 233 233 160
Width: 475
GlyphClass: 2
Flags: W
LayerCount: 2
Fore
SplineSet
241 15 m 0,0,1
 316 15 316 15 399 61 c 1,2,-1
 413 35 l 1,3,4
 336 -12 336 -12 252 -12 c 0,5,6
 78 -12 78 -12 78 134 c 2,7,-1
 78 339 l 2,8,9
 78 420 78 420 128.5 465 c 128,-1,10
 179 510 179 510 262 510 c 128,-1,11
 345 510 345 510 391.5 465.5 c 128,-1,12
 438 421 438 421 438 342 c 2,13,-1
 438 235 l 1,14,-1
 110 218 l 1,15,-1
 110 133 l 2,16,17
 110 71 110 71 149.5 43 c 128,-1,18
 189 15 189 15 241 15 c 0,0,1
406 265 m 1,19,-1
 406 345 l 2,20,21
 406 418 406 418 362 449.5 c 128,-1,22
 318 481 318 481 258 481 c 128,-1,23
 198 481 198 481 154 446.5 c 128,-1,24
 110 412 110 412 110 339 c 2,25,-1
 110 249 l 1,26,-1
 406 265 l 1,19,-1
268 538 m 1,27,-1
 240 538 l 1,28,-1
 294 662 l 2,29,30
 301 679 301 679 314 679 c 0,31,32
 332 679 332 679 336 663 c 0,33,34
 337 660 337 660 337 655 c 128,-1,35
 337 650 337 650 333 644 c 2,36,-1
 268 538 l 1,27,-1
EndSplineSet
EndChar

StartChar: ecircumflex
Encoding: 234 234 161
Width: 484
GlyphClass: 2
Flags: W
LayerCount: 2
Fore
SplineSet
241 15 m 0,0,1
 316 15 316 15 399 61 c 1,2,-1
 413 35 l 1,3,4
 336 -12 336 -12 252 -12 c 0,5,6
 78 -12 78 -12 78 134 c 2,7,-1
 78 339 l 2,8,9
 78 420 78 420 128.5 465 c 128,-1,10
 179 510 179 510 262 510 c 128,-1,11
 345 510 345 510 391.5 465.5 c 128,-1,12
 438 421 438 421 438 342 c 2,13,-1
 438 235 l 1,14,-1
 110 218 l 1,15,-1
 110 133 l 2,16,17
 110 71 110 71 149.5 43 c 128,-1,18
 189 15 189 15 241 15 c 0,0,1
406 265 m 1,19,-1
 406 345 l 2,20,21
 406 418 406 418 362 449.5 c 128,-1,22
 318 481 318 481 258 481 c 128,-1,23
 198 481 198 481 154 446.5 c 128,-1,24
 110 412 110 412 110 339 c 2,25,-1
 110 249 l 1,26,-1
 406 265 l 1,19,-1
373 555 m 1,27,-1
 254 674 l 1,28,-1
 131 555 l 1,29,-1
 107 579 l 1,30,-1
 255 720 l 1,31,-1
 397 579 l 1,32,-1
 373 555 l 1,27,-1
EndSplineSet
EndChar

StartChar: edieresis
Encoding: 235 235 162
Width: 450
GlyphClass: 2
Flags: W
LayerCount: 2
Fore
SplineSet
198 15 m 0,0,1
 273 15 273 15 356 61 c 1,2,-1
 370 35 l 1,3,4
 293 -12 293 -12 209 -12 c 0,5,6
 35 -12 35 -12 35 134 c 2,7,-1
 35 339 l 2,8,9
 35 420 35 420 85.5 465 c 128,-1,10
 136 510 136 510 219 510 c 128,-1,11
 302 510 302 510 348.5 465.5 c 128,-1,12
 395 421 395 421 395 342 c 2,13,-1
 395 235 l 1,14,-1
 67 218 l 1,15,-1
 67 133 l 2,16,17
 67 71 67 71 106.5 43 c 128,-1,18
 146 15 146 15 198 15 c 0,0,1
363 265 m 1,19,-1
 363 345 l 2,20,21
 363 418 363 418 319 449.5 c 128,-1,22
 275 481 275 481 215 481 c 128,-1,23
 155 481 155 481 111 446.5 c 128,-1,24
 67 412 67 412 67 339 c 2,25,-1
 67 249 l 1,26,-1
 363 265 l 1,19,-1
EndSplineSet
EndChar

StartChar: igrave
Encoding: 236 236 163
Width: 217
GlyphClass: 2
Flags: W
LayerCount: 2
Fore
SplineSet
176 538 m 1,0,-1
 148 538 l 1,1,-1
 83 643 l 2,2,3
 79 649 79 649 79 654 c 0,4,5
 79 672 79 672 92 677 c 0,6,7
 97 679 97 679 102 679 c 0,8,9
 115 679 115 679 122 662 c 2,10,-1
 176 538 l 1,0,-1
178 0 m 1,11,-1
 146 0 l 1,12,-1
 146 501 l 1,13,-1
 178 501 l 1,14,-1
 178 0 l 1,11,-1
EndSplineSet
EndChar

StartChar: iacute
Encoding: 237 237 164
Width: 216
GlyphClass: 2
Flags: W
LayerCount: 2
Fore
SplineSet
109 538 m 1,0,-1
 81 538 l 1,1,-1
 135 662 l 2,2,3
 142 679 142 679 155 679 c 0,4,5
 173 679 173 679 178 663 c 0,6,7
 178 660 178 660 178 655 c 128,-1,8
 178 650 178 650 174 644 c 2,9,-1
 109 538 l 1,0,-1
117 0 m 1,10,-1
 85 0 l 1,11,-1
 85 501 l 1,12,-1
 117 501 l 1,13,-1
 117 0 l 1,10,-1
EndSplineSet
EndChar

StartChar: icircumflex
Encoding: 238 238 165
Width: 168
GlyphClass: 2
Flags: W
LayerCount: 2
Fore
SplineSet
215 555 m 1,0,-1
 96 674 l 1,1,-1
 -27 555 l 1,2,-1
 -51 579 l 1,3,-1
 97 720 l 1,4,-1
 239 579 l 1,5,-1
 215 555 l 1,0,-1
110 0 m 1,6,-1
 78 0 l 1,7,-1
 78 501 l 1,8,-1
 110 501 l 1,9,-1
 110 0 l 1,6,-1
EndSplineSet
EndChar

StartChar: idieresis
Encoding: 239 239 166
Width: 139
GlyphClass: 2
Flags: W
LayerCount: 2
Fore
SplineSet
89 0 m 1,0,-1
 57 0 l 1,1,-1
 57 501 l 1,2,-1
 89 501 l 1,3,-1
 89 0 l 1,0,-1
8.5 567.5 m 128,-1,5
 2 561 2 561 -6.5 561 c 128,-1,6
 -15 561 -15 561 -21 567.5 c 128,-1,7
 -27 574 -27 574 -27 582.5 c 128,-1,8
 -27 591 -27 591 -21 597.5 c 128,-1,9
 -15 604 -15 604 -6.5 604 c 128,-1,10
 2 604 2 604 8.5 597.5 c 128,-1,11
 15 591 15 591 15 582.5 c 128,-1,4
 15 574 15 574 8.5 567.5 c 128,-1,5
167.5 568.5 m 128,-1,13
 161 562 161 562 152.5 562 c 128,-1,14
 144 562 144 562 137.5 568.5 c 128,-1,15
 131 575 131 575 131 583.5 c 128,-1,16
 131 592 131 592 137.5 598.5 c 128,-1,17
 144 605 144 605 152.5 605 c 128,-1,18
 161 605 161 605 167.5 598.5 c 128,-1,19
 174 592 174 592 174 583.5 c 128,-1,12
 174 575 174 575 167.5 568.5 c 128,-1,13
EndSplineSet
EndChar

StartChar: ntilde
Encoding: 241 241 167
Width: 484
GlyphClass: 2
Flags: W
LayerCount: 2
Fore
SplineSet
110 475 m 1,0,1
 172 510 172 510 246.5 510 c 128,-1,2
 321 510 321 510 362 490 c 1,3,4
 447 451 447 451 447 346 c 2,5,-1
 447 0 l 1,6,-1
 415 0 l 1,7,-1
 415 346 l 2,8,9
 415 403 415 403 382 436 c 0,10,11
 340 479 340 479 257 479 c 128,-1,12
 174 479 174 479 110 444 c 1,13,-1
 110 0 l 1,14,-1
 78 0 l 1,15,-1
 78 501 l 1,16,-1
 110 501 l 1,17,-1
 110 475 l 1,0,1
191 637 m 0,18,19
 217 637 217 637 282 607 c 0,20,21
 308 595 308 595 340 595 c 128,-1,22
 372 595 372 595 402 627 c 1,23,-1
 418 603 l 1,24,25
 377 562 377 562 334 562 c 0,26,27
 312 562 312 562 285.5 572.5 c 128,-1,28
 259 583 259 583 238 592 c 0,29,30
 210 605 210 605 188 605 c 0,31,32
 146 605 146 605 108 563 c 1,33,-1
 92 587 l 1,34,35
 137 637 137 637 191 637 c 0,18,19
EndSplineSet
EndChar

StartChar: ograve
Encoding: 242 242 168
Width: 488
GlyphClass: 2
Flags: W
LayerCount: 2
Fore
SplineSet
451 316 m 2,0,-1
 451 184 l 2,1,2
 451 100 451 100 405 45 c 128,-1,3
 359 -10 359 -10 266 -10 c 128,-1,4
 173 -10 173 -10 125.5 45.5 c 128,-1,5
 78 101 78 101 78 184 c 2,6,-1
 78 316 l 2,7,8
 78 411 78 411 126.5 461.5 c 128,-1,9
 175 512 175 512 264 512 c 128,-1,10
 353 512 353 512 402 459.5 c 128,-1,11
 451 407 451 407 451 316 c 2,0,-1
419 180 m 2,12,-1
 419 319 l 2,13,14
 419 401 419 401 376 441.5 c 128,-1,15
 333 482 333 482 264.5 482 c 128,-1,16
 196 482 196 482 153 441.5 c 128,-1,17
 110 401 110 401 110 319 c 2,18,-1
 110 180 l 2,19,20
 110 112 110 112 149 65.5 c 128,-1,21
 188 19 188 19 265 19 c 128,-1,22
 342 19 342 19 380.5 64.5 c 128,-1,23
 419 110 419 110 419 180 c 2,12,-1
283 538 m 1,24,-1
 255 538 l 1,25,-1
 190 643 l 2,26,27
 186 649 186 649 186 654 c 0,28,29
 186 672 186 672 199 677 c 0,30,31
 204 679 204 679 209 679 c 0,32,33
 222 679 222 679 229 662 c 2,34,-1
 283 538 l 1,24,-1
EndSplineSet
EndChar

StartChar: oacute
Encoding: 243 243 169
Width: 488
GlyphClass: 2
Flags: W
LayerCount: 2
Fore
SplineSet
451 316 m 2,0,-1
 451 184 l 2,1,2
 451 100 451 100 405 45 c 128,-1,3
 359 -10 359 -10 266 -10 c 128,-1,4
 173 -10 173 -10 125.5 45.5 c 128,-1,5
 78 101 78 101 78 184 c 2,6,-1
 78 316 l 2,7,8
 78 411 78 411 126.5 461.5 c 128,-1,9
 175 512 175 512 264 512 c 128,-1,10
 353 512 353 512 402 459.5 c 128,-1,11
 451 407 451 407 451 316 c 2,0,-1
419 180 m 2,12,-1
 419 319 l 2,13,14
 419 401 419 401 376 441.5 c 128,-1,15
 333 482 333 482 264.5 482 c 128,-1,16
 196 482 196 482 153 441.5 c 128,-1,17
 110 401 110 401 110 319 c 2,18,-1
 110 180 l 2,19,20
 110 112 110 112 149 65.5 c 128,-1,21
 188 19 188 19 265 19 c 128,-1,22
 342 19 342 19 380.5 64.5 c 128,-1,23
 419 110 419 110 419 180 c 2,12,-1
267 538 m 1,24,-1
 239 538 l 1,25,-1
 293 662 l 2,26,27
 300 679 300 679 313 679 c 0,28,29
 331 679 331 679 336 663 c 0,30,31
 336 660 336 660 336 655 c 128,-1,32
 336 650 336 650 332 644 c 2,33,-1
 267 538 l 1,24,-1
EndSplineSet
EndChar

StartChar: ocircumflex
Encoding: 244 244 170
Width: 488
GlyphClass: 2
Flags: W
LayerCount: 2
Fore
SplineSet
451 316 m 2,0,-1
 451 184 l 2,1,2
 451 100 451 100 405 45 c 128,-1,3
 359 -10 359 -10 266 -10 c 128,-1,4
 173 -10 173 -10 125.5 45.5 c 128,-1,5
 78 101 78 101 78 184 c 2,6,-1
 78 316 l 2,7,8
 78 411 78 411 126.5 461.5 c 128,-1,9
 175 512 175 512 264 512 c 128,-1,10
 353 512 353 512 402 459.5 c 128,-1,11
 451 407 451 407 451 316 c 2,0,-1
419 180 m 2,12,-1
 419 319 l 2,13,14
 419 401 419 401 376 441.5 c 128,-1,15
 333 482 333 482 264.5 482 c 128,-1,16
 196 482 196 482 153 441.5 c 128,-1,17
 110 401 110 401 110 319 c 2,18,-1
 110 180 l 2,19,20
 110 112 110 112 149 65.5 c 128,-1,21
 188 19 188 19 265 19 c 128,-1,22
 342 19 342 19 380.5 64.5 c 128,-1,23
 419 110 419 110 419 180 c 2,12,-1
387 555 m 1,24,-1
 268 674 l 1,25,-1
 145 555 l 1,26,-1
 121 579 l 1,27,-1
 269 720 l 1,28,-1
 411 579 l 1,29,-1
 387 555 l 1,24,-1
EndSplineSet
EndChar

StartChar: otilde
Encoding: 245 245 171
Width: 488
GlyphClass: 2
Flags: W
LayerCount: 2
Fore
SplineSet
451 316 m 2,0,-1
 451 184 l 2,1,2
 451 100 451 100 405 45 c 128,-1,3
 359 -10 359 -10 266 -10 c 128,-1,4
 173 -10 173 -10 125.5 45.5 c 128,-1,5
 78 101 78 101 78 184 c 2,6,-1
 78 316 l 2,7,8
 78 411 78 411 126.5 461.5 c 128,-1,9
 175 512 175 512 264 512 c 128,-1,10
 353 512 353 512 402 459.5 c 128,-1,11
 451 407 451 407 451 316 c 2,0,-1
419 180 m 2,12,-1
 419 319 l 2,13,14
 419 401 419 401 376 441.5 c 128,-1,15
 333 482 333 482 264.5 482 c 128,-1,16
 196 482 196 482 153 441.5 c 128,-1,17
 110 401 110 401 110 319 c 2,18,-1
 110 180 l 2,19,20
 110 112 110 112 149 65.5 c 128,-1,21
 188 19 188 19 265 19 c 128,-1,22
 342 19 342 19 380.5 64.5 c 128,-1,23
 419 110 419 110 419 180 c 2,12,-1
200 637 m 0,24,25
 226 637 226 637 291 607 c 0,26,27
 317 595 317 595 349 595 c 128,-1,28
 381 595 381 595 411 627 c 1,29,-1
 427 603 l 1,30,31
 386 562 386 562 343 562 c 0,32,33
 321 562 321 562 294.5 572.5 c 128,-1,34
 268 583 268 583 248 592 c 0,35,36
 219 605 219 605 197 605 c 0,37,38
 155 605 155 605 117 563 c 1,39,-1
 101 587 l 1,40,41
 146 637 146 637 200 637 c 0,24,25
EndSplineSet
EndChar

StartChar: odieresis
Encoding: 246 246 172
Width: 488
GlyphClass: 2
Flags: W
LayerCount: 2
Fore
SplineSet
451 316 m 2,0,-1
 451 184 l 2,1,2
 451 100 451 100 405 45 c 128,-1,3
 359 -10 359 -10 266 -10 c 128,-1,4
 173 -10 173 -10 125.5 45.5 c 128,-1,5
 78 101 78 101 78 184 c 2,6,-1
 78 316 l 2,7,8
 78 411 78 411 126.5 461.5 c 128,-1,9
 175 512 175 512 264 512 c 128,-1,10
 353 512 353 512 402 459.5 c 128,-1,11
 451 407 451 407 451 316 c 2,0,-1
419 180 m 2,12,-1
 419 319 l 2,13,14
 419 401 419 401 376 441.5 c 128,-1,15
 333 482 333 482 264.5 482 c 128,-1,16
 196 482 196 482 153 441.5 c 128,-1,17
 110 401 110 401 110 319 c 2,18,-1
 110 180 l 2,19,20
 110 112 110 112 149 65.5 c 128,-1,21
 188 19 188 19 265 19 c 128,-1,22
 342 19 342 19 380.5 64.5 c 128,-1,23
 419 110 419 110 419 180 c 2,12,-1
EndSplineSet
EndChar

StartChar: divide
Encoding: 247 247 173
Width: 435
GlyphClass: 2
Flags: W
LayerCount: 2
Fore
SplineSet
398 371 m 1,0,-1
 78 371 l 1,1,-1
 78 403 l 1,2,-1
 398 403 l 1,3,-1
 398 371 l 1,0,-1
255.5 252.5 m 128,-1,5
 249 246 249 246 240.5 246 c 128,-1,6
 232 246 232 246 225.5 252.5 c 128,-1,7
 219 259 219 259 219 267.5 c 128,-1,8
 219 276 219 276 225.5 282.5 c 128,-1,9
 232 289 232 289 240.5 289 c 128,-1,10
 249 289 249 289 255.5 282.5 c 128,-1,11
 262 276 262 276 262 267.5 c 128,-1,4
 262 259 262 259 255.5 252.5 c 128,-1,5
255.5 485.5 m 128,-1,13
 249 479 249 479 240.5 479 c 128,-1,14
 232 479 232 479 225.5 485.5 c 128,-1,15
 219 492 219 492 219 500.5 c 128,-1,16
 219 509 219 509 225.5 515.5 c 128,-1,17
 232 522 232 522 240.5 522 c 128,-1,18
 249 522 249 522 255.5 515.5 c 128,-1,19
 262 509 262 509 262 500.5 c 128,-1,12
 262 492 262 492 255.5 485.5 c 128,-1,13
EndSplineSet
EndChar

StartChar: oslash
Encoding: 248 248 174
Width: 497
GlyphClass: 2
Flags: W
LayerCount: 2
Fore
SplineSet
136 -114 m 1,0,-1
 102 -114 l 1,1,-1
 159 18 l 1,2,3
 78 69 78 69 78 184 c 2,4,-1
 78 316 l 2,5,6
 78 411 78 411 126.5 461.5 c 128,-1,7
 175 512 175 512 266 512 c 0,8,9
 321 512 321 512 362 489 c 1,10,-1
 428 643 l 1,11,-1
 461 643 l 1,12,-1
 387 472 l 1,13,14
 451 420 451 420 451 316 c 2,15,-1
 451 184 l 2,16,17
 451 100 451 100 405 45 c 128,-1,18
 359 -10 359 -10 266 -10 c 0,19,20
 222 -10 222 -10 186 4 c 1,21,-1
 136 -114 l 1,0,-1
171 46 m 1,22,-1
 350 461 l 1,23,24
 312 482 312 482 266 482 c 0,25,26
 196 482 196 482 153 441.5 c 128,-1,27
 110 401 110 401 110 319 c 2,28,-1
 110 180 l 2,29,30
 110 89 110 89 171 46 c 1,22,-1
419 180 m 2,31,-1
 419 319 l 2,32,33
 419 400 419 400 374 442 c 1,34,-1
 198 31 l 1,35,36
 226 19 226 19 266 19 c 0,37,38
 342 19 342 19 380.5 64.5 c 128,-1,39
 419 110 419 110 419 180 c 2,31,-1
EndSplineSet
EndChar

StartChar: ugrave
Encoding: 249 249 175
Width: 488
GlyphClass: 2
Flags: W
LayerCount: 2
Fore
SplineSet
451 0 m 1,0,-1
 419 0 l 1,1,-1
 421 69 l 1,2,3
 370 -11 370 -11 266 -11 c 0,4,5
 78 -11 78 -11 78 175 c 2,6,-1
 78 501 l 1,7,-1
 110 501 l 1,8,-1
 110 172 l 2,9,10
 110 19 110 19 266 19 c 0,11,12
 334 19 334 19 376.5 56.5 c 128,-1,13
 419 94 419 94 419 162 c 2,14,-1
 419 501 l 1,15,-1
 451 501 l 1,16,-1
 451 0 l 1,0,-1
290 538 m 1,17,-1
 262 538 l 1,18,-1
 197 643 l 2,19,20
 193 649 193 649 193 654 c 0,21,22
 193 672 193 672 206 677 c 0,23,24
 211 679 211 679 216 679 c 0,25,26
 229 679 229 679 236 662 c 2,27,-1
 290 538 l 1,17,-1
EndSplineSet
EndChar

StartChar: uacute
Encoding: 250 250 176
Width: 488
GlyphClass: 2
Flags: W
LayerCount: 2
Fore
SplineSet
451 0 m 1,0,-1
 419 0 l 1,1,-1
 421 69 l 1,2,3
 370 -11 370 -11 266 -11 c 0,4,5
 78 -11 78 -11 78 175 c 2,6,-1
 78 501 l 1,7,-1
 110 501 l 1,8,-1
 110 172 l 2,9,10
 110 19 110 19 266 19 c 0,11,12
 334 19 334 19 376.5 56.5 c 128,-1,13
 419 94 419 94 419 162 c 2,14,-1
 419 501 l 1,15,-1
 451 501 l 1,16,-1
 451 0 l 1,0,-1
267 538 m 1,17,-1
 239 538 l 1,18,-1
 293 662 l 2,19,20
 300 679 300 679 313 679 c 0,21,22
 331 679 331 679 336 663 c 0,23,24
 336 660 336 660 336 655 c 128,-1,25
 336 650 336 650 332 644 c 2,26,-1
 267 538 l 1,17,-1
EndSplineSet
EndChar

StartChar: ucircumflex
Encoding: 251 251 177
Width: 488
GlyphClass: 2
Flags: W
LayerCount: 2
Fore
SplineSet
451 0 m 1,0,-1
 419 0 l 1,1,-1
 421 69 l 1,2,3
 370 -11 370 -11 266 -11 c 0,4,5
 78 -11 78 -11 78 175 c 2,6,-1
 78 501 l 1,7,-1
 110 501 l 1,8,-1
 110 172 l 2,9,10
 110 19 110 19 266 19 c 0,11,12
 334 19 334 19 376.5 56.5 c 128,-1,13
 419 94 419 94 419 162 c 2,14,-1
 419 501 l 1,15,-1
 451 501 l 1,16,-1
 451 0 l 1,0,-1
385 555 m 1,17,-1
 266 674 l 1,18,-1
 143 555 l 1,19,-1
 119 579 l 1,20,-1
 267 720 l 1,21,-1
 409 579 l 1,22,-1
 385 555 l 1,17,-1
EndSplineSet
EndChar

StartChar: udieresis
Encoding: 252 252 178
Width: 488
GlyphClass: 2
Flags: W
LayerCount: 2
Fore
SplineSet
451 0 m 1,0,-1
 419 0 l 1,1,-1
 421 69 l 1,2,3
 370 -11 370 -11 266 -11 c 0,4,5
 78 -11 78 -11 78 175 c 2,6,-1
 78 501 l 1,7,-1
 110 501 l 1,8,-1
 110 172 l 2,9,10
 110 19 110 19 266 19 c 0,11,12
 334 19 334 19 376.5 56.5 c 128,-1,13
 419 94 419 94 419 162 c 2,14,-1
 419 501 l 1,15,-1
 451 501 l 1,16,-1
 451 0 l 1,0,-1
EndSplineSet
EndChar

StartChar: yacute
Encoding: 253 253 179
Width: 519
GlyphClass: 2
Flags: W
LayerCount: 2
Fore
SplineSet
348 -210 m 1,0,-1
 339 -183 l 1,1,2
 423 -158 423 -158 423 -63 c 2,3,-1
 423 74 l 1,4,5
 399 28 399 28 353.5 8 c 128,-1,6
 308 -12 308 -12 261 -12 c 0,7,8
 173 -12 173 -12 125.5 35.5 c 128,-1,9
 78 83 78 83 78 176 c 2,10,-1
 78 501 l 1,11,-1
 109 501 l 1,12,-1
 109 166 l 2,13,14
 109 97 109 97 147 57.5 c 128,-1,15
 185 18 185 18 259 18 c 128,-1,16
 333 18 333 18 377.5 58 c 128,-1,17
 422 98 422 98 422 166 c 2,18,-1
 422 369 l 2,19,20
 422 467 422 467 443 490 c 0,21,22
 454 502 454 502 472 510 c 1,23,-1
 482 486 l 1,24,25
 453 468 453 468 453 403 c 2,26,-1
 453 -61 l 2,27,28
 453 -122 453 -122 429 -157 c 128,-1,29
 405 -192 405 -192 348 -210 c 1,0,-1
264 538 m 1,30,-1
 236 538 l 1,31,-1
 290 662 l 2,32,33
 297 679 297 679 310 679 c 0,34,35
 328 679 328 679 332 663 c 0,36,37
 333 660 333 660 333 655 c 128,-1,38
 333 650 333 650 329 644 c 2,39,-1
 264 538 l 1,30,-1
EndSplineSet
EndChar

StartChar: thorn
Encoding: 254 254 180
Width: 493
GlyphClass: 2
Flags: W
LayerCount: 2
Fore
SplineSet
110 0 m 1,0,-1
 78 0 l 1,1,-1
 78 578 l 1,2,-1
 110 578 l 1,3,-1
 110 426 l 1,4,5
 166 510 166 510 262 510 c 128,-1,6
 358 510 358 510 407 454.5 c 128,-1,7
 456 399 456 399 456 310.5 c 128,-1,8
 456 222 456 222 402 169 c 128,-1,9
 348 116 348 116 268 116 c 0,10,11
 222 116 222 116 178 139.5 c 128,-1,12
 134 163 134 163 110 217 c 1,13,-1
 110 0 l 1,0,-1
160 440.5 m 128,-1,15
 112 400 112 400 111.5 320.5 c 128,-1,16
 111 241 111 241 155.5 194 c 128,-1,17
 200 147 200 147 267 147 c 128,-1,18
 334 147 334 147 379 190 c 128,-1,19
 424 233 424 233 424 315.5 c 128,-1,20
 424 398 424 398 377 439.5 c 128,-1,21
 330 481 330 481 269 481 c 128,-1,14
 208 481 208 481 160 440.5 c 128,-1,15
EndSplineSet
EndChar

StartChar: ydieresis
Encoding: 255 255 181
Width: 519
GlyphClass: 2
Flags: W
LayerCount: 2
Fore
SplineSet
348 -210 m 1,0,-1
 339 -183 l 1,1,2
 423 -158 423 -158 423 -63 c 2,3,-1
 423 74 l 1,4,5
 399 28 399 28 353.5 8 c 128,-1,6
 308 -12 308 -12 261 -12 c 0,7,8
 173 -12 173 -12 125.5 35.5 c 128,-1,9
 78 83 78 83 78 176 c 2,10,-1
 78 501 l 1,11,-1
 109 501 l 1,12,-1
 109 166 l 2,13,14
 109 97 109 97 147 57.5 c 128,-1,15
 185 18 185 18 259 18 c 128,-1,16
 333 18 333 18 377.5 58 c 128,-1,17
 422 98 422 98 422 166 c 2,18,-1
 422 369 l 2,19,20
 422 467 422 467 443 490 c 0,21,22
 454 502 454 502 472 510 c 1,23,-1
 482 486 l 1,24,25
 453 468 453 468 453 403 c 2,26,-1
 453 -61 l 2,27,28
 453 -122 453 -122 429 -157 c 128,-1,29
 405 -192 405 -192 348 -210 c 1,0,-1
198.5 567.5 m 128,-1,31
 192 561 192 561 183.5 561 c 128,-1,32
 175 561 175 561 169 567.5 c 128,-1,33
 163 574 163 574 163 582.5 c 128,-1,34
 163 591 163 591 169 597.5 c 128,-1,35
 175 604 175 604 183.5 604 c 128,-1,36
 192 604 192 604 198.5 597.5 c 128,-1,37
 205 591 205 591 205 582.5 c 128,-1,30
 205 574 205 574 198.5 567.5 c 128,-1,31
357.5 568.5 m 128,-1,39
 351 562 351 562 342.5 562 c 128,-1,40
 334 562 334 562 327.5 568.5 c 128,-1,41
 321 575 321 575 321 583.5 c 128,-1,42
 321 592 321 592 327.5 598.5 c 128,-1,43
 334 605 334 605 342.5 605 c 128,-1,44
 351 605 351 605 357.5 598.5 c 128,-1,45
 364 592 364 592 364 583.5 c 128,-1,38
 364 575 364 575 357.5 568.5 c 128,-1,39
EndSplineSet
EndChar

StartChar: Amacron
Encoding: 256 256 182
Width: 527
GlyphClass: 2
Flags: W
LayerCount: 2
Fore
SplineSet
517 0 m 1,0,-1
 482 0 l 1,1,-1
 391 268 l 1,2,-1
 137 268 l 1,3,-1
 45 0 l 1,4,-1
 12 0 l 1,5,-1
 250 700 l 1,6,-1
 277 700 l 1,7,-1
 517 0 l 1,0,-1
381 300 m 1,8,-1
 263 644 l 1,9,-1
 147 300 l 1,10,-1
 381 300 l 1,8,-1
368 755 m 1,11,-1
 151 755 l 1,12,-1
 151 788 l 1,13,-1
 368 788 l 1,14,-1
 368 755 l 1,11,-1
EndSplineSet
EndChar

StartChar: amacron
Encoding: 257 257 183
Width: 500
GlyphClass: 2
Flags: W
LayerCount: 2
Fore
SplineSet
239 402 m 0,0,1
 350 402 350 402 431 346 c 1,2,3
 431 482 431 482 258 482 c 0,4,5
 256 482 256 482 253 482 c 1,6,-1
 255 509 l 1,7,8
 336 509 336 509 375 490 c 0,9,10
 396 479 396 479 412 468 c 128,-1,11
 428 457 428 457 437 439 c 128,-1,12
 446 421 446 421 452 407.5 c 128,-1,13
 458 394 458 394 460 371 c 0,14,15
 463 336 463 336 463 298 c 2,16,-1
 463 0 l 1,17,18
 359 -10 359 -10 297 -10 c 0,19,20
 78 -10 78 -10 78 169 c 2,21,-1
 78 252 l 2,22,23
 78 349 78 349 150 384 c 0,24,25
 187 402 187 402 239 402 c 0,0,1
176 42 m 128,-1,27
 205 27 205 27 242 22.5 c 128,-1,28
 279 18 279 18 316 18 c 128,-1,29
 353 18 353 18 431 28 c 1,30,-1
 431 316 l 1,31,32
 348 367 348 367 238 372 c 0,33,34
 234 373 234 373 230 373 c 0,35,36
 181 373 181 373 145.5 343 c 128,-1,37
 110 313 110 313 110 249 c 2,38,-1
 110 162 l 2,39,40
 110 118 110 118 128.5 87.5 c 128,-1,26
 147 57 147 57 176 42 c 128,-1,27
386 563 m 1,41,-1
 169 563 l 1,42,-1
 169 596 l 1,43,-1
 386 596 l 1,44,-1
 386 563 l 1,41,-1
EndSplineSet
EndChar

StartChar: Abreve
Encoding: 258 258 184
Width: 527
GlyphClass: 2
Flags: W
LayerCount: 2
Fore
SplineSet
517 0 m 1,0,-1
 482 0 l 1,1,-1
 391 268 l 1,2,-1
 137 268 l 1,3,-1
 45 0 l 1,4,-1
 12 0 l 1,5,-1
 250 700 l 1,6,-1
 277 700 l 1,7,-1
 517 0 l 1,0,-1
381 300 m 1,8,-1
 263 644 l 1,9,-1
 147 300 l 1,10,-1
 381 300 l 1,8,-1
378 848 m 1,11,-1
 378 843 l 2,12,13
 378 796 378 796 345 763 c 128,-1,14
 312 730 312 730 265 730 c 128,-1,15
 218 730 218 730 185 763 c 128,-1,16
 152 796 152 796 152 843 c 2,17,-1
 152 848 l 1,18,-1
 181 848 l 1,19,-1
 181 843 l 2,20,21
 181 812 181 812 204.5 785.5 c 128,-1,22
 228 759 228 759 264.5 759 c 128,-1,23
 301 759 301 759 325 785.5 c 128,-1,24
 349 812 349 812 349 843 c 2,25,-1
 349 848 l 1,26,-1
 378 848 l 1,11,-1
EndSplineSet
EndChar

StartChar: abreve
Encoding: 259 259 185
Width: 500
GlyphClass: 2
Flags: W
LayerCount: 2
Fore
SplineSet
239 402 m 0,0,1
 350 402 350 402 431 346 c 1,2,3
 431 482 431 482 258 482 c 0,4,5
 256 482 256 482 253 482 c 1,6,-1
 255 509 l 1,7,8
 336 509 336 509 375 490 c 0,9,10
 396 479 396 479 412 468 c 128,-1,11
 428 457 428 457 437 439 c 128,-1,12
 446 421 446 421 452 407.5 c 128,-1,13
 458 394 458 394 460 371 c 0,14,15
 463 336 463 336 463 298 c 2,16,-1
 463 0 l 1,17,18
 359 -10 359 -10 297 -10 c 0,19,20
 78 -10 78 -10 78 169 c 2,21,-1
 78 252 l 2,22,23
 78 349 78 349 150 384 c 0,24,25
 187 402 187 402 239 402 c 0,0,1
176 42 m 128,-1,27
 205 27 205 27 242 22.5 c 128,-1,28
 279 18 279 18 316 18 c 128,-1,29
 353 18 353 18 431 28 c 1,30,-1
 431 316 l 1,31,32
 348 367 348 367 238 372 c 0,33,34
 234 373 234 373 230 373 c 0,35,36
 181 373 181 373 145.5 343 c 128,-1,37
 110 313 110 313 110 249 c 2,38,-1
 110 162 l 2,39,40
 110 118 110 118 128.5 87.5 c 128,-1,26
 147 57 147 57 176 42 c 128,-1,27
422 656 m 1,41,-1
 422 651 l 2,42,43
 422 604 422 604 389 571 c 128,-1,44
 356 538 356 538 309 538 c 128,-1,45
 262 538 262 538 229 571 c 128,-1,46
 196 604 196 604 196 651 c 2,47,-1
 196 656 l 1,48,-1
 225 656 l 1,49,-1
 225 651 l 2,50,51
 225 620 225 620 248.5 593.5 c 128,-1,52
 272 567 272 567 308.5 567 c 128,-1,53
 345 567 345 567 369 593.5 c 128,-1,54
 393 620 393 620 393 651 c 2,55,-1
 393 656 l 1,56,-1
 422 656 l 1,41,-1
EndSplineSet
EndChar

StartChar: Aogonek
Encoding: 260 260 186
Width: 676
GlyphClass: 2
Flags: W
LayerCount: 2
Fore
SplineSet
616 -139 m 1,0,-1
 639 -163 l 1,1,2
 607 -213 607 -213 543 -213 c 0,3,4
 526 -213 526 -213 507.5 -208.5 c 128,-1,5
 489 -204 489 -204 469.5 -183.5 c 128,-1,6
 450 -163 450 -163 450 -129 c 0,7,8
 450 -64 450 -64 546 0 c 1,9,-1
 548 0 l 1,10,-1
 457 268 l 1,11,-1
 203 268 l 1,12,-1
 111 0 l 1,13,-1
 78 0 l 1,14,-1
 316 700 l 1,15,-1
 343 700 l 1,16,-1
 583 0 l 1,17,-1
 582 0 l 1,18,19
 480 -75 480 -75 480 -130 c 0,20,21
 480 -153 480 -153 497.5 -168.5 c 128,-1,22
 515 -184 515 -184 542 -184 c 0,23,24
 588 -184 588 -184 616 -139 c 1,0,-1
447 300 m 1,25,-1
 329 644 l 1,26,-1
 213 300 l 1,27,-1
 447 300 l 1,25,-1
EndSplineSet
EndChar

StartChar: aogonek
Encoding: 261 261 187
Width: 513
GlyphClass: 2
Flags: W
LayerCount: 2
Fore
SplineSet
198 402 m 0,0,1
 309 402 309 402 390 346 c 1,2,3
 390 482 390 482 217 482 c 0,4,5
 215 482 215 482 212 482 c 1,6,-1
 214 509 l 1,7,8
 295 509 295 509 334 490 c 0,9,10
 355 479 355 479 371 468 c 128,-1,11
 387 457 387 457 396 439 c 128,-1,12
 405 421 405 421 411 407.5 c 128,-1,13
 417 394 417 394 419 371 c 0,14,15
 422 336 422 336 422 298 c 2,16,-1
 422 0 l 1,17,-1
 420 0 l 1,18,19
 318 -75 318 -75 318 -130 c 0,20,21
 318 -153 318 -153 335.5 -168.5 c 128,-1,22
 353 -184 353 -184 380 -184 c 0,23,24
 426 -184 426 -184 454 -139 c 1,25,-1
 477 -163 l 1,26,27
 445 -213 445 -213 381 -213 c 0,28,29
 364 -213 364 -213 345.5 -208.5 c 128,-1,30
 327 -204 327 -204 307.5 -183.5 c 128,-1,31
 288 -163 288 -163 288 -129 c 0,32,33
 288 -67 288 -67 377 -4 c 1,34,35
 305 -10 305 -10 275.5 -10 c 128,-1,36
 246 -10 246 -10 212 -8.5 c 128,-1,37
 178 -7 178 -7 148.5 4.5 c 128,-1,38
 119 16 119 16 92 35 c 0,39,40
 37 73 37 73 37 169 c 2,41,-1
 37 252 l 2,42,43
 37 349 37 349 109 384 c 0,44,45
 146 402 146 402 198 402 c 0,0,1
135 42 m 128,-1,47
 164 27 164 27 201 22.5 c 128,-1,48
 238 18 238 18 275 18 c 128,-1,49
 312 18 312 18 390 28 c 1,50,-1
 390 316 l 1,51,52
 307 367 307 367 196 372 c 0,53,54
 193 373 193 373 189 373 c 0,55,56
 140 373 140 373 104.5 343 c 128,-1,57
 69 313 69 313 69 249 c 2,58,-1
 69 162 l 2,59,60
 69 118 69 118 87.5 87.5 c 128,-1,46
 106 57 106 57 135 42 c 128,-1,47
EndSplineSet
EndChar

StartChar: Cacute
Encoding: 262 262 188
Width: 432
GlyphClass: 2
Flags: W
LayerCount: 2
Fore
SplineSet
427 23 m 1,0,1
 342 -10 342 -10 265 -10 c 0,2,3
 249 -10 249 -10 216.5 -7 c 128,-1,4
 184 -4 184 -4 147.5 15.5 c 128,-1,5
 111 35 111 35 88.5 77.5 c 128,-1,6
 66 120 66 120 66 183 c 2,7,-1
 66 504 l 2,8,9
 66 580 66 580 87.5 619 c 128,-1,10
 109 658 109 658 153 685 c 1,11,12
 198 710 198 710 261 710 c 0,13,14
 340 710 340 710 402 677 c 1,15,-1
 391 653 l 1,16,17
 325 680 325 680 268 680 c 0,18,19
 187 680 187 680 141 637 c 0,20,21
 123 620 123 620 110.5 588 c 128,-1,22
 98 556 98 556 98 513 c 2,23,-1
 98 185 l 2,24,25
 98 67 98 67 187 32 c 0,26,27
 222 18 222 18 277 18 c 128,-1,28
 332 18 332 18 419 51 c 1,29,-1
 427 23 l 1,0,1
262 734 m 1,30,-1
 234 734 l 1,31,-1
 288 858 l 2,32,33
 295 875 295 875 308 875 c 0,34,35
 326 875 326 875 330 859 c 0,36,37
 331 856 331 856 331 851 c 128,-1,38
 331 846 331 846 327 840 c 2,39,-1
 262 734 l 1,30,-1
EndSplineSet
EndChar

StartChar: cacute
Encoding: 263 263 189
Width: 437
GlyphClass: 2
Flags: W
LayerCount: 2
Fore
SplineSet
285 19 m 0,0,1
 336 19 336 19 393 34 c 1,2,-1
 400 6 l 1,3,4
 336 -11 336 -11 284 -11 c 128,-1,5
 232 -11 232 -11 182 5 c 0,6,7
 78 39 78 39 78 180 c 2,8,-1
 78 308 l 2,9,10
 78 379 78 379 106 427 c 0,11,12
 154 510 154 510 264 510 c 0,13,14
 330 510 330 510 398 478 c 1,15,-1
 388 451 l 1,16,17
 328 480 328 480 280 480 c 128,-1,18
 232 480 232 480 196.5 467.5 c 128,-1,19
 161 455 161 455 135.5 414.5 c 128,-1,20
 110 374 110 374 110 314 c 2,21,-1
 110 169 l 2,22,23
 110 19 110 19 285 19 c 0,0,1
237 538 m 1,24,-1
 209 538 l 1,25,-1
 263 662 l 2,26,27
 270 679 270 679 283 679 c 0,28,29
 301 679 301 679 306 663 c 0,30,31
 306 660 306 660 306 655 c 128,-1,32
 306 650 306 650 302 644 c 2,33,-1
 237 538 l 1,24,-1
EndSplineSet
EndChar

StartChar: Ccircumflex
Encoding: 264 264 190
Width: 432
GlyphClass: 2
Flags: W
LayerCount: 2
Fore
SplineSet
397 748 m 1,0,-1
 278 867 l 1,1,-1
 155 748 l 1,2,-1
 131 772 l 1,3,-1
 279 913 l 1,4,-1
 421 772 l 1,5,-1
 397 748 l 1,0,-1
427 23 m 1,6,7
 342 -10 342 -10 265 -10 c 0,8,9
 249 -10 249 -10 216.5 -7 c 128,-1,10
 184 -4 184 -4 147.5 15.5 c 128,-1,11
 111 35 111 35 88.5 77.5 c 128,-1,12
 66 120 66 120 66 183 c 2,13,-1
 66 504 l 2,14,15
 66 580 66 580 87.5 619 c 128,-1,16
 109 658 109 658 153 685 c 1,17,18
 198 710 198 710 261 710 c 0,19,20
 340 710 340 710 402 677 c 1,21,-1
 391 653 l 1,22,23
 325 680 325 680 268 680 c 0,24,25
 187 680 187 680 141 637 c 0,26,27
 123 620 123 620 110.5 588 c 128,-1,28
 98 556 98 556 98 513 c 2,29,-1
 98 185 l 2,30,31
 98 67 98 67 187 32 c 0,32,33
 222 18 222 18 277 18 c 128,-1,34
 332 18 332 18 419 51 c 1,35,-1
 427 23 l 1,6,7
EndSplineSet
EndChar

StartChar: ccircumflex
Encoding: 265 265 191
Width: 469
GlyphClass: 2
Flags: W
LayerCount: 2
Fore
SplineSet
285 19 m 0,0,1
 336 19 336 19 393 34 c 1,2,-1
 400 6 l 1,3,4
 336 -11 336 -11 284 -11 c 128,-1,5
 232 -11 232 -11 182 5 c 0,6,7
 78 39 78 39 78 180 c 2,8,-1
 78 308 l 2,9,10
 78 379 78 379 106 427 c 0,11,12
 154 510 154 510 264 510 c 0,13,14
 330 510 330 510 398 478 c 1,15,-1
 388 451 l 1,16,17
 328 480 328 480 280 480 c 128,-1,18
 232 480 232 480 196.5 467.5 c 128,-1,19
 161 455 161 455 135.5 414.5 c 128,-1,20
 110 374 110 374 110 314 c 2,21,-1
 110 169 l 2,22,23
 110 19 110 19 285 19 c 0,0,1
385 556 m 1,24,-1
 266 675 l 1,25,-1
 143 556 l 1,26,-1
 119 580 l 1,27,-1
 267 721 l 1,28,-1
 409 580 l 1,29,-1
 385 556 l 1,24,-1
EndSplineSet
EndChar

StartChar: Cdotaccent
Encoding: 266 266 192
Width: 432
GlyphClass: 2
Flags: W
LayerCount: 2
Fore
SplineSet
427 23 m 1,0,1
 342 -10 342 -10 265 -10 c 0,2,3
 249 -10 249 -10 216.5 -7 c 128,-1,4
 184 -4 184 -4 147.5 15.5 c 128,-1,5
 111 35 111 35 88.5 77.5 c 128,-1,6
 66 120 66 120 66 183 c 2,7,-1
 66 504 l 2,8,9
 66 580 66 580 87.5 619 c 128,-1,10
 109 658 109 658 153 685 c 1,11,12
 198 710 198 710 261 710 c 0,13,14
 340 710 340 710 402 677 c 1,15,-1
 391 653 l 1,16,17
 325 680 325 680 268 680 c 0,18,19
 187 680 187 680 141 637 c 0,20,21
 123 620 123 620 110.5 588 c 128,-1,22
 98 556 98 556 98 513 c 2,23,-1
 98 185 l 2,24,25
 98 67 98 67 187 32 c 0,26,27
 222 18 222 18 277 18 c 128,-1,28
 332 18 332 18 419 51 c 1,29,-1
 427 23 l 1,0,1
280 762 m 128,-1,31
 274 756 274 756 265.5 756 c 128,-1,32
 257 756 257 756 251 762 c 128,-1,33
 245 768 245 768 245 776.5 c 128,-1,34
 245 785 245 785 251 791 c 128,-1,35
 257 797 257 797 265.5 797 c 128,-1,36
 274 797 274 797 280 791 c 128,-1,37
 286 785 286 785 286 776.5 c 128,-1,30
 286 768 286 768 280 762 c 128,-1,31
EndSplineSet
EndChar

StartChar: cdotaccent
Encoding: 267 267 193
Width: 437
GlyphClass: 2
Flags: W
LayerCount: 2
Fore
SplineSet
285 19 m 0,0,1
 336 19 336 19 393 34 c 1,2,-1
 400 6 l 1,3,4
 336 -11 336 -11 284 -11 c 128,-1,5
 232 -11 232 -11 182 5 c 0,6,7
 78 39 78 39 78 180 c 2,8,-1
 78 308 l 2,9,10
 78 379 78 379 106 427 c 0,11,12
 154 510 154 510 264 510 c 0,13,14
 330 510 330 510 398 478 c 1,15,-1
 388 451 l 1,16,17
 328 480 328 480 280 480 c 128,-1,18
 232 480 232 480 196.5 467.5 c 128,-1,19
 161 455 161 455 135.5 414.5 c 128,-1,20
 110 374 110 374 110 314 c 2,21,-1
 110 169 l 2,22,23
 110 19 110 19 285 19 c 0,0,1
279 570 m 128,-1,25
 273 564 273 564 264.5 564 c 128,-1,26
 256 564 256 564 250 570 c 128,-1,27
 244 576 244 576 244 584.5 c 128,-1,28
 244 593 244 593 250 599 c 128,-1,29
 256 605 256 605 264.5 605 c 128,-1,30
 273 605 273 605 279 599 c 128,-1,31
 285 593 285 593 285 584.5 c 128,-1,24
 285 576 285 576 279 570 c 128,-1,25
EndSplineSet
EndChar

StartChar: Ccaron
Encoding: 268 268 194
Width: 432
GlyphClass: 2
Flags: W
LayerCount: 2
Fore
SplineSet
427 23 m 1,0,1
 342 -10 342 -10 265 -10 c 0,2,3
 249 -10 249 -10 216.5 -7 c 128,-1,4
 184 -4 184 -4 147.5 15.5 c 128,-1,5
 111 35 111 35 88.5 77.5 c 128,-1,6
 66 120 66 120 66 183 c 2,7,-1
 66 504 l 2,8,9
 66 580 66 580 87.5 619 c 128,-1,10
 109 658 109 658 153 685 c 1,11,12
 198 710 198 710 261 710 c 0,13,14
 340 710 340 710 402 677 c 1,15,-1
 391 653 l 1,16,17
 325 680 325 680 268 680 c 0,18,19
 187 680 187 680 141 637 c 0,20,21
 123 620 123 620 110.5 588 c 128,-1,22
 98 556 98 556 98 513 c 2,23,-1
 98 185 l 2,24,25
 98 67 98 67 187 32 c 0,26,27
 222 18 222 18 277 18 c 128,-1,28
 332 18 332 18 419 51 c 1,29,-1
 427 23 l 1,0,1
398 874 m 1,30,-1
 256 733 l 1,31,-1
 108 874 l 1,32,-1
 131 897 l 1,33,-1
 255 779 l 1,34,-1
 375 897 l 1,35,-1
 398 874 l 1,30,-1
EndSplineSet
EndChar

StartChar: ccaron
Encoding: 269 269 195
Width: 438
GlyphClass: 2
Flags: W
LayerCount: 2
Fore
SplineSet
285 19 m 0,0,1
 336 19 336 19 393 34 c 1,2,-1
 400 6 l 1,3,4
 336 -11 336 -11 284 -11 c 128,-1,5
 232 -11 232 -11 182 5 c 0,6,7
 78 39 78 39 78 180 c 2,8,-1
 78 308 l 2,9,10
 78 379 78 379 106 427 c 0,11,12
 154 510 154 510 264 510 c 0,13,14
 330 510 330 510 398 478 c 1,15,-1
 388 451 l 1,16,17
 328 480 328 480 280 480 c 128,-1,18
 232 480 232 480 196.5 467.5 c 128,-1,19
 161 455 161 455 135.5 414.5 c 128,-1,20
 110 374 110 374 110 314 c 2,21,-1
 110 169 l 2,22,23
 110 19 110 19 285 19 c 0,0,1
401 684 m 1,24,-1
 259 543 l 1,25,-1
 111 684 l 1,26,-1
 134 707 l 1,27,-1
 258 589 l 1,28,-1
 378 707 l 1,29,-1
 401 684 l 1,24,-1
EndSplineSet
EndChar

StartChar: Dcaron
Encoding: 270 270 196
Width: 576
GlyphClass: 2
Flags: W
LayerCount: 2
Fore
SplineSet
286 0 m 2,0,-1
 78 0 l 1,1,-1
 78 701 l 1,2,-1
 266 701 l 2,3,4
 379 701 379 701 438.5 639 c 128,-1,5
 498 577 498 577 498 474 c 2,6,-1
 498 200 l 2,7,8
 498 0 498 0 286 0 c 2,0,-1
466 206 m 2,9,-1
 466 474 l 2,10,11
 466 572 466 572 410.5 620.5 c 128,-1,12
 355 669 355 669 276 669 c 2,13,-1
 110 669 l 1,14,-1
 110 30 l 1,15,-1
 274 30 l 2,16,17
 302 30 302 30 323 32 c 128,-1,18
 344 34 344 34 373 44.5 c 128,-1,19
 402 55 402 55 420.5 72.5 c 128,-1,20
 439 90 439 90 452.5 124.5 c 128,-1,21
 466 159 466 159 466 206 c 2,9,-1
416 875 m 1,22,-1
 274 734 l 1,23,-1
 126 875 l 1,24,-1
 149 898 l 1,25,-1
 273 780 l 1,26,-1
 393 898 l 1,27,-1
 416 875 l 1,22,-1
EndSplineSet
EndChar

StartChar: dcaron
Encoding: 271 271 197
Width: 607
GlyphClass: 2
Flags: W
LayerCount: 2
Fore
SplineSet
263 509 m 0,0,1
 354 509 354 509 415 476 c 1,2,-1
 415 700 l 1,3,-1
 447 700 l 1,4,-1
 447 0 l 1,5,6
 361 -12 361 -12 288 -12 c 128,-1,7
 215 -12 215 -12 156 18 c 0,8,9
 78 58 78 58 78 157 c 2,10,-1
 78 346 l 2,11,12
 78 451 78 451 163 490 c 0,13,14
 204 509 204 509 263 509 c 0,0,1
304 18 m 0,15,16
 356 18 356 18 415 30 c 1,17,-1
 415 446 l 1,18,19
 352 480 352 480 269 480 c 0,20,21
 227 480 227 480 191.5 469 c 128,-1,22
 156 458 156 458 133 425.5 c 128,-1,23
 110 393 110 393 110 343 c 2,24,-1
 110 156 l 2,25,26
 110 18 110 18 304 18 c 0,15,16
508 560 m 1,27,-1
 483 577 l 1,28,29
 507 590 507 590 522.5 606.5 c 128,-1,30
 538 623 538 623 542 632 c 2,31,-1
 546 642 l 1,32,-1
 541 643 l 1,33,34
 526 650 526 650 526 662 c 128,-1,35
 526 674 526 674 532.5 680 c 128,-1,36
 539 686 539 686 547.5 686 c 128,-1,37
 556 686 556 686 563 679 c 128,-1,38
 570 672 570 672 570 663 c 0,39,40
 570 611 570 611 508 560 c 1,27,-1
EndSplineSet
EndChar

StartChar: Dcroat
Encoding: 272 272 198
Width: 576
GlyphClass: 2
Flags: W
LayerCount: 2
Fore
SplineSet
286 0 m 2,0,-1
 78 0 l 1,1,-1
 78 701 l 1,2,-1
 266 701 l 2,3,4
 379 701 379 701 438.5 639 c 128,-1,5
 498 577 498 577 498 474 c 2,6,-1
 498 200 l 2,7,8
 498 0 498 0 286 0 c 2,0,-1
466 206 m 2,9,-1
 466 474 l 2,10,11
 466 572 466 572 410.5 620.5 c 128,-1,12
 355 669 355 669 276 669 c 2,13,-1
 110 669 l 1,14,-1
 110 30 l 1,15,-1
 274 30 l 2,16,17
 302 30 302 30 323 32 c 128,-1,18
 344 34 344 34 373 44.5 c 128,-1,19
 402 55 402 55 420.5 72.5 c 128,-1,20
 439 90 439 90 452.5 124.5 c 128,-1,21
 466 159 466 159 466 206 c 2,9,-1
392 755 m 1,22,-1
 175 755 l 1,23,-1
 175 788 l 1,24,-1
 392 788 l 1,25,-1
 392 755 l 1,22,-1
EndSplineSet
EndChar

StartChar: dcroat
Encoding: 273 273 199
Width: 545
GlyphClass: 2
Flags: W
LayerCount: 2
Fore
SplineSet
263 509 m 0,0,1
 354 509 354 509 415 476 c 1,2,-1
 415 585 l 1,3,-1
 274 585 l 1,4,-1
 274 617 l 1,5,-1
 415 617 l 1,6,-1
 415 700 l 1,7,-1
 447 700 l 1,8,-1
 447 617 l 1,9,-1
 508 617 l 1,10,-1
 508 585 l 1,11,-1
 447 585 l 1,12,-1
 447 0 l 1,13,14
 361 -12 361 -12 288 -12 c 128,-1,15
 215 -12 215 -12 156 18 c 0,16,17
 78 58 78 58 78 157 c 2,18,-1
 78 346 l 2,19,20
 78 451 78 451 163 490 c 0,21,22
 204 509 204 509 263 509 c 0,0,1
304 18 m 0,23,24
 356 18 356 18 415 30 c 1,25,-1
 415 446 l 1,26,27
 352 480 352 480 269 480 c 0,28,29
 227 480 227 480 191.5 469 c 128,-1,30
 156 458 156 458 133 425.5 c 128,-1,31
 110 393 110 393 110 343 c 2,32,-1
 110 156 l 2,33,34
 110 18 110 18 304 18 c 0,23,24
EndSplineSet
EndChar

StartChar: Emacron
Encoding: 274 274 200
Width: 465
GlyphClass: 2
Flags: W
LayerCount: 2
Fore
SplineSet
410 0 m 1,0,-1
 78 0 l 1,1,-1
 78 700 l 1,2,-1
 412 700 l 1,3,-1
 412 669 l 1,4,-1
 110 669 l 1,5,-1
 110 413 l 1,6,-1
 325 413 l 1,7,-1
 314 381 l 1,8,-1
 110 381 l 1,9,-1
 110 30 l 1,10,-1
 410 30 l 1,11,-1
 410 0 l 1,0,-1
352 755 m 1,12,-1
 135 755 l 1,13,-1
 135 788 l 1,14,-1
 352 788 l 1,15,-1
 352 755 l 1,12,-1
EndSplineSet
EndChar

StartChar: emacron
Encoding: 275 275 201
Width: 450
GlyphClass: 2
Flags: W
LayerCount: 2
Fore
SplineSet
198 15 m 0,0,1
 273 15 273 15 356 61 c 1,2,-1
 370 35 l 1,3,4
 293 -12 293 -12 209 -12 c 0,5,6
 35 -12 35 -12 35 134 c 2,7,-1
 35 339 l 2,8,9
 35 420 35 420 85.5 465 c 128,-1,10
 136 510 136 510 219 510 c 128,-1,11
 302 510 302 510 348.5 465.5 c 128,-1,12
 395 421 395 421 395 342 c 2,13,-1
 395 235 l 1,14,-1
 67 218 l 1,15,-1
 67 133 l 2,16,17
 67 71 67 71 106.5 43 c 128,-1,18
 146 15 146 15 198 15 c 0,0,1
363 265 m 1,19,-1
 363 345 l 2,20,21
 363 418 363 418 319 449.5 c 128,-1,22
 275 481 275 481 215 481 c 128,-1,23
 155 481 155 481 111 446.5 c 128,-1,24
 67 412 67 412 67 339 c 2,25,-1
 67 249 l 1,26,-1
 363 265 l 1,19,-1
326 563 m 1,27,-1
 109 563 l 1,28,-1
 109 596 l 1,29,-1
 326 596 l 1,30,-1
 326 563 l 1,27,-1
EndSplineSet
EndChar

StartChar: Edotaccent
Encoding: 278 278 202
Width: 465
GlyphClass: 2
Flags: W
LayerCount: 2
Fore
SplineSet
410 0 m 1,0,-1
 78 0 l 1,1,-1
 78 700 l 1,2,-1
 412 700 l 1,3,-1
 412 669 l 1,4,-1
 110 669 l 1,5,-1
 110 413 l 1,6,-1
 325 413 l 1,7,-1
 314 381 l 1,8,-1
 110 381 l 1,9,-1
 110 30 l 1,10,-1
 410 30 l 1,11,-1
 410 0 l 1,0,-1
270 762 m 128,-1,13
 264 756 264 756 255.5 756 c 128,-1,14
 247 756 247 756 241 762 c 128,-1,15
 235 768 235 768 235 776.5 c 128,-1,16
 235 785 235 785 241 791 c 128,-1,17
 247 797 247 797 255.5 797 c 128,-1,18
 264 797 264 797 270 791 c 128,-1,19
 276 785 276 785 276 776.5 c 128,-1,12
 276 768 276 768 270 762 c 128,-1,13
EndSplineSet
EndChar

StartChar: edotaccent
Encoding: 279 279 203
Width: 475
GlyphClass: 2
Flags: W
LayerCount: 2
Fore
SplineSet
241 15 m 0,0,1
 316 15 316 15 399 61 c 1,2,-1
 413 35 l 1,3,4
 336 -12 336 -12 252 -12 c 0,5,6
 78 -12 78 -12 78 134 c 2,7,-1
 78 339 l 2,8,9
 78 420 78 420 128.5 465 c 128,-1,10
 179 510 179 510 262 510 c 128,-1,11
 345 510 345 510 391.5 465.5 c 128,-1,12
 438 421 438 421 438 342 c 2,13,-1
 438 235 l 1,14,-1
 110 218 l 1,15,-1
 110 133 l 2,16,17
 110 71 110 71 149.5 43 c 128,-1,18
 189 15 189 15 241 15 c 0,0,1
406 265 m 1,19,-1
 406 345 l 2,20,21
 406 418 406 418 362 449.5 c 128,-1,22
 318 481 318 481 258 481 c 128,-1,23
 198 481 198 481 154 446.5 c 128,-1,24
 110 412 110 412 110 339 c 2,25,-1
 110 249 l 1,26,-1
 406 265 l 1,19,-1
284 570 m 128,-1,28
 278 564 278 564 269.5 564 c 128,-1,29
 261 564 261 564 255 570 c 128,-1,30
 249 576 249 576 249 584.5 c 128,-1,31
 249 593 249 593 255 599 c 128,-1,32
 261 605 261 605 269.5 605 c 128,-1,33
 278 605 278 605 284 599 c 128,-1,34
 290 593 290 593 290 584.5 c 128,-1,27
 290 576 290 576 284 570 c 128,-1,28
EndSplineSet
EndChar

StartChar: Eogonek
Encoding: 280 280 204
Width: 520
GlyphClass: 2
Flags: W
LayerCount: 2
Fore
SplineSet
444 -139 m 1,0,-1
 467 -163 l 1,1,2
 435 -213 435 -213 371 -213 c 0,3,4
 354 -213 354 -213 335.5 -208.5 c 128,-1,5
 317 -204 317 -204 297.5 -183.5 c 128,-1,6
 278 -163 278 -163 278 -129 c 0,7,8
 278 -64 278 -64 374 0 c 1,9,-1
 78 0 l 1,10,-1
 78 700 l 1,11,-1
 412 700 l 1,12,-1
 412 669 l 1,13,-1
 110 669 l 1,14,-1
 110 413 l 1,15,-1
 325 413 l 1,16,-1
 314 381 l 1,17,-1
 110 381 l 1,18,-1
 110 30 l 1,19,-1
 410 30 l 1,20,-1
 410 0 l 1,21,22
 308 -75 308 -75 308 -130 c 0,23,24
 308 -153 308 -153 325.5 -168.5 c 128,-1,25
 343 -184 343 -184 370 -184 c 0,26,27
 416 -184 416 -184 444 -139 c 1,0,-1
EndSplineSet
EndChar

StartChar: eogonek
Encoding: 281 281 205
Width: 434
GlyphClass: 2
Flags: W
LayerCount: 2
Fore
SplineSet
198 15 m 0,0,1
 273 15 273 15 356 61 c 1,2,-1
 370 35 l 1,3,4
 313 0 313 0 237 -10 c 1,5,6
 148 -78 148 -78 148 -130 c 0,7,8
 148 -153 148 -153 165.5 -168.5 c 128,-1,9
 183 -184 183 -184 210 -184 c 0,10,11
 256 -184 256 -184 284 -139 c 1,12,-1
 307 -163 l 1,13,14
 275 -213 275 -213 211 -213 c 0,15,16
 194 -213 194 -213 175.5 -208.5 c 128,-1,17
 157 -204 157 -204 137.5 -183.5 c 128,-1,18
 118 -163 118 -163 118 -129 c 0,19,20
 118 -70 118 -70 197 -12 c 1,21,22
 122 -12 122 -12 78.5 24.5 c 128,-1,23
 35 61 35 61 35 134 c 2,24,-1
 35 339 l 2,25,26
 35 420 35 420 85.5 465 c 128,-1,27
 136 510 136 510 219 510 c 128,-1,28
 302 510 302 510 348.5 465.5 c 128,-1,29
 395 421 395 421 395 342 c 2,30,-1
 395 235 l 1,31,-1
 67 218 l 1,32,-1
 67 133 l 2,33,34
 67 71 67 71 106.5 43 c 128,-1,35
 146 15 146 15 198 15 c 0,0,1
363 265 m 1,36,-1
 363 345 l 2,37,38
 363 418 363 418 319 449.5 c 128,-1,39
 275 481 275 481 215 481 c 128,-1,40
 155 481 155 481 111 446.5 c 128,-1,41
 67 412 67 412 67 339 c 2,42,-1
 67 249 l 1,43,-1
 363 265 l 1,36,-1
EndSplineSet
EndChar

StartChar: Ecaron
Encoding: 282 282 206
Width: 465
GlyphClass: 2
Flags: W
LayerCount: 2
Fore
SplineSet
410 0 m 1,0,-1
 78 0 l 1,1,-1
 78 700 l 1,2,-1
 412 700 l 1,3,-1
 412 669 l 1,4,-1
 110 669 l 1,5,-1
 110 413 l 1,6,-1
 325 413 l 1,7,-1
 314 381 l 1,8,-1
 110 381 l 1,9,-1
 110 30 l 1,10,-1
 410 30 l 1,11,-1
 410 0 l 1,0,-1
391 875 m 1,12,-1
 249 734 l 1,13,-1
 101 875 l 1,14,-1
 124 898 l 1,15,-1
 248 780 l 1,16,-1
 368 898 l 1,17,-1
 391 875 l 1,12,-1
EndSplineSet
EndChar

StartChar: ecaron
Encoding: 283 283 207
Width: 475
GlyphClass: 2
Flags: W
LayerCount: 2
Fore
SplineSet
241 15 m 0,0,1
 316 15 316 15 399 61 c 1,2,-1
 413 35 l 1,3,4
 336 -12 336 -12 252 -12 c 0,5,6
 78 -12 78 -12 78 134 c 2,7,-1
 78 339 l 2,8,9
 78 420 78 420 128.5 465 c 128,-1,10
 179 510 179 510 262 510 c 128,-1,11
 345 510 345 510 391.5 465.5 c 128,-1,12
 438 421 438 421 438 342 c 2,13,-1
 438 235 l 1,14,-1
 110 218 l 1,15,-1
 110 133 l 2,16,17
 110 71 110 71 149.5 43 c 128,-1,18
 189 15 189 15 241 15 c 0,0,1
406 265 m 1,19,-1
 406 345 l 2,20,21
 406 418 406 418 362 449.5 c 128,-1,22
 318 481 318 481 258 481 c 128,-1,23
 198 481 198 481 154 446.5 c 128,-1,24
 110 412 110 412 110 339 c 2,25,-1
 110 249 l 1,26,-1
 406 265 l 1,19,-1
407 683 m 1,27,-1
 265 542 l 1,28,-1
 117 683 l 1,29,-1
 140 706 l 1,30,-1
 264 588 l 1,31,-1
 384 706 l 1,32,-1
 407 683 l 1,27,-1
EndSplineSet
EndChar

StartChar: Gcircumflex
Encoding: 284 284 208
Width: 537
GlyphClass: 2
Flags: W
LayerCount: 2
Fore
SplineSet
391 652 m 1,0,1
 320 680 320 680 265 680 c 0,2,3
 225 680 225 680 193 667.5 c 128,-1,4
 161 655 161 655 142.5 637 c 128,-1,5
 124 619 124 619 110.5 584 c 128,-1,6
 97 549 97 549 97 502 c 2,7,-1
 97 187 l 2,8,9
 97 112 97 112 146 66.5 c 128,-1,10
 195 21 195 21 278.5 21 c 128,-1,11
 362 21 362 21 403.5 67.5 c 128,-1,12
 445 114 445 114 445 183 c 2,13,-1
 445 268 l 1,14,-1
 350 268 l 1,15,-1
 338 300 l 1,16,-1
 476 300 l 1,17,-1
 476 0 l 1,18,-1
 449 0 l 1,19,-1
 444 72 l 1,20,21
 398 -10 398 -10 276 -10 c 0,22,23
 188 -10 188 -10 126.5 40 c 128,-1,24
 65 90 65 90 65 189 c 2,25,-1
 65 503 l 2,26,27
 65 631 65 631 152 684 c 1,28,29
 197 709 197 709 259 709 c 0,30,31
 336 709 336 709 401 676 c 1,32,-1
 391 652 l 1,0,1
400 748 m 1,33,-1
 281 867 l 1,34,-1
 158 748 l 1,35,-1
 134 772 l 1,36,-1
 282 913 l 1,37,-1
 424 772 l 1,38,-1
 400 748 l 1,33,-1
EndSplineSet
EndChar

StartChar: gcircumflex
Encoding: 285 285 209
Width: 493
GlyphClass: 2
Flags: W
LayerCount: 2
Fore
SplineSet
392 556 m 1,0,-1
 273 675 l 1,1,-1
 150 556 l 1,2,-1
 126 580 l 1,3,-1
 274 721 l 1,4,-1
 416 580 l 1,5,-1
 392 556 l 1,0,-1
348 -210 m 1,6,-1
 339 -183 l 1,7,8
 380 -168 380 -168 401.5 -142.5 c 128,-1,9
 423 -117 423 -117 423 -63 c 2,10,-1
 423 70 l 1,11,12
 370 -12 370 -12 264 -12 c 0,13,14
 176 -12 176 -12 127 36 c 128,-1,15
 78 84 78 84 78 176 c 2,16,-1
 78 325 l 2,17,18
 78 413 78 413 130.5 461.5 c 128,-1,19
 183 510 183 510 270 510 c 0,20,21
 376 510 376 510 424 439 c 1,22,-1
 423 501 l 1,23,-1
 455 501 l 1,24,-1
 455 -64 l 2,25,26
 455 -124 455 -124 430 -158 c 128,-1,27
 405 -192 405 -192 348 -210 c 1,6,-1
423 165 m 2,28,-1
 423 376 l 1,29,30
 410 429 410 429 367.5 454.5 c 128,-1,31
 325 480 325 480 269 480 c 0,32,33
 215 480 215 480 168 450 c 0,34,35
 142 434 142 434 126 400.5 c 128,-1,36
 110 367 110 367 110 320 c 2,37,-1
 110 167 l 2,38,39
 110 98 110 98 150 58 c 128,-1,40
 190 18 190 18 257.5 18 c 128,-1,41
 325 18 325 18 374 55 c 128,-1,42
 423 92 423 92 423 165 c 2,28,-1
EndSplineSet
EndChar

StartChar: Gbreve
Encoding: 286 286 210
Width: 537
GlyphClass: 2
Flags: W
LayerCount: 2
Fore
SplineSet
391 652 m 1,0,1
 320 680 320 680 265 680 c 0,2,3
 225 680 225 680 193 667.5 c 128,-1,4
 161 655 161 655 142.5 637 c 128,-1,5
 124 619 124 619 110.5 584 c 128,-1,6
 97 549 97 549 97 502 c 2,7,-1
 97 187 l 2,8,9
 97 112 97 112 146 66.5 c 128,-1,10
 195 21 195 21 278.5 21 c 128,-1,11
 362 21 362 21 403.5 67.5 c 128,-1,12
 445 114 445 114 445 183 c 2,13,-1
 445 268 l 1,14,-1
 350 268 l 1,15,-1
 338 300 l 1,16,-1
 476 300 l 1,17,-1
 476 0 l 1,18,-1
 449 0 l 1,19,-1
 444 72 l 1,20,21
 398 -10 398 -10 276 -10 c 0,22,23
 188 -10 188 -10 126.5 40 c 128,-1,24
 65 90 65 90 65 189 c 2,25,-1
 65 503 l 2,26,27
 65 631 65 631 152 684 c 1,28,29
 197 709 197 709 259 709 c 0,30,31
 336 709 336 709 401 676 c 1,32,-1
 391 652 l 1,0,1
389 846 m 1,33,-1
 389 841 l 2,34,35
 389 794 389 794 355.5 761 c 128,-1,36
 322 728 322 728 276 728 c 128,-1,37
 230 728 230 728 196.5 761 c 128,-1,38
 163 794 163 794 163 841 c 2,39,-1
 163 846 l 1,40,-1
 192 846 l 1,41,-1
 192 841 l 2,42,43
 192 810 192 810 215.5 783.5 c 128,-1,44
 239 757 239 757 275.5 757 c 128,-1,45
 312 757 312 757 336 783.5 c 128,-1,46
 360 810 360 810 360 841 c 2,47,-1
 360 846 l 1,48,-1
 389 846 l 1,33,-1
EndSplineSet
EndChar

StartChar: gbreve
Encoding: 287 287 211
Width: 492
GlyphClass: 2
Flags: W
LayerCount: 2
Fore
SplineSet
395 650 m 1,0,-1
 395 645 l 2,1,2
 395 598 395 598 361.5 565 c 128,-1,3
 328 532 328 532 282 532 c 128,-1,4
 236 532 236 532 202.5 565 c 128,-1,5
 169 598 169 598 169 645 c 2,6,-1
 169 650 l 1,7,-1
 198 650 l 1,8,-1
 198 645 l 2,9,10
 198 614 198 614 221.5 587.5 c 128,-1,11
 245 561 245 561 281.5 561 c 128,-1,12
 318 561 318 561 342 587.5 c 128,-1,13
 366 614 366 614 366 645 c 2,14,-1
 366 650 l 1,15,-1
 395 650 l 1,0,-1
348 -210 m 1,16,-1
 339 -183 l 1,17,18
 380 -168 380 -168 401.5 -142.5 c 128,-1,19
 423 -117 423 -117 423 -63 c 2,20,-1
 423 70 l 1,21,22
 370 -12 370 -12 264 -12 c 0,23,24
 176 -12 176 -12 127 36 c 128,-1,25
 78 84 78 84 78 176 c 2,26,-1
 78 325 l 2,27,28
 78 413 78 413 130.5 461.5 c 128,-1,29
 183 510 183 510 270 510 c 0,30,31
 376 510 376 510 424 439 c 1,32,-1
 423 501 l 1,33,-1
 455 501 l 1,34,-1
 455 -64 l 2,35,36
 455 -124 455 -124 430 -158 c 128,-1,37
 405 -192 405 -192 348 -210 c 1,16,-1
423 165 m 2,38,-1
 423 376 l 1,39,40
 410 429 410 429 367.5 454.5 c 128,-1,41
 325 480 325 480 269 480 c 0,42,43
 215 480 215 480 168 450 c 0,44,45
 142 434 142 434 126 400.5 c 128,-1,46
 110 367 110 367 110 320 c 2,47,-1
 110 167 l 2,48,49
 110 98 110 98 150 58 c 128,-1,50
 190 18 190 18 257.5 18 c 128,-1,51
 325 18 325 18 374 55 c 128,-1,52
 423 92 423 92 423 165 c 2,38,-1
EndSplineSet
EndChar

StartChar: Gdotaccent
Encoding: 288 288 212
Width: 566
GlyphClass: 2
Flags: W
LayerCount: 2
Fore
SplineSet
287 761 m 128,-1,1
 281 755 281 755 272.5 755 c 128,-1,2
 264 755 264 755 258 761 c 128,-1,3
 252 767 252 767 252 775.5 c 128,-1,4
 252 784 252 784 258 790 c 128,-1,5
 264 796 264 796 272.5 796 c 128,-1,6
 281 796 281 796 287 790 c 128,-1,7
 293 784 293 784 293 775.5 c 128,-1,0
 293 767 293 767 287 761 c 128,-1,1
391 652 m 1,8,9
 320 680 320 680 265 680 c 0,10,11
 225 680 225 680 193 667.5 c 128,-1,12
 161 655 161 655 142.5 637 c 128,-1,13
 124 619 124 619 110.5 584 c 128,-1,14
 97 549 97 549 97 502 c 2,15,-1
 97 187 l 2,16,17
 97 112 97 112 146 66.5 c 128,-1,18
 195 21 195 21 278.5 21 c 128,-1,19
 362 21 362 21 403.5 67.5 c 128,-1,20
 445 114 445 114 445 183 c 2,21,-1
 445 268 l 1,22,-1
 350 268 l 1,23,-1
 338 300 l 1,24,-1
 476 300 l 1,25,-1
 476 0 l 1,26,-1
 449 0 l 1,27,-1
 444 72 l 1,28,29
 398 -10 398 -10 276 -10 c 0,30,31
 188 -10 188 -10 126.5 40 c 128,-1,32
 65 90 65 90 65 189 c 2,33,-1
 65 503 l 2,34,35
 65 631 65 631 152 684 c 1,36,37
 197 709 197 709 259 709 c 0,38,39
 336 709 336 709 401 676 c 1,40,-1
 391 652 l 1,8,9
EndSplineSet
EndChar

StartChar: gdotaccent
Encoding: 289 289 213
Width: 492
GlyphClass: 2
Flags: W
LayerCount: 2
Fore
SplineSet
294 569 m 128,-1,1
 288 563 288 563 279.5 563 c 128,-1,2
 271 563 271 563 265 569 c 128,-1,3
 259 575 259 575 259 583.5 c 128,-1,4
 259 592 259 592 265 598 c 128,-1,5
 271 604 271 604 279.5 604 c 128,-1,6
 288 604 288 604 294 598 c 128,-1,7
 300 592 300 592 300 583.5 c 128,-1,0
 300 575 300 575 294 569 c 128,-1,1
348 -210 m 1,8,-1
 339 -183 l 1,9,10
 380 -168 380 -168 401.5 -142.5 c 128,-1,11
 423 -117 423 -117 423 -63 c 2,12,-1
 423 70 l 1,13,14
 370 -12 370 -12 264 -12 c 0,15,16
 176 -12 176 -12 127 36 c 128,-1,17
 78 84 78 84 78 176 c 2,18,-1
 78 325 l 2,19,20
 78 413 78 413 130.5 461.5 c 128,-1,21
 183 510 183 510 270 510 c 0,22,23
 376 510 376 510 424 439 c 1,24,-1
 423 501 l 1,25,-1
 455 501 l 1,26,-1
 455 -64 l 2,27,28
 455 -124 455 -124 430 -158 c 128,-1,29
 405 -192 405 -192 348 -210 c 1,8,-1
423 165 m 2,30,-1
 423 376 l 1,31,32
 410 429 410 429 367.5 454.5 c 128,-1,33
 325 480 325 480 269 480 c 0,34,35
 215 480 215 480 168 450 c 0,36,37
 142 434 142 434 126 400.5 c 128,-1,38
 110 367 110 367 110 320 c 2,39,-1
 110 167 l 2,40,41
 110 98 110 98 150 58 c 128,-1,42
 190 18 190 18 257.5 18 c 128,-1,43
 325 18 325 18 374 55 c 128,-1,44
 423 92 423 92 423 165 c 2,30,-1
EndSplineSet
EndChar

StartChar: Gcommaaccent
Encoding: 290 290 214
Width: 537
GlyphClass: 2
Flags: W
LayerCount: 2
Fore
SplineSet
391 652 m 1,0,1
 320 680 320 680 265 680 c 0,2,3
 225 680 225 680 193 667.5 c 128,-1,4
 161 655 161 655 142.5 637 c 128,-1,5
 124 619 124 619 110.5 584 c 128,-1,6
 97 549 97 549 97 502 c 2,7,-1
 97 187 l 2,8,9
 97 112 97 112 146 66.5 c 128,-1,10
 195 21 195 21 278.5 21 c 128,-1,11
 362 21 362 21 403.5 67.5 c 128,-1,12
 445 114 445 114 445 183 c 2,13,-1
 445 268 l 1,14,-1
 350 268 l 1,15,-1
 338 300 l 1,16,-1
 476 300 l 1,17,-1
 476 0 l 1,18,-1
 449 0 l 1,19,-1
 444 72 l 1,20,21
 398 -10 398 -10 276 -10 c 0,22,23
 188 -10 188 -10 126.5 40 c 128,-1,24
 65 90 65 90 65 189 c 2,25,-1
 65 503 l 2,26,27
 65 631 65 631 152 684 c 1,28,29
 197 709 197 709 259 709 c 0,30,31
 336 709 336 709 401 676 c 1,32,-1
 391 652 l 1,0,1
238 -184 m 1,33,-1
 213 -167 l 1,34,35
 237 -154 237 -154 253 -137.5 c 128,-1,36
 269 -121 269 -121 272 -112 c 2,37,-1
 276 -102 l 1,38,-1
 271 -101 l 1,39,40
 256 -94 256 -94 256 -82 c 128,-1,41
 256 -70 256 -70 262.5 -64 c 128,-1,42
 269 -58 269 -58 277.5 -58 c 128,-1,43
 286 -58 286 -58 293 -65 c 128,-1,44
 300 -72 300 -72 300 -81 c 0,45,46
 300 -133 300 -133 238 -184 c 1,33,-1
EndSplineSet
EndChar

StartChar: gcommaaccent
Encoding: 291 291 215
Width: 492
GlyphClass: 2
Flags: W
LayerCount: 2
Fore
SplineSet
348 -210 m 1,0,-1
 339 -183 l 1,1,2
 380 -168 380 -168 401.5 -142.5 c 128,-1,3
 423 -117 423 -117 423 -63 c 2,4,-1
 423 70 l 1,5,6
 370 -12 370 -12 264 -12 c 0,7,8
 176 -12 176 -12 127 36 c 128,-1,9
 78 84 78 84 78 176 c 2,10,-1
 78 325 l 2,11,12
 78 413 78 413 130.5 461.5 c 128,-1,13
 183 510 183 510 270 510 c 0,14,15
 376 510 376 510 424 439 c 1,16,-1
 423 501 l 1,17,-1
 455 501 l 1,18,-1
 455 -64 l 2,19,20
 455 -124 455 -124 430 -158 c 128,-1,21
 405 -192 405 -192 348 -210 c 1,0,-1
423 165 m 2,22,-1
 423 376 l 1,23,24
 410 429 410 429 367.5 454.5 c 128,-1,25
 325 480 325 480 269 480 c 0,26,27
 215 480 215 480 168 450 c 0,28,29
 142 434 142 434 126 400.5 c 128,-1,30
 110 367 110 367 110 320 c 2,31,-1
 110 167 l 2,32,33
 110 98 110 98 150 58 c 128,-1,34
 190 18 190 18 257.5 18 c 128,-1,35
 325 18 325 18 374 55 c 128,-1,36
 423 92 423 92 423 165 c 2,22,-1
258 609 m 1,37,-1
 263 608 l 1,38,39
 278 601 278 601 278 589 c 128,-1,40
 278 577 278 577 271.5 571 c 128,-1,41
 265 565 265 565 256.5 565 c 128,-1,42
 248 565 248 565 241 571.5 c 128,-1,43
 234 578 234 578 234 588 c 0,44,45
 234 640 234 640 296 691 c 1,46,-1
 321 674 l 1,47,48
 297 661 297 661 281 644.5 c 128,-1,49
 265 628 265 628 262 618 c 1,50,-1
 258 609 l 1,37,-1
EndSplineSet
EndChar

StartChar: Hcircumflex
Encoding: 292 292 216
Width: 588
GlyphClass: 2
Flags: W
LayerCount: 2
Fore
SplineSet
508 0 m 1,0,-1
 476 0 l 1,1,-1
 476 381 l 1,2,-1
 110 381 l 1,3,-1
 110 0 l 1,4,-1
 78 0 l 1,5,-1
 78 700 l 1,6,-1
 110 700 l 1,7,-1
 110 413 l 1,8,-1
 476 413 l 1,9,-1
 476 700 l 1,10,-1
 508 700 l 1,11,-1
 508 0 l 1,0,-1
416 748 m 1,12,-1
 297 867 l 1,13,-1
 174 748 l 1,14,-1
 150 772 l 1,15,-1
 298 913 l 1,16,-1
 440 772 l 1,17,-1
 416 748 l 1,12,-1
EndSplineSet
EndChar

StartChar: hcircumflex
Encoding: 293 293 217
Width: 579
GlyphClass: 2
Flags: W
LayerCount: 2
Fore
SplineSet
291 749 m 1,0,-1
 172 868 l 1,1,-1
 49 749 l 1,2,-1
 25 773 l 1,3,-1
 173 914 l 1,4,-1
 315 773 l 1,5,-1
 291 749 l 1,0,-1
182 475 m 1,6,7
 244 510 244 510 318.5 510 c 128,-1,8
 393 510 393 510 434 490 c 1,9,10
 519 451 519 451 519 346 c 2,11,-1
 519 0 l 1,12,-1
 487 0 l 1,13,-1
 487 346 l 2,14,15
 487 404 487 404 454 438 c 0,16,17
 412 480 412 480 331 480 c 128,-1,18
 250 480 250 480 182 444 c 1,19,-1
 182 0 l 1,20,-1
 150 0 l 1,21,-1
 150 700 l 1,22,-1
 182 700 l 1,23,-1
 182 475 l 1,6,7
EndSplineSet
EndChar

StartChar: Hbar
Encoding: 294 294 218
Width: 685
GlyphClass: 2
Flags: W
LayerCount: 2
Fore
SplineSet
557 0 m 1,0,-1
 525 0 l 1,1,-1
 525 381 l 1,2,-1
 159 381 l 1,3,-1
 159 0 l 1,4,-1
 127 0 l 1,5,-1
 127 506 l 1,6,-1
 78 506 l 1,7,-1
 78 538 l 1,8,-1
 127 538 l 1,9,-1
 127 700 l 1,10,-1
 159 700 l 1,11,-1
 159 538 l 1,12,-1
 525 538 l 1,13,-1
 525 700 l 1,14,-1
 557 700 l 1,15,-1
 557 538 l 1,16,-1
 605 538 l 1,17,-1
 605 506 l 1,18,-1
 557 506 l 1,19,-1
 557 0 l 1,0,-1
525 413 m 1,20,-1
 525 506 l 1,21,-1
 159 506 l 1,22,-1
 159 413 l 1,23,-1
 525 413 l 1,20,-1
EndSplineSet
EndChar

StartChar: hbar
Encoding: 295 295 219
Width: 546
GlyphClass: 2
Flags: W
LayerCount: 2
Fore
SplineSet
172 475 m 1,0,1
 234 510 234 510 308.5 510 c 128,-1,2
 383 510 383 510 424 490 c 1,3,4
 509 451 509 451 509 346 c 2,5,-1
 509 0 l 1,6,-1
 477 0 l 1,7,-1
 477 346 l 2,8,9
 477 404 477 404 444 438 c 0,10,11
 402 480 402 480 321 480 c 128,-1,12
 240 480 240 480 172 444 c 1,13,-1
 172 0 l 1,14,-1
 140 0 l 1,15,-1
 140 585 l 1,16,-1
 78 585 l 1,17,-1
 78 617 l 1,18,-1
 140 617 l 1,19,-1
 140 700 l 1,20,-1
 172 700 l 1,21,-1
 172 617 l 1,22,-1
 312 617 l 1,23,-1
 312 585 l 1,24,-1
 172 585 l 1,25,-1
 172 475 l 1,0,1
EndSplineSet
EndChar

StartChar: Itilde
Encoding: 296 296 220
Width: 484
GlyphClass: 2
Flags: W
LayerCount: 2
Fore
SplineSet
275 0 m 1,0,-1
 243 0 l 1,1,-1
 243 668 l 1,2,-1
 163 670 l 1,3,-1
 163 700 l 1,4,-1
 275 700 l 1,5,-1
 275 0 l 1,0,-1
177 826 m 0,6,7
 203 826 203 826 268 796 c 0,8,9
 294 784 294 784 326 784 c 128,-1,10
 358 784 358 784 388 816 c 1,11,-1
 404 792 l 1,12,13
 363 751 363 751 320 751 c 0,14,15
 298 751 298 751 271.5 761.5 c 128,-1,16
 245 772 245 772 224 781 c 0,17,18
 196 794 196 794 174 794 c 0,19,20
 132 794 132 794 94 752 c 1,21,-1
 78 776 l 1,22,23
 123 826 123 826 177 826 c 0,6,7
EndSplineSet
EndChar

StartChar: itilde
Encoding: 297 297 221
Width: 440
GlyphClass: 2
Flags: W
LayerCount: 2
Fore
SplineSet
177 627 m 0,0,1
 203 627 203 627 268 597 c 0,2,3
 294 585 294 585 326 585 c 128,-1,4
 358 585 358 585 388 617 c 1,5,-1
 404 593 l 1,6,7
 363 552 363 552 320 552 c 0,8,9
 298 552 298 552 271.5 562.5 c 128,-1,10
 245 573 245 573 224 582 c 0,11,12
 196 595 196 595 174 595 c 0,13,14
 132 595 132 595 94 553 c 1,15,-1
 78 577 l 1,16,17
 123 627 123 627 177 627 c 0,0,1
255 0 m 1,18,-1
 223 0 l 1,19,-1
 223 501 l 1,20,-1
 255 501 l 1,21,-1
 255 0 l 1,18,-1
EndSplineSet
EndChar

StartChar: Imacron
Encoding: 298 298 222
Width: 374
GlyphClass: 2
Flags: W
LayerCount: 2
Fore
SplineSet
234 0 m 1,0,-1
 202 0 l 1,1,-1
 202 668 l 1,2,-1
 122 670 l 1,3,-1
 122 700 l 1,4,-1
 234 700 l 1,5,-1
 234 0 l 1,0,-1
294 755 m 1,6,-1
 78 755 l 1,7,-1
 78 788 l 1,8,-1
 294 788 l 1,9,-1
 294 755 l 1,6,-1
EndSplineSet
EndChar

StartChar: imacron
Encoding: 299 299 223
Width: 332
GlyphClass: 2
Flags: W
LayerCount: 2
Fore
SplineSet
295 563 m 1,0,-1
 78 563 l 1,1,-1
 78 596 l 1,2,-1
 295 596 l 1,3,-1
 295 563 l 1,0,-1
206 0 m 1,4,-1
 174 0 l 1,5,-1
 174 501 l 1,6,-1
 206 501 l 1,7,-1
 206 0 l 1,4,-1
EndSplineSet
EndChar

StartChar: Iogonek
Encoding: 302 302 224
Width: 347
GlyphClass: 2
Flags: W
LayerCount: 2
Fore
SplineSet
209 0 m 1,0,-1
 177 0 l 1,1,-1
 177 668 l 1,2,-1
 97 670 l 1,3,-1
 97 700 l 1,4,-1
 209 700 l 1,5,-1
 209 0 l 1,0,-1
244 -139 m 1,6,-1
 267 -163 l 1,7,8
 235 -213 235 -213 171 -213 c 0,9,10
 154 -213 154 -213 135.5 -208.5 c 128,-1,11
 117 -204 117 -204 97.5 -183.5 c 128,-1,12
 78 -163 78 -163 78 -129 c 0,13,14
 78 -64 78 -64 174 0 c 1,15,-1
 210 0 l 1,16,17
 108 -75 108 -75 108 -130 c 0,18,19
 108 -153 108 -153 125.5 -168.5 c 128,-1,20
 143 -184 143 -184 170 -184 c 0,21,22
 216 -184 216 -184 244 -139 c 1,6,-1
EndSplineSet
EndChar

StartChar: iogonek
Encoding: 303 303 225
Width: 289
GlyphClass: 2
Flags: W
LayerCount: 2
Fore
SplineSet
126 0 m 1,0,-1
 94 0 l 1,1,-1
 94 501 l 1,2,-1
 126 501 l 1,3,-1
 126 0 l 1,0,-1
124 675 m 128,-1,5
 118 669 118 669 109.5 669 c 128,-1,6
 101 669 101 669 95 675 c 128,-1,7
 89 681 89 681 89 689.5 c 128,-1,8
 89 698 89 698 95 704 c 128,-1,9
 101 710 101 710 109.5 710 c 128,-1,10
 118 710 118 710 124 704 c 128,-1,11
 130 698 130 698 130 689.5 c 128,-1,4
 130 681 130 681 124 675 c 128,-1,5
162 -139 m 1,12,-1
 185 -163 l 1,13,14
 153 -213 153 -213 89 -213 c 0,15,16
 72 -213 72 -213 53.5 -208.5 c 128,-1,17
 35 -204 35 -204 15.5 -183.5 c 128,-1,18
 -4 -163 -4 -163 -4 -129 c 0,19,20
 -4 -64 -4 -64 92 0 c 1,21,-1
 128 0 l 1,22,23
 26 -75 26 -75 26 -130 c 0,24,25
 26 -153 26 -153 43.5 -168.5 c 128,-1,26
 61 -184 61 -184 88 -184 c 0,27,28
 134 -184 134 -184 162 -139 c 1,12,-1
EndSplineSet
EndChar

StartChar: Idotaccent
Encoding: 304 304 226
Width: 274
GlyphClass: 2
Flags: W
LayerCount: 2
Fore
SplineSet
190 0 m 1,0,-1
 158 0 l 1,1,-1
 158 668 l 1,2,-1
 78 670 l 1,3,-1
 78 700 l 1,4,-1
 190 700 l 1,5,-1
 190 0 l 1,0,-1
188 762 m 128,-1,7
 182 756 182 756 173.5 756 c 128,-1,8
 165 756 165 756 159 762 c 128,-1,9
 153 768 153 768 153 776.5 c 128,-1,10
 153 785 153 785 159 791 c 128,-1,11
 165 797 165 797 173.5 797 c 128,-1,12
 182 797 182 797 188 791 c 128,-1,13
 194 785 194 785 194 776.5 c 128,-1,6
 194 768 194 768 188 762 c 128,-1,7
EndSplineSet
EndChar

StartChar: dotlessi
Encoding: 305 305 227
Width: 128
GlyphClass: 2
Flags: W
LayerCount: 2
Fore
SplineSet
78 0 m 1,0,-1
 46 0 l 1,1,-1
 46 501 l 1,2,-1
 78 501 l 1,3,-1
 78 0 l 1,0,-1
EndSplineSet
EndChar

StartChar: Jcircumflex
Encoding: 308 308 228
Width: 253
GlyphClass: 2
Flags: W
LayerCount: 2
Fore
SplineSet
22 -37 m 1,0,-1
 14 -12 l 1,1,2
 102 -3 102 -3 102 117 c 2,3,-1
 102 668 l 1,4,-1
 24 670 l 1,5,-1
 24 700 l 1,6,-1
 134 700 l 1,7,-1
 134 121 l 2,8,9
 134 46 134 46 107 7.5 c 128,-1,10
 80 -31 80 -31 22 -37 c 1,0,-1
227 846 m 1,11,-1
 227 841 l 2,12,13
 227 794 227 794 193.5 761 c 128,-1,14
 160 728 160 728 114 728 c 128,-1,15
 68 728 68 728 34.5 761 c 128,-1,16
 1 794 1 794 1 841 c 2,17,-1
 1 846 l 1,18,-1
 30 846 l 1,19,-1
 30 841 l 2,20,21
 30 810 30 810 53.5 783.5 c 128,-1,22
 77 757 77 757 113.5 757 c 128,-1,23
 150 757 150 757 174 783.5 c 128,-1,24
 198 810 198 810 198 841 c 2,25,-1
 198 846 l 1,26,-1
 227 846 l 1,11,-1
EndSplineSet
EndChar

StartChar: jcircumflex
Encoding: 309 309 229
Width: 405
GlyphClass: 2
Flags: W
LayerCount: 2
Fore
SplineSet
343 556 m 1,0,-1
 224 675 l 1,1,-1
 101 556 l 1,2,-1
 77 580 l 1,3,-1
 225 721 l 1,4,-1
 367 580 l 1,5,-1
 343 556 l 1,0,-1
205 -73 m 2,6,-1
 205 469 l 1,7,-1
 141 470 l 1,8,-1
 126 501 l 1,9,-1
 237 501 l 1,10,-1
 237 -80 l 1,11,12
 236 -130 236 -130 209 -166.5 c 128,-1,13
 182 -203 182 -203 126 -209 c 1,14,-1
 121 -182 l 1,15,16
 132 -182 132 -182 148.5 -174.5 c 128,-1,17
 165 -167 165 -167 176 -156.5 c 128,-1,18
 187 -146 187 -146 196 -124 c 128,-1,19
 205 -102 205 -102 205 -73 c 2,6,-1
EndSplineSet
EndChar

StartChar: Kcommaaccent
Encoding: 310 310 230
Width: 478
GlyphClass: 2
Flags: W
LayerCount: 2
Fore
SplineSet
476 0 m 1,0,-1
 439 0 l 1,1,-1
 191 383 l 1,2,-1
 111 276 l 1,3,-1
 111 0 l 1,4,-1
 79 0 l 1,5,-1
 79 701 l 1,6,-1
 111 701 l 1,7,-1
 111 329 l 1,8,-1
 387 701 l 1,9,-1
 424 701 l 1,10,-1
 211 411 l 1,11,-1
 476 0 l 1,0,-1
227 -184 m 1,12,-1
 202 -167 l 1,13,14
 226 -154 226 -154 242 -137.5 c 128,-1,15
 258 -121 258 -121 262 -112 c 1,16,-1
 265 -102 l 1,17,-1
 260 -101 l 1,18,19
 245 -94 245 -94 245 -82 c 128,-1,20
 245 -70 245 -70 251.5 -64 c 128,-1,21
 258 -58 258 -58 267 -58 c 128,-1,22
 276 -58 276 -58 282.5 -65 c 128,-1,23
 289 -72 289 -72 289 -81 c 0,24,25
 289 -133 289 -133 227 -184 c 1,12,-1
EndSplineSet
EndChar

StartChar: kcommaaccent
Encoding: 311 311 231
Width: 460
GlyphClass: 2
Flags: W
LayerCount: 2
Fore
SplineSet
434 0 m 1,0,-1
 396 0 l 1,1,-1
 181 349 l 1,2,-1
 99 275 l 1,3,-1
 99 0 l 1,4,-1
 67 0 l 1,5,-1
 67 700 l 1,6,-1
 99 700 l 1,7,-1
 99 313 l 1,8,-1
 323 520 l 1,9,-1
 346 498 l 1,10,-1
 205 370 l 1,11,12
 304 206 304 206 434 0 c 1,0,-1
203 -184 m 1,13,-1
 178 -167 l 1,14,15
 202 -154 202 -154 218 -137.5 c 128,-1,16
 234 -121 234 -121 238 -112 c 1,17,-1
 241 -102 l 1,18,-1
 236 -101 l 1,19,20
 221 -94 221 -94 221 -82 c 128,-1,21
 221 -70 221 -70 227.5 -64 c 128,-1,22
 234 -58 234 -58 243 -58 c 128,-1,23
 252 -58 252 -58 258.5 -65 c 128,-1,24
 265 -72 265 -72 265 -81 c 0,25,26
 265 -133 265 -133 203 -184 c 1,13,-1
EndSplineSet
EndChar

StartChar: kgreenlandic
Encoding: 312 312 232
Width: 484
GlyphClass: 2
Flags: W
LayerCount: 2
Fore
SplineSet
447 29 m 1,0,-1
 447 -1 l 1,1,2
 410 -1 410 -1 378.5 25.5 c 128,-1,3
 347 52 347 52 311 102 c 2,4,-1
 190 270 l 1,5,-1
 110 186 l 1,6,-1
 110 0 l 1,7,-1
 78 0 l 1,8,-1
 78 512 l 1,9,-1
 110 504 l 1,10,-1
 110 229 l 1,11,-1
 360 501 l 1,12,-1
 403 501 l 1,13,-1
 212 293 l 1,14,-1
 339 114 l 1,15,16
 402 29 402 29 447 29 c 1,0,-1
EndSplineSet
EndChar

StartChar: Lacute
Encoding: 313 313 233
Width: 440
GlyphClass: 2
Flags: W
LayerCount: 2
Fore
SplineSet
439 0 m 1,0,-1
 78 0 l 1,1,-1
 78 700 l 1,2,-1
 110 700 l 1,3,-1
 110 30 l 1,4,-1
 439 30 l 1,5,-1
 439 0 l 1,0,-1
109 730 m 1,6,-1
 81 730 l 1,7,-1
 135 854 l 2,8,9
 142 871 142 871 155 871 c 0,10,11
 173 871 173 871 178 855 c 0,12,13
 178 852 178 852 178 847 c 128,-1,14
 178 842 178 842 174 836 c 2,15,-1
 109 730 l 1,6,-1
EndSplineSet
EndChar

StartChar: lacute
Encoding: 314 314 234
Width: 259
GlyphClass: 2
Flags: W
LayerCount: 2
Fore
SplineSet
116 0 m 1,0,-1
 84 0 l 1,1,-1
 84 700 l 1,2,-1
 116 700 l 1,3,-1
 116 0 l 1,0,-1
115 734 m 1,4,-1
 87 734 l 1,5,-1
 141 858 l 2,6,7
 148 875 148 875 161 875 c 0,8,9
 179 875 179 875 184 859 c 0,10,11
 184 856 184 856 184 851 c 128,-1,12
 184 846 184 846 180 840 c 2,13,-1
 115 734 l 1,4,-1
EndSplineSet
EndChar

StartChar: Lcommaaccent
Encoding: 315 315 235
Width: 440
GlyphClass: 2
Flags: W
LayerCount: 2
Fore
SplineSet
439 0 m 1,0,-1
 78 0 l 1,1,-1
 78 700 l 1,2,-1
 110 700 l 1,3,-1
 110 30 l 1,4,-1
 439 30 l 1,5,-1
 439 0 l 1,0,-1
238 -184 m 1,6,-1
 213 -167 l 1,7,8
 237 -154 237 -154 253 -137.5 c 128,-1,9
 269 -121 269 -121 272 -112 c 2,10,-1
 276 -102 l 1,11,-1
 271 -101 l 1,12,13
 256 -94 256 -94 256 -82 c 128,-1,14
 256 -70 256 -70 262.5 -64 c 128,-1,15
 269 -58 269 -58 277.5 -58 c 128,-1,16
 286 -58 286 -58 293 -65 c 128,-1,17
 300 -72 300 -72 300 -81 c 0,18,19
 300 -133 300 -133 238 -184 c 1,6,-1
EndSplineSet
EndChar

StartChar: lcommaaccent
Encoding: 316 316 236
Width: 245
GlyphClass: 2
Flags: W
LayerCount: 2
Fore
SplineSet
151 0 m 1,0,-1
 119 0 l 1,1,-1
 119 700 l 1,2,-1
 151 700 l 1,3,-1
 151 0 l 1,0,-1
103 -184 m 1,4,-1
 78 -167 l 1,5,6
 102 -154 102 -154 118 -137.5 c 128,-1,7
 134 -121 134 -121 138 -112 c 1,8,-1
 141 -102 l 1,9,-1
 136 -101 l 1,10,11
 121 -94 121 -94 121 -82 c 128,-1,12
 121 -70 121 -70 127.5 -64 c 128,-1,13
 134 -58 134 -58 143 -58 c 128,-1,14
 152 -58 152 -58 158.5 -65 c 128,-1,15
 165 -72 165 -72 165 -81 c 0,16,17
 165 -133 165 -133 103 -184 c 1,4,-1
EndSplineSet
EndChar

StartChar: Lcaron
Encoding: 317 317 237
Width: 443
GlyphClass: 2
Flags: W
LayerCount: 2
Fore
SplineSet
442 0 m 1,0,-1
 81 0 l 1,1,-1
 81 700 l 1,2,-1
 113 700 l 1,3,-1
 113 30 l 1,4,-1
 442 30 l 1,5,-1
 442 0 l 1,0,-1
242 875 m 1,6,-1
 100 734 l 1,7,-1
 -48 875 l 1,8,-1
 -25 898 l 1,9,-1
 99 780 l 1,10,-1
 219 898 l 1,11,-1
 242 875 l 1,6,-1
EndSplineSet
EndChar

StartChar: lcaron
Encoding: 318 318 238
Width: 202
GlyphClass: 2
Flags: W
LayerCount: 2
Fore
SplineSet
121 0 m 1,0,-1
 89 0 l 1,1,-1
 89 700 l 1,2,-1
 121 700 l 1,3,-1
 121 0 l 1,0,-1
250 875 m 1,4,-1
 108 734 l 1,5,-1
 -40 875 l 1,6,-1
 -17 898 l 1,7,-1
 107 780 l 1,8,-1
 227 898 l 1,9,-1
 250 875 l 1,4,-1
EndSplineSet
EndChar

StartChar: Lslash
Encoding: 321 321 239
Width: 599
GlyphClass: 2
Flags: W
LayerCount: 2
Fore
SplineSet
562 0 m 1,0,-1
 201 0 l 1,1,-1
 201 379 l 1,2,-1
 90 329 l 1,3,-1
 78 358 l 1,4,-1
 201 413 l 1,5,-1
 201 700 l 1,6,-1
 233 700 l 1,7,-1
 233 428 l 1,8,-1
 369 489 l 1,9,-1
 382 460 l 1,10,-1
 233 393 l 1,11,-1
 233 30 l 1,12,-1
 562 30 l 1,13,-1
 562 0 l 1,0,-1
EndSplineSet
EndChar

StartChar: lslash
Encoding: 322 322 240
Width: 419
GlyphClass: 2
Flags: W
LayerCount: 2
Fore
SplineSet
247 0 m 1,0,-1
 215 0 l 1,1,-1
 215 385 l 1,2,-1
 90 329 l 1,3,-1
 78 358 l 1,4,-1
 215 419 l 1,5,-1
 215 668 l 1,6,-1
 135 670 l 1,7,-1
 135 700 l 1,8,-1
 247 700 l 1,9,-1
 247 434 l 1,10,-1
 369 489 l 1,11,-1
 382 460 l 1,12,-1
 247 399 l 1,13,-1
 247 0 l 1,0,-1
EndSplineSet
EndChar

StartChar: Nacute
Encoding: 323 323 241
Width: 650
GlyphClass: 2
Flags: W
LayerCount: 2
Fore
SplineSet
570 0 m 1,0,-1
 539 0 l 1,1,-1
 109 644 l 1,2,-1
 109 0 l 1,3,-1
 78 0 l 1,4,-1
 78 700 l 1,5,-1
 109 700 l 1,6,-1
 539 57 l 1,7,-1
 539 700 l 1,8,-1
 570 700 l 1,9,-1
 570 0 l 1,0,-1
306 730 m 1,10,-1
 278 730 l 1,11,-1
 332 854 l 2,12,13
 339 871 339 871 352 871 c 0,14,15
 370 871 370 871 374 855 c 0,16,17
 375 852 375 852 375 847 c 128,-1,18
 375 842 375 842 371 836 c 2,19,-1
 306 730 l 1,10,-1
EndSplineSet
EndChar

StartChar: nacute
Encoding: 324 324 242
Width: 484
GlyphClass: 2
Flags: W
LayerCount: 2
Fore
SplineSet
110 475 m 1,0,1
 172 510 172 510 246.5 510 c 128,-1,2
 321 510 321 510 362 490 c 1,3,4
 447 451 447 451 447 346 c 2,5,-1
 447 0 l 1,6,-1
 415 0 l 1,7,-1
 415 346 l 2,8,9
 415 403 415 403 382 436 c 0,10,11
 340 479 340 479 257 479 c 128,-1,12
 174 479 174 479 110 444 c 1,13,-1
 110 0 l 1,14,-1
 78 0 l 1,15,-1
 78 501 l 1,16,-1
 110 501 l 1,17,-1
 110 475 l 1,0,1
259 538 m 1,18,-1
 231 538 l 1,19,-1
 285 662 l 2,20,21
 292 679 292 679 305 679 c 0,22,23
 323 679 323 679 328 663 c 0,24,25
 328 660 328 660 328 655 c 128,-1,26
 328 650 328 650 324 644 c 2,27,-1
 259 538 l 1,18,-1
EndSplineSet
EndChar

StartChar: Ncommaaccent
Encoding: 325 325 243
Width: 650
GlyphClass: 2
Flags: W
LayerCount: 2
Fore
SplineSet
570 0 m 1,0,-1
 539 0 l 1,1,-1
 109 644 l 1,2,-1
 109 0 l 1,3,-1
 78 0 l 1,4,-1
 78 700 l 1,5,-1
 109 700 l 1,6,-1
 539 57 l 1,7,-1
 539 700 l 1,8,-1
 570 700 l 1,9,-1
 570 0 l 1,0,-1
311 -184 m 1,10,-1
 286 -167 l 1,11,12
 310 -154 310 -154 326 -137.5 c 128,-1,13
 342 -121 342 -121 346 -112 c 1,14,-1
 349 -102 l 1,15,-1
 344 -101 l 1,16,17
 329 -94 329 -94 329 -82 c 128,-1,18
 329 -70 329 -70 335.5 -64 c 128,-1,19
 342 -58 342 -58 351 -58 c 128,-1,20
 360 -58 360 -58 366.5 -65 c 128,-1,21
 373 -72 373 -72 373 -81 c 0,22,23
 373 -133 373 -133 311 -184 c 1,10,-1
EndSplineSet
EndChar

StartChar: ncommaaccent
Encoding: 326 326 244
Width: 500
GlyphClass: 2
Flags: W
LayerCount: 2
Fore
SplineSet
96 475 m 1,0,1
 158 510 158 510 232.5 510 c 128,-1,2
 307 510 307 510 348 490 c 1,3,4
 433 451 433 451 433 346 c 2,5,-1
 433 0 l 1,6,-1
 401 0 l 1,7,-1
 401 346 l 2,8,9
 401 403 401 403 368 436 c 0,10,11
 326 479 326 479 243 479 c 128,-1,12
 160 479 160 479 96 444 c 1,13,-1
 96 0 l 1,14,-1
 64 0 l 1,15,-1
 64 501 l 1,16,-1
 96 501 l 1,17,-1
 96 475 l 1,0,1
215 -184 m 1,18,-1
 190 -167 l 1,19,20
 214 -154 214 -154 229.5 -137.5 c 128,-1,21
 245 -121 245 -121 249 -112 c 2,22,-1
 253 -102 l 1,23,-1
 248 -101 l 1,24,25
 233 -94 233 -94 233 -82 c 128,-1,26
 233 -70 233 -70 239.5 -64 c 128,-1,27
 246 -58 246 -58 255 -58 c 128,-1,28
 264 -58 264 -58 270.5 -65 c 128,-1,29
 277 -72 277 -72 277 -81 c 0,30,31
 277 -133 277 -133 215 -184 c 1,18,-1
EndSplineSet
EndChar

StartChar: Ncaron
Encoding: 327 327 245
Width: 650
GlyphClass: 2
Flags: W
LayerCount: 2
Fore
SplineSet
570 0 m 1,0,-1
 539 0 l 1,1,-1
 109 644 l 1,2,-1
 109 0 l 1,3,-1
 78 0 l 1,4,-1
 78 700 l 1,5,-1
 109 700 l 1,6,-1
 539 57 l 1,7,-1
 539 700 l 1,8,-1
 570 700 l 1,9,-1
 570 0 l 1,0,-1
474 875 m 1,10,-1
 332 734 l 1,11,-1
 184 875 l 1,12,-1
 207 898 l 1,13,-1
 331 780 l 1,14,-1
 451 898 l 1,15,-1
 474 875 l 1,10,-1
EndSplineSet
EndChar

StartChar: ncaron
Encoding: 328 328 246
Width: 484
GlyphClass: 2
Flags: W
LayerCount: 2
Fore
SplineSet
110 475 m 1,0,1
 172 510 172 510 246.5 510 c 128,-1,2
 321 510 321 510 362 490 c 1,3,4
 447 451 447 451 447 346 c 2,5,-1
 447 0 l 1,6,-1
 415 0 l 1,7,-1
 415 346 l 2,8,9
 415 403 415 403 382 436 c 0,10,11
 340 479 340 479 257 479 c 128,-1,12
 174 479 174 479 110 444 c 1,13,-1
 110 0 l 1,14,-1
 78 0 l 1,15,-1
 78 501 l 1,16,-1
 110 501 l 1,17,-1
 110 475 l 1,0,1
421 733 m 1,18,-1
 279 592 l 1,19,-1
 131 733 l 1,20,-1
 154 756 l 1,21,-1
 278 638 l 1,22,-1
 398 756 l 1,23,-1
 421 733 l 1,18,-1
EndSplineSet
EndChar

StartChar: Eng
Encoding: 330 330 247
Width: 650
GlyphClass: 2
Flags: W
LayerCount: 2
Fore
SplineSet
539 129 m 2,0,-1
 539 668 l 1,1,-1
 461 670 l 1,2,-1
 461 700 l 1,3,-1
 570 700 l 1,4,-1
 570 121 l 2,5,6
 570 -25 570 -25 459 -37 c 1,7,8
 454 -26 454 -26 450 -12 c 1,9,10
 496 -8 496 -8 519 29 c 1,11,12
 356 276 356 276 109 644 c 1,13,-1
 109 0 l 1,14,-1
 78 0 l 1,15,-1
 78 700 l 1,16,-1
 109 700 l 1,17,18
 156 630 156 630 533 66 c 1,19,20
 539 85 539 85 539 129 c 2,0,-1
EndSplineSet
EndChar

StartChar: eng
Encoding: 331 331 248
Width: 501
GlyphClass: 2
Flags: W
LayerCount: 2
Fore
SplineSet
96 475 m 1,0,1
 158 510 158 510 232.5 510 c 128,-1,2
 307 510 307 510 348 490 c 0,3,4
 430 450 430 450 433 344 c 1,5,-1
 434 345 l 1,6,-1
 434 -80 l 1,7,8
 433 -130 433 -130 406 -166.5 c 128,-1,9
 379 -203 379 -203 322 -209 c 1,10,-1
 318 -182 l 1,11,12
 327 -182 327 -182 344.5 -173.5 c 128,-1,13
 362 -165 362 -165 373 -154 c 128,-1,14
 384 -143 384 -143 393 -120.5 c 128,-1,15
 402 -98 402 -98 402 -68 c 2,16,-1
 401 346 l 2,17,18
 401 403 401 403 368 436 c 0,19,20
 326 479 326 479 243 479 c 128,-1,21
 160 479 160 479 96 444 c 1,22,-1
 96 0 l 1,23,-1
 64 0 l 1,24,-1
 64 501 l 1,25,-1
 96 501 l 1,26,-1
 96 475 l 1,0,1
EndSplineSet
EndChar

StartChar: Omacron
Encoding: 332 332 249
Width: 549
GlyphClass: 2
Flags: W
LayerCount: 2
Fore
SplineSet
483 506 m 2,0,-1
 483 185 l 2,1,2
 483 84 483 84 421.5 36.5 c 128,-1,3
 360 -11 360 -11 274 -11 c 128,-1,4
 188 -11 188 -11 125.5 36.5 c 128,-1,5
 63 84 63 84 63 185 c 2,6,-1
 63 507 l 2,7,8
 63 610 63 610 119.5 663 c 128,-1,9
 176 716 176 716 275 716 c 128,-1,10
 374 716 374 716 428.5 660 c 128,-1,11
 483 604 483 604 483 506 c 2,0,-1
451 185 m 2,12,-1
 451 512 l 2,13,14
 451 593 451 593 405 638.5 c 128,-1,15
 359 684 359 684 273 684 c 128,-1,16
 187 684 187 684 141 638.5 c 128,-1,17
 95 593 95 593 95 511 c 2,18,-1
 95 185 l 2,19,20
 95 103 95 103 146.5 61.5 c 128,-1,21
 198 20 198 20 274 20 c 128,-1,22
 350 20 350 20 400.5 59.5 c 128,-1,23
 451 99 451 99 451 185 c 2,12,-1
377 755 m 1,24,-1
 160 755 l 1,25,-1
 160 788 l 1,26,-1
 377 788 l 1,27,-1
 377 755 l 1,24,-1
EndSplineSet
EndChar

StartChar: omacron
Encoding: 333 333 250
Width: 488
GlyphClass: 2
Flags: W
LayerCount: 2
Fore
SplineSet
451 316 m 2,0,-1
 451 184 l 2,1,2
 451 100 451 100 405 45 c 128,-1,3
 359 -10 359 -10 266 -10 c 128,-1,4
 173 -10 173 -10 125.5 45.5 c 128,-1,5
 78 101 78 101 78 184 c 2,6,-1
 78 316 l 2,7,8
 78 411 78 411 126.5 461.5 c 128,-1,9
 175 512 175 512 264 512 c 128,-1,10
 353 512 353 512 402 459.5 c 128,-1,11
 451 407 451 407 451 316 c 2,0,-1
419 180 m 2,12,-1
 419 319 l 2,13,14
 419 401 419 401 376 441.5 c 128,-1,15
 333 482 333 482 264.5 482 c 128,-1,16
 196 482 196 482 153 441.5 c 128,-1,17
 110 401 110 401 110 319 c 2,18,-1
 110 180 l 2,19,20
 110 112 110 112 149 65.5 c 128,-1,21
 188 19 188 19 265 19 c 128,-1,22
 342 19 342 19 380.5 64.5 c 128,-1,23
 419 110 419 110 419 180 c 2,12,-1
372 563 m 1,24,-1
 156 563 l 1,25,-1
 156 596 l 1,26,-1
 372 596 l 1,27,-1
 372 563 l 1,24,-1
EndSplineSet
EndChar

StartChar: Ohungarumlaut
Encoding: 336 336 251
Width: 549
GlyphClass: 2
Flags: W
LayerCount: 2
Fore
SplineSet
483 506 m 2,0,-1
 483 185 l 2,1,2
 483 84 483 84 421.5 36.5 c 128,-1,3
 360 -11 360 -11 274 -11 c 128,-1,4
 188 -11 188 -11 125.5 36.5 c 128,-1,5
 63 84 63 84 63 185 c 2,6,-1
 63 507 l 2,7,8
 63 610 63 610 119.5 663 c 128,-1,9
 176 716 176 716 275 716 c 128,-1,10
 374 716 374 716 428.5 660 c 128,-1,11
 483 604 483 604 483 506 c 2,0,-1
451 185 m 2,12,-1
 451 512 l 2,13,14
 451 593 451 593 405 638.5 c 128,-1,15
 359 684 359 684 273 684 c 128,-1,16
 187 684 187 684 141 638.5 c 128,-1,17
 95 593 95 593 95 511 c 2,18,-1
 95 185 l 2,19,20
 95 103 95 103 146.5 61.5 c 128,-1,21
 198 20 198 20 274 20 c 128,-1,22
 350 20 350 20 400.5 59.5 c 128,-1,23
 451 99 451 99 451 185 c 2,12,-1
329 731 m 1,24,-1
 301 731 l 1,25,-1
 355 855 l 2,26,27
 362 872 362 872 375 872 c 0,28,29
 393 872 393 872 398 856 c 0,30,31
 398 853 398 853 398 848 c 128,-1,32
 398 843 398 843 394 837 c 2,33,-1
 329 731 l 1,24,-1
217 731 m 1,34,-1
 189 731 l 1,35,-1
 243 855 l 2,36,37
 250 872 250 872 263 872 c 0,38,39
 281 872 281 872 286 856 c 0,40,41
 286 853 286 853 286 848 c 128,-1,42
 286 843 286 843 282 837 c 2,43,-1
 217 731 l 1,34,-1
EndSplineSet
EndChar

StartChar: ohungarumlaut
Encoding: 337 337 252
Width: 488
GlyphClass: 2
Flags: W
LayerCount: 2
Fore
SplineSet
451 316 m 2,0,-1
 451 184 l 2,1,2
 451 100 451 100 405 45 c 128,-1,3
 359 -10 359 -10 266 -10 c 128,-1,4
 173 -10 173 -10 125.5 45.5 c 128,-1,5
 78 101 78 101 78 184 c 2,6,-1
 78 316 l 2,7,8
 78 411 78 411 126.5 461.5 c 128,-1,9
 175 512 175 512 264 512 c 128,-1,10
 353 512 353 512 402 459.5 c 128,-1,11
 451 407 451 407 451 316 c 2,0,-1
419 180 m 2,12,-1
 419 319 l 2,13,14
 419 401 419 401 376 441.5 c 128,-1,15
 333 482 333 482 264.5 482 c 128,-1,16
 196 482 196 482 153 441.5 c 128,-1,17
 110 401 110 401 110 319 c 2,18,-1
 110 180 l 2,19,20
 110 112 110 112 149 65.5 c 128,-1,21
 188 19 188 19 265 19 c 128,-1,22
 342 19 342 19 380.5 64.5 c 128,-1,23
 419 110 419 110 419 180 c 2,12,-1
316 543 m 1,24,-1
 288 543 l 1,25,-1
 342 667 l 2,26,27
 349 684 349 684 362 684 c 0,28,29
 380 684 380 684 384 668 c 0,30,31
 385 665 385 665 385 660 c 128,-1,32
 385 655 385 655 381 649 c 2,33,-1
 316 543 l 1,24,-1
204 543 m 1,34,-1
 176 543 l 1,35,-1
 230 667 l 2,36,37
 237 684 237 684 250 684 c 0,38,39
 268 684 268 684 272 668 c 0,40,41
 273 665 273 665 273 660 c 128,-1,42
 273 655 273 655 269 649 c 2,43,-1
 204 543 l 1,34,-1
EndSplineSet
EndChar

StartChar: OE
Encoding: 338 338 253
Width: 838
GlyphClass: 2
Flags: W
LayerCount: 2
Fore
SplineSet
799 0 m 1,0,-1
 467 0 l 1,1,-1
 467 70 l 1,2,3
 412 -11 412 -11 289 -11 c 0,4,5
 203 -11 203 -11 140.5 36.5 c 128,-1,6
 78 84 78 84 78 185 c 2,7,-1
 78 507 l 2,8,9
 78 610 78 610 134.5 663 c 128,-1,10
 191 716 191 716 290 716 c 0,11,12
 413 716 413 716 467 630 c 1,13,-1
 467 700 l 1,14,-1
 801 700 l 1,15,-1
 801 669 l 1,16,-1
 499 669 l 1,17,-1
 499 413 l 1,18,-1
 714 413 l 1,19,-1
 703 381 l 1,20,-1
 499 381 l 1,21,-1
 499 30 l 1,22,-1
 799 30 l 1,23,-1
 799 0 l 1,0,-1
466 185 m 2,24,-1
 466 512 l 2,25,26
 466 593 466 593 420 638.5 c 128,-1,27
 374 684 374 684 288 684 c 128,-1,28
 202 684 202 684 156 638.5 c 128,-1,29
 110 593 110 593 110 511 c 2,30,-1
 110 185 l 2,31,32
 110 103 110 103 161.5 61.5 c 128,-1,33
 213 20 213 20 289 20 c 128,-1,34
 365 20 365 20 415.5 59.5 c 128,-1,35
 466 99 466 99 466 185 c 2,24,-1
EndSplineSet
EndChar

StartChar: oe
Encoding: 339 339 254
Width: 793
GlyphClass: 2
Flags: W
LayerCount: 2
Fore
SplineSet
566 15 m 0,0,1
 638 15 638 15 718 60 c 1,2,-1
 731 35 l 1,3,4
 653 -12 653 -12 559 -12 c 0,5,6
 510 -12 510 -12 471 11 c 128,-1,7
 432 34 432 34 417 79 c 1,8,9
 395 38 395 38 354 14 c 128,-1,10
 313 -10 313 -10 261 -10 c 0,11,12
 169 -10 169 -10 123.5 45 c 128,-1,13
 78 100 78 100 78 184 c 2,14,-1
 78 316 l 2,15,16
 78 411 78 411 125.5 461.5 c 128,-1,17
 173 512 173 512 263 512 c 0,18,19
 320 512 320 512 362 484 c 128,-1,20
 404 456 404 456 421 407 c 1,21,22
 441 454 441 454 482.5 482 c 128,-1,23
 524 510 524 510 585 510 c 0,24,25
 666 510 666 510 711 465.5 c 128,-1,26
 756 421 756 421 756 342 c 2,27,-1
 756 234 l 1,28,-1
 439 217 l 1,29,-1
 439 135 l 2,30,31
 439 71 439 71 478 43 c 128,-1,32
 517 15 517 15 566 15 c 0,0,1
406 164 m 2,33,-1
 406 327 l 2,34,35
 406 403 406 403 366 442.5 c 128,-1,36
 326 482 326 482 266 482 c 0,37,38
 265 482 265 482 263 482 c 0,39,40
 110 482 110 482 110 316 c 2,41,-1
 110 174 l 2,42,43
 110 102 110 102 152 61 c 128,-1,44
 194 20 194 20 260.5 20 c 128,-1,45
 327 20 327 20 366.5 60.5 c 128,-1,46
 406 101 406 101 406 164 c 2,33,-1
724 263 m 1,47,-1
 724 349 l 2,48,49
 724 420 724 420 682 451 c 128,-1,50
 640 482 640 482 581 482 c 128,-1,51
 522 482 522 482 480.5 443 c 128,-1,52
 439 404 439 404 439 338 c 2,53,-1
 439 250 l 1,54,-1
 724 263 l 1,47,-1
EndSplineSet
EndChar

StartChar: Racute
Encoding: 340 340 255
Width: 564
GlyphClass: 2
Flags: W
LayerCount: 2
Fore
SplineSet
513 0 m 1,0,-1
 479 0 l 1,1,-1
 362 271 l 1,2,3
 347 268 347 268 332 268 c 2,4,-1
 111 268 l 1,5,-1
 111 0 l 1,6,-1
 78 0 l 1,7,-1
 78 700 l 1,8,-1
 319 700 l 2,9,10
 417 700 417 700 464.5 642 c 128,-1,11
 512 584 512 584 512 486 c 0,12,13
 512 321 512 321 393 279 c 1,14,-1
 513 0 l 1,0,-1
111 300 m 1,15,-1
 322 300 l 2,16,17
 368 300 368 300 401 317.5 c 128,-1,18
 434 335 434 335 450 364 c 0,19,20
 479 418 479 418 479 496 c 128,-1,21
 479 574 479 574 438 621 c 128,-1,22
 397 668 397 668 320 668 c 2,23,-1
 111 668 l 1,24,-1
 111 300 l 1,15,-1
255 730 m 1,25,-1
 227 730 l 1,26,-1
 281 854 l 2,27,28
 288 871 288 871 301 871 c 0,29,30
 319 871 319 871 324 855 c 0,31,32
 324 852 324 852 324 847 c 128,-1,33
 324 842 324 842 320 836 c 2,34,-1
 255 730 l 1,25,-1
EndSplineSet
EndChar

StartChar: racute
Encoding: 341 341 256
Width: 365
GlyphClass: 2
Flags: W
LayerCount: 2
Fore
SplineSet
110 0 m 1,0,-1
 78 0 l 1,1,-1
 78 501 l 1,2,-1
 110 501 l 1,3,-1
 109 454 l 1,4,5
 164 509 164 509 253 509 c 0,6,7
 288 509 288 509 328 501 c 1,8,-1
 319 469 l 1,9,10
 282 478 282 478 258 478 c 0,11,12
 184 478 184 478 147 452.5 c 128,-1,13
 110 427 110 427 110 397 c 2,14,-1
 110 0 l 1,0,-1
166 538 m 1,15,-1
 138 538 l 1,16,-1
 192 662 l 2,17,18
 199 679 199 679 212 679 c 0,19,20
 230 679 230 679 234 663 c 0,21,22
 235 660 235 660 235 655 c 128,-1,23
 235 650 235 650 231 644 c 2,24,-1
 166 538 l 1,15,-1
EndSplineSet
EndChar

StartChar: Rcommaaccent
Encoding: 342 342 257
Width: 564
GlyphClass: 2
Flags: W
LayerCount: 2
Fore
SplineSet
513 0 m 1,0,-1
 479 0 l 1,1,-1
 362 271 l 1,2,3
 347 268 347 268 332 268 c 2,4,-1
 111 268 l 1,5,-1
 111 0 l 1,6,-1
 78 0 l 1,7,-1
 78 700 l 1,8,-1
 319 700 l 2,9,10
 417 700 417 700 464.5 642 c 128,-1,11
 512 584 512 584 512 486 c 0,12,13
 512 321 512 321 393 279 c 1,14,-1
 513 0 l 1,0,-1
111 300 m 1,15,-1
 322 300 l 2,16,17
 368 300 368 300 401 317.5 c 128,-1,18
 434 335 434 335 450 364 c 0,19,20
 479 418 479 418 479 496 c 128,-1,21
 479 574 479 574 438 621 c 128,-1,22
 397 668 397 668 320 668 c 2,23,-1
 111 668 l 1,24,-1
 111 300 l 1,15,-1
248 -184 m 1,25,-1
 223 -167 l 1,26,27
 247 -154 247 -154 262.5 -137.5 c 128,-1,28
 278 -121 278 -121 282 -112 c 2,29,-1
 286 -102 l 1,30,-1
 281 -101 l 1,31,32
 266 -94 266 -94 266 -82 c 128,-1,33
 266 -70 266 -70 272.5 -64 c 128,-1,34
 279 -58 279 -58 287.5 -58 c 128,-1,35
 296 -58 296 -58 303 -65 c 128,-1,36
 310 -72 310 -72 310 -81 c 0,37,38
 310 -133 310 -133 248 -184 c 1,25,-1
EndSplineSet
EndChar

StartChar: rcommaaccent
Encoding: 343 343 258
Width: 364
GlyphClass: 2
Flags: W
LayerCount: 2
Fore
SplineSet
93 0 m 1,0,-1
 61 0 l 1,1,-1
 61 501 l 1,2,-1
 93 501 l 1,3,-1
 92 454 l 1,4,5
 147 509 147 509 236 509 c 0,6,7
 271 509 271 509 311 501 c 1,8,-1
 302 469 l 1,9,10
 265 478 265 478 241 478 c 0,11,12
 167 478 167 478 130 452.5 c 128,-1,13
 93 427 93 427 93 397 c 2,14,-1
 93 0 l 1,0,-1
108 -184 m 1,15,-1
 83 -167 l 1,16,17
 107 -154 107 -154 122.5 -137.5 c 128,-1,18
 138 -121 138 -121 142 -112 c 2,19,-1
 146 -102 l 1,20,-1
 141 -101 l 1,21,22
 126 -94 126 -94 126 -82 c 128,-1,23
 126 -70 126 -70 132.5 -64 c 128,-1,24
 139 -58 139 -58 147.5 -58 c 128,-1,25
 156 -58 156 -58 163 -65 c 128,-1,26
 170 -72 170 -72 170 -81 c 0,27,28
 170 -133 170 -133 108 -184 c 1,15,-1
EndSplineSet
EndChar

StartChar: Rcaron
Encoding: 344 344 259
Width: 564
GlyphClass: 2
Flags: W
LayerCount: 2
Fore
SplineSet
513 0 m 1,0,-1
 479 0 l 1,1,-1
 362 271 l 1,2,3
 347 268 347 268 332 268 c 2,4,-1
 111 268 l 1,5,-1
 111 0 l 1,6,-1
 78 0 l 1,7,-1
 78 700 l 1,8,-1
 319 700 l 2,9,10
 417 700 417 700 464.5 642 c 128,-1,11
 512 584 512 584 512 486 c 0,12,13
 512 321 512 321 393 279 c 1,14,-1
 513 0 l 1,0,-1
111 300 m 1,15,-1
 322 300 l 2,16,17
 368 300 368 300 401 317.5 c 128,-1,18
 434 335 434 335 450 364 c 0,19,20
 479 418 479 418 479 496 c 128,-1,21
 479 574 479 574 438 621 c 128,-1,22
 397 668 397 668 320 668 c 2,23,-1
 111 668 l 1,24,-1
 111 300 l 1,15,-1
427 875 m 1,25,-1
 285 734 l 1,26,-1
 137 875 l 1,27,-1
 160 898 l 1,28,-1
 284 780 l 1,29,-1
 404 898 l 1,30,-1
 427 875 l 1,25,-1
EndSplineSet
EndChar

StartChar: rcaron
Encoding: 345 345 260
Width: 405
GlyphClass: 2
Flags: W
LayerCount: 2
Fore
SplineSet
111 0 m 1,0,-1
 79 0 l 1,1,-1
 79 501 l 1,2,-1
 111 501 l 1,3,-1
 110 454 l 1,4,5
 165 509 165 509 254 509 c 0,6,7
 289 509 289 509 329 501 c 1,8,-1
 320 469 l 1,9,10
 283 478 283 478 259 478 c 0,11,12
 185 478 185 478 148 452.5 c 128,-1,13
 111 427 111 427 111 397 c 2,14,-1
 111 0 l 1,0,-1
368 733 m 1,15,-1
 226 592 l 1,16,-1
 78 733 l 1,17,-1
 101 756 l 1,18,-1
 225 638 l 1,19,-1
 345 756 l 1,20,-1
 368 733 l 1,15,-1
EndSplineSet
EndChar

StartChar: Sacute
Encoding: 346 346 261
Width: 561
GlyphClass: 2
Flags: W
LayerCount: 2
Fore
SplineSet
37 178 m 1,0,-1
 71 178 l 1,1,2
 73 119 73 119 126 69.5 c 128,-1,3
 179 20 179 20 270.5 20 c 128,-1,4
 362 20 362 20 419.5 60 c 128,-1,5
 477 100 477 100 477 187 c 0,6,7
 477 235 477 235 445.5 269.5 c 128,-1,8
 414 304 414 304 367.5 321.5 c 128,-1,9
 321 339 321 339 266 359 c 128,-1,10
 211 379 211 379 164.5 397 c 128,-1,11
 118 415 118 415 86.5 451.5 c 128,-1,12
 55 488 55 488 55 538 c 0,13,14
 55 608 55 608 113 659 c 128,-1,15
 171 710 171 710 280 710 c 0,16,17
 363 710 363 710 426 680 c 1,18,-1
 415 648 l 1,19,20
 355 679 355 679 276.5 679 c 128,-1,21
 198 679 198 679 143.5 641.5 c 128,-1,22
 89 604 89 604 89 535 c 0,23,24
 89 486 89 486 132.5 453.5 c 128,-1,25
 176 421 176 421 238 401.5 c 128,-1,26
 300 382 300 382 362.5 359.5 c 128,-1,27
 425 337 425 337 468.5 294.5 c 128,-1,28
 512 252 512 252 512 189 c 0,29,30
 512 97 512 97 453.5 43 c 128,-1,31
 395 -11 395 -11 279.5 -11 c 128,-1,32
 164 -11 164 -11 101.5 46.5 c 128,-1,33
 39 104 39 104 37 178 c 1,0,-1
268 735 m 1,34,-1
 240 735 l 1,35,-1
 294 859 l 2,36,37
 301 876 301 876 314 876 c 0,38,39
 332 876 332 876 336 860 c 0,40,41
 337 857 337 857 337 852 c 128,-1,42
 337 847 337 847 333 841 c 2,43,-1
 268 735 l 1,34,-1
EndSplineSet
EndChar

StartChar: sacute
Encoding: 347 347 262
Width: 443
GlyphClass: 2
Flags: W
LayerCount: 2
Fore
SplineSet
328 456 m 1,0,1
 285 483 285 483 228 483 c 128,-1,2
 171 483 171 483 131.5 456.5 c 128,-1,3
 92 430 92 430 92 383 c 0,4,5
 92 341 92 341 127.5 318.5 c 128,-1,6
 163 296 163 296 208.5 283 c 128,-1,7
 254 270 254 270 299 254 c 128,-1,8
 344 238 344 238 375 206 c 128,-1,9
 406 174 406 174 406 119.5 c 128,-1,10
 406 65 406 65 361.5 25 c 128,-1,11
 317 -15 317 -15 231.5 -15 c 128,-1,12
 146 -15 146 -15 97 26 c 128,-1,13
 48 67 48 67 46 127 c 1,14,-1
 77 127 l 1,15,16
 82 79 82 79 123 47.5 c 128,-1,17
 164 16 164 16 228 16 c 128,-1,18
 292 16 292 16 333 45 c 128,-1,19
 374 74 374 74 374 119 c 128,-1,20
 374 164 374 164 343.5 190.5 c 128,-1,21
 313 217 313 217 269 231 c 128,-1,22
 225 245 225 245 180.5 259 c 128,-1,23
 136 273 136 273 102 299 c 0,24,25
 61 330 61 330 61 378.5 c 128,-1,26
 61 427 61 427 99.5 470 c 128,-1,27
 138 513 138 513 229 513 c 0,28,29
 260 513 260 513 288 505.5 c 128,-1,30
 316 498 316 498 328 490 c 1,31,-1
 341 483 l 1,32,-1
 328 456 l 1,0,1
220 538 m 1,33,-1
 192 538 l 1,34,-1
 246 662 l 2,35,36
 253 679 253 679 266 679 c 0,37,38
 284 679 284 679 288 663 c 0,39,40
 289 660 289 660 289 655 c 128,-1,41
 289 650 289 650 285 644 c 2,42,-1
 220 538 l 1,33,-1
EndSplineSet
EndChar

StartChar: Scircumflex
Encoding: 348 348 263
Width: 561
GlyphClass: 2
Flags: W
LayerCount: 2
Fore
SplineSet
37 178 m 1,0,-1
 71 178 l 1,1,2
 73 119 73 119 126 69.5 c 128,-1,3
 179 20 179 20 270.5 20 c 128,-1,4
 362 20 362 20 419.5 60 c 128,-1,5
 477 100 477 100 477 187 c 0,6,7
 477 235 477 235 445.5 269.5 c 128,-1,8
 414 304 414 304 367.5 321.5 c 128,-1,9
 321 339 321 339 266 359 c 128,-1,10
 211 379 211 379 164.5 397 c 128,-1,11
 118 415 118 415 86.5 451.5 c 128,-1,12
 55 488 55 488 55 538 c 0,13,14
 55 608 55 608 113 659 c 128,-1,15
 171 710 171 710 280 710 c 0,16,17
 363 710 363 710 426 680 c 1,18,-1
 415 648 l 1,19,20
 355 679 355 679 276.5 679 c 128,-1,21
 198 679 198 679 143.5 641.5 c 128,-1,22
 89 604 89 604 89 535 c 0,23,24
 89 486 89 486 132.5 453.5 c 128,-1,25
 176 421 176 421 238 401.5 c 128,-1,26
 300 382 300 382 362.5 359.5 c 128,-1,27
 425 337 425 337 468.5 294.5 c 128,-1,28
 512 252 512 252 512 189 c 0,29,30
 512 97 512 97 453.5 43 c 128,-1,31
 395 -11 395 -11 279.5 -11 c 128,-1,32
 164 -11 164 -11 101.5 46.5 c 128,-1,33
 39 104 39 104 37 178 c 1,0,-1
408 748 m 1,34,-1
 289 867 l 1,35,-1
 166 748 l 1,36,-1
 142 772 l 1,37,-1
 290 913 l 1,38,-1
 432 772 l 1,39,-1
 408 748 l 1,34,-1
EndSplineSet
EndChar

StartChar: scircumflex
Encoding: 349 349 264
Width: 475
GlyphClass: 2
Flags: W
LayerCount: 2
Fore
SplineSet
382 556 m 1,0,-1
 263 675 l 1,1,-1
 140 556 l 1,2,-1
 116 580 l 1,3,-1
 264 721 l 1,4,-1
 406 580 l 1,5,-1
 382 556 l 1,0,-1
360 456 m 1,6,7
 317 483 317 483 260 483 c 128,-1,8
 203 483 203 483 163.5 456.5 c 128,-1,9
 124 430 124 430 124 383 c 0,10,11
 124 341 124 341 159.5 318.5 c 128,-1,12
 195 296 195 296 240.5 283 c 128,-1,13
 286 270 286 270 331 254 c 128,-1,14
 376 238 376 238 407 206 c 128,-1,15
 438 174 438 174 438 119.5 c 128,-1,16
 438 65 438 65 393.5 25 c 128,-1,17
 349 -15 349 -15 263.5 -15 c 128,-1,18
 178 -15 178 -15 129 26 c 128,-1,19
 80 67 80 67 78 127 c 1,20,-1
 109 127 l 1,21,22
 114 79 114 79 155 47.5 c 128,-1,23
 196 16 196 16 260 16 c 128,-1,24
 324 16 324 16 365 45 c 128,-1,25
 406 74 406 74 406 119 c 128,-1,26
 406 164 406 164 375.5 190.5 c 128,-1,27
 345 217 345 217 301 231 c 128,-1,28
 257 245 257 245 212.5 259 c 128,-1,29
 168 273 168 273 134 299 c 0,30,31
 93 330 93 330 93 378.5 c 128,-1,32
 93 427 93 427 131.5 470 c 128,-1,33
 170 513 170 513 261 513 c 0,34,35
 292 513 292 513 320 505.5 c 128,-1,36
 348 498 348 498 360 490 c 1,37,-1
 373 483 l 1,38,-1
 360 456 l 1,6,7
EndSplineSet
EndChar

StartChar: scedilla
Encoding: 351 351 265
Width: 431
GlyphClass: 2
Flags: W
LayerCount: 2
Fore
SplineSet
193 -55 m 1,0,1
 210 -47 210 -47 241.5 -47 c 128,-1,2
 273 -47 273 -47 299.5 -64 c 128,-1,3
 326 -81 326 -81 326 -125 c 128,-1,4
 326 -169 326 -169 289 -189.5 c 128,-1,5
 252 -210 252 -210 207 -210 c 128,-1,6
 162 -210 162 -210 110 -191 c 1,7,-1
 125 -159 l 1,8,9
 162 -183 162 -183 202 -183 c 128,-1,10
 242 -183 242 -183 268.5 -167.5 c 128,-1,11
 295 -152 295 -152 295 -120.5 c 128,-1,12
 295 -89 295 -89 266 -76 c 1,13,14
 252 -71 252 -71 234.5 -71 c 128,-1,15
 217 -71 217 -71 194 -80 c 2,16,-1
 156 -94 l 1,17,-1
 146 -78 l 1,18,-1
 196 -14 l 1,19,20
 122 -8 122 -8 80 32 c 128,-1,21
 38 72 38 72 36 127 c 1,22,-1
 67 127 l 1,23,24
 72 79 72 79 113 47.5 c 128,-1,25
 154 16 154 16 218 16 c 128,-1,26
 282 16 282 16 323 45 c 128,-1,27
 364 74 364 74 364 119 c 128,-1,28
 364 164 364 164 333.5 190.5 c 128,-1,29
 303 217 303 217 259 231 c 128,-1,30
 215 245 215 245 170.5 259 c 128,-1,31
 126 273 126 273 92 299 c 0,32,33
 51 330 51 330 51 378.5 c 128,-1,34
 51 427 51 427 89.5 470 c 128,-1,35
 128 513 128 513 219 513 c 0,36,37
 250 513 250 513 278 505.5 c 128,-1,38
 306 498 306 498 318 490 c 1,39,-1
 331 483 l 1,40,-1
 318 456 l 1,41,42
 275 483 275 483 218 483 c 128,-1,43
 161 483 161 483 121.5 456.5 c 128,-1,44
 82 430 82 430 82 383 c 0,45,46
 82 341 82 341 117.5 318.5 c 128,-1,47
 153 296 153 296 198.5 283 c 128,-1,48
 244 270 244 270 289 254 c 128,-1,49
 334 238 334 238 365 206 c 128,-1,50
 396 174 396 174 396 119.5 c 128,-1,51
 396 65 396 65 352.5 25.5 c 128,-1,52
 309 -14 309 -14 224 -15 c 1,53,-1
 193 -55 l 1,0,1
EndSplineSet
EndChar

StartChar: Scaron
Encoding: 352 352 266
Width: 561
GlyphClass: 2
Flags: W
LayerCount: 2
Fore
SplineSet
37 178 m 1,0,-1
 71 178 l 1,1,2
 73 119 73 119 126 69.5 c 128,-1,3
 179 20 179 20 270.5 20 c 128,-1,4
 362 20 362 20 419.5 60 c 128,-1,5
 477 100 477 100 477 187 c 0,6,7
 477 235 477 235 445.5 269.5 c 128,-1,8
 414 304 414 304 367.5 321.5 c 128,-1,9
 321 339 321 339 266 359 c 128,-1,10
 211 379 211 379 164.5 397 c 128,-1,11
 118 415 118 415 86.5 451.5 c 128,-1,12
 55 488 55 488 55 538 c 0,13,14
 55 608 55 608 113 659 c 128,-1,15
 171 710 171 710 280 710 c 0,16,17
 363 710 363 710 426 680 c 1,18,-1
 415 648 l 1,19,20
 355 679 355 679 276.5 679 c 128,-1,21
 198 679 198 679 143.5 641.5 c 128,-1,22
 89 604 89 604 89 535 c 0,23,24
 89 486 89 486 132.5 453.5 c 128,-1,25
 176 421 176 421 238 401.5 c 128,-1,26
 300 382 300 382 362.5 359.5 c 128,-1,27
 425 337 425 337 468.5 294.5 c 128,-1,28
 512 252 512 252 512 189 c 0,29,30
 512 97 512 97 453.5 43 c 128,-1,31
 395 -11 395 -11 279.5 -11 c 128,-1,32
 164 -11 164 -11 101.5 46.5 c 128,-1,33
 39 104 39 104 37 178 c 1,0,-1
444 925 m 1,34,-1
 302 784 l 1,35,-1
 154 925 l 1,36,-1
 177 948 l 1,37,-1
 301 830 l 1,38,-1
 421 948 l 1,39,-1
 444 925 l 1,34,-1
EndSplineSet
EndChar

StartChar: scaron
Encoding: 353 353 267
Width: 475
GlyphClass: 2
Flags: W
LayerCount: 2
Fore
SplineSet
360 456 m 1,0,1
 317 483 317 483 260 483 c 128,-1,2
 203 483 203 483 163.5 456.5 c 128,-1,3
 124 430 124 430 124 383 c 0,4,5
 124 341 124 341 159.5 318.5 c 128,-1,6
 195 296 195 296 240.5 283 c 128,-1,7
 286 270 286 270 331 254 c 128,-1,8
 376 238 376 238 407 206 c 128,-1,9
 438 174 438 174 438 119.5 c 128,-1,10
 438 65 438 65 393.5 25 c 128,-1,11
 349 -15 349 -15 263.5 -15 c 128,-1,12
 178 -15 178 -15 129 26 c 128,-1,13
 80 67 80 67 78 127 c 1,14,-1
 109 127 l 1,15,16
 114 79 114 79 155 47.5 c 128,-1,17
 196 16 196 16 260 16 c 128,-1,18
 324 16 324 16 365 45 c 128,-1,19
 406 74 406 74 406 119 c 128,-1,20
 406 164 406 164 375.5 190.5 c 128,-1,21
 345 217 345 217 301 231 c 128,-1,22
 257 245 257 245 212.5 259 c 128,-1,23
 168 273 168 273 134 299 c 0,24,25
 93 330 93 330 93 378.5 c 128,-1,26
 93 427 93 427 131.5 470 c 128,-1,27
 170 513 170 513 261 513 c 0,28,29
 292 513 292 513 320 505.5 c 128,-1,30
 348 498 348 498 360 490 c 1,31,-1
 373 483 l 1,32,-1
 360 456 l 1,0,1
431 732 m 1,33,-1
 289 591 l 1,34,-1
 141 732 l 1,35,-1
 164 755 l 1,36,-1
 288 637 l 1,37,-1
 408 755 l 1,38,-1
 431 732 l 1,33,-1
EndSplineSet
EndChar

StartChar: Tcommaaccent
Encoding: 354 354 268
Width: 402
GlyphClass: 2
Flags: W
LayerCount: 2
Fore
SplineSet
214 0 m 1,0,-1
 183 0 l 1,1,-1
 182 669 l 1,2,-1
 0 669 l 1,3,-1
 0 700 l 1,4,-1
 402 700 l 1,5,-1
 402 669 l 1,6,-1
 214 669 l 1,7,-1
 214 0 l 1,0,-1
168 -184 m 1,8,-1
 143 -167 l 1,9,10
 167 -154 167 -154 182.5 -137.5 c 128,-1,11
 198 -121 198 -121 202 -112 c 2,12,-1
 206 -102 l 1,13,-1
 201 -101 l 1,14,15
 186 -94 186 -94 186 -82 c 128,-1,16
 186 -70 186 -70 192.5 -64 c 128,-1,17
 199 -58 199 -58 207.5 -58 c 128,-1,18
 216 -58 216 -58 223 -65 c 128,-1,19
 230 -72 230 -72 230 -81 c 0,20,21
 230 -133 230 -133 168 -184 c 1,8,-1
EndSplineSet
EndChar

StartChar: tcommaaccent
Encoding: 355 355 269
Width: 271
GlyphClass: 2
Flags: W
LayerCount: 2
Fore
SplineSet
167 14 m 1,0,-1
 158 -13 l 1,1,2
 102 3 102 3 77 38 c 128,-1,3
 52 73 52 73 52 132 c 2,4,-1
 52 700 l 1,5,-1
 84 700 l 1,6,-1
 84 501 l 1,7,-1
 228 501 l 1,8,-1
 214 470 l 1,9,-1
 84 470 l 1,10,-1
 84 132 l 2,11,12
 84 82 84 82 103.5 55 c 128,-1,13
 123 28 123 28 167 14 c 1,0,-1
69 -184 m 1,14,-1
 44 -167 l 1,15,16
 68 -154 68 -154 84 -137.5 c 128,-1,17
 100 -121 100 -121 104 -112 c 1,18,-1
 107 -102 l 1,19,-1
 102 -101 l 1,20,21
 87 -94 87 -94 87 -82 c 128,-1,22
 87 -70 87 -70 93.5 -64 c 128,-1,23
 100 -58 100 -58 109 -58 c 128,-1,24
 118 -58 118 -58 124.5 -65 c 128,-1,25
 131 -72 131 -72 131 -81 c 0,26,27
 131 -133 131 -133 69 -184 c 1,14,-1
EndSplineSet
EndChar

StartChar: Tcaron
Encoding: 356 356 270
Width: 402
GlyphClass: 2
Flags: W
LayerCount: 2
Fore
SplineSet
214 0 m 1,0,-1
 183 0 l 1,1,-1
 182 669 l 1,2,-1
 0 669 l 1,3,-1
 0 700 l 1,4,-1
 402 700 l 1,5,-1
 402 669 l 1,6,-1
 214 669 l 1,7,-1
 214 0 l 1,0,-1
344 875 m 1,8,-1
 202 734 l 1,9,-1
 54 875 l 1,10,-1
 77 898 l 1,11,-1
 201 780 l 1,12,-1
 321 898 l 1,13,-1
 344 875 l 1,8,-1
EndSplineSet
EndChar

